<svg width="339" height="456" viewBox="0 0 339 456" fill="none" xmlns="http://www.w3.org/2000/svg">
<path d="M301.84 60.2848L303.798 55.9026C287.618 59.1222 273.401 65.2627 261.452 74.3112C244.6 87.0645 236.263 102.516 232.223 113.227C230.431 118.003 229.097 122.898 228.314 127.614C222.632 127.374 216.262 128.337 209.5 130.465C196.999 134.393 188.166 144.26 181.654 161.506C175.9 176.772 172.569 195.888 168.701 218.02C165.12 238.557 161.06 261.838 154.28 284.606C146.565 310.617 136.447 332.106 123.389 350.28C112.598 365.295 99.6733 377.1 84.9936 385.375C72.2108 392.561 57.6862 397.287 41.772 399.434C27.7837 401.334 13.7256 401.287 0.0148799 399.842L10.3963 404.482C20.8954 405.131 31.6268 404.733 42.3194 403.276C58.7186 401.048 73.7243 396.154 86.9328 388.733C102.115 380.193 115.442 368.014 126.57 352.532C139.874 333.999 150.175 312.146 158.02 285.703C164.851 262.724 168.941 239.328 172.526 218.687C176.35 196.748 179.671 177.798 185.293 162.877C191.335 146.825 199.407 137.704 210.669 134.16C217.681 131.951 223.342 131.331 227.763 131.476C227.538 133.653 227.424 135.773 227.436 137.801C227.504 145.153 229.243 150.869 232.327 153.865C234.799 156.268 238.044 156.846 241.446 155.45C244.993 154.013 247.604 151.71 248.999 148.779C250.339 145.973 250.456 142.747 249.342 139.695C247.533 134.757 242.837 130.827 236.426 128.92C235.072 128.506 233.663 128.217 232.187 127.983C232.95 123.599 234.187 119.064 235.862 114.598C239.731 104.365 247.68 89.5904 263.79 77.3993C274.618 69.2333 287.362 63.5201 301.84 60.2848ZM235.329 132.665C240.529 134.223 244.313 137.277 245.686 141.04C247.319 145.559 245.076 149.814 239.96 151.891C238.006 152.678 236.389 152.424 235.048 151.122C232.758 148.885 231.398 144.041 231.337 137.82C231.312 135.915 231.415 133.917 231.654 131.853C233.059 132.055 234.276 132.344 235.329 132.665Z" fill="#DAE2E8"/>
<path d="M338.749 49.7465L284.889 38.252L292.637 52.6588L325.054 51.6698L295.498 57.9779L295.505 57.9916L295.495 57.9757L286.751 67.8921L299.841 66.0539L305.346 76.2887L338.749 49.7465Z" fill="#DAE2E8"/>
</svg>
