<svg width="338" height="315" viewBox="0 0 338 315" fill="none" xmlns="http://www.w3.org/2000/svg">
<path d="M118.304 85.1228C113.409 73.6152 105.986 63.3297 96.8422 55.4137C89.0596 48.6477 79.7238 43.3768 69.6664 39.9983L71.745 36.4719C82.1158 40.1047 91.49 45.4678 99.4688 52.3726C109.068 60.6958 116.85 71.4716 121.993 83.5422C127.135 95.6129 129.478 108.699 128.805 121.398C128.62 124.974 128.189 128.498 127.537 131.961C138.76 146.295 145.846 163.127 151.794 179.334C153.249 183.274 154.67 187.311 156.038 191.2C161.078 205.412 166.281 220.091 173.59 233.439C181.837 248.498 193.258 262.299 206.624 273.352C220.361 284.718 235.636 293.003 252.036 297.964C258.769 299.985 265.675 301.437 272.587 302.29L270.387 306.022C263.759 305.082 257.277 303.695 250.887 301.76C240.894 298.744 231.289 294.52 222.21 289.168C215.916 285.458 209.858 281.192 204.076 276.417C190.338 265.052 178.579 250.842 170.085 235.336C162.634 221.719 157.36 206.883 152.286 192.534C150.918 188.645 149.486 184.626 148.039 180.714C142.556 165.8 136.132 150.401 126.378 137.073C123.016 149.971 116.444 161.395 107.377 169.703C100.659 175.872 92.3972 180.297 83.492 182.511C74.2588 184.811 64.9614 184.546 56.5928 181.722C48.0218 178.849 40.383 172.979 35.0305 165.235C29.5498 157.276 27.0825 148.057 28.049 139.263C29.1147 129.553 34.3134 120.38 42.686 113.447C50.6027 106.895 60.86 102.859 70.8535 102.375C80.5322 101.915 90.3306 104.121 99.9229 108.917C108.608 113.248 116.819 119.641 123.674 127.39C123.823 127.57 123.982 127.733 124.13 127.914C124.452 125.716 124.661 123.475 124.781 121.228C125.441 109.101 123.199 96.6304 118.304 85.1228ZM120.709 130.023C114.185 122.654 106.381 116.594 98.146 112.482C89.1586 107.996 80.0392 105.935 71.0518 106.363C61.9207 106.798 52.5099 110.5 45.2567 116.516C37.6905 122.787 32.9948 131.029 32.0375 139.69C30.2701 155.661 41.6355 172.466 57.8922 177.945C65.5263 180.521 74.0565 180.751 82.5517 178.643C90.8109 176.581 98.4589 172.489 104.698 166.779C113.898 158.365 120.369 146.441 123.249 133.026C122.426 131.985 121.573 130.995 120.709 130.023Z" fill="#DAE2E8"/>
<path d="M42.9996 26.6055L94.1317 20.3443L85.7225 33.1276L55.6006 29.5287L82.6179 37.8472L82.6099 37.8595L82.6204 37.8454L89.9484 47.8071L77.9039 45.0132L71.93 54.0946L42.9996 26.6055Z" fill="#DAE2E8"/>
</svg>
