<svg width="31" height="27" viewBox="0 0 31 27" fill="none" xmlns="http://www.w3.org/2000/svg">
<path fill-rule="evenodd" clip-rule="evenodd" d="M27.5006 3.93802H21.2506V2.62546C21.2658 1.94625 21.0112 1.28881 20.5426 0.796844C20.0741 0.304883 19.4298 0.0185029 18.7506 0.000488281H11.2506C10.5715 0.0185029 9.92718 0.304883 9.45864 0.796844C8.99011 1.28881 8.73552 1.94625 8.75064 2.62546V3.93802H2.50064C1.8215 3.95603 1.17718 4.24226 0.708644 4.73422C0.24011 5.22618 -0.0144791 5.88378 0.000636608 6.56299V10.5005C-0.0144791 11.1797 0.24011 11.8372 0.708644 12.3291C1.17718 12.8211 1.8215 13.1075 2.50064 13.1255H12.5006V12.463C12.4983 12.3791 12.5126 12.2956 12.5429 12.2173C12.5732 12.139 12.6189 12.0675 12.677 12.007C12.7352 11.9465 12.8048 11.8983 12.8818 11.865C12.9588 11.8316 13.0417 11.8139 13.1256 11.8129H16.8756C16.9596 11.8139 17.0424 11.8316 17.1195 11.865C17.1965 11.8983 17.2661 11.9465 17.3242 12.007C17.3824 12.0675 17.4281 12.139 17.4584 12.2173C17.4886 12.2956 17.503 12.3791 17.5006 12.463V13.1255H27.5006C28.1798 13.1075 28.8241 12.8211 29.2926 12.3291C29.7612 11.8372 30.0158 11.1797 30.0006 10.5005V6.56299C30.0158 5.88378 29.7612 5.22618 29.2926 4.73422C28.8241 4.24226 28.1798 3.95603 27.5006 3.93802ZM18.7506 3.93802H11.2506V2.62546H18.7506V3.93802ZM29.6506 13.8379C29.5482 13.783 29.4318 13.7598 29.3161 13.7709C29.2005 13.7821 29.0907 13.8271 29.0006 13.9005C28.5754 14.2436 28.0469 14.4331 27.5006 14.438H17.5006V16.4005C17.5031 16.485 17.4889 16.5692 17.4588 16.6483C17.4288 16.7273 17.3835 16.7998 17.3255 16.8613C17.2674 16.9228 17.1977 16.9723 17.1205 17.0069C17.0434 17.0415 16.9602 17.0606 16.8756 17.063H13.1256C13.0411 17.0606 12.9579 17.0415 12.8807 17.0069C12.8036 16.9723 12.7339 16.9228 12.6758 16.8613C12.6178 16.7998 12.5725 16.7273 12.5424 16.6483C12.5124 16.5692 12.4981 16.485 12.5006 16.4005V14.438H2.50064C1.95435 14.4331 1.42583 14.2436 1.0007 13.9005C0.910614 13.8271 0.800813 13.7821 0.685146 13.7709C0.569478 13.7598 0.453093 13.783 0.350673 13.8379C0.243506 13.8937 0.154012 13.9783 0.0921893 14.0821C0.0303667 14.1858 -0.00137506 14.3048 0.000636608 14.4255V23.6255C-0.0144791 24.3047 0.24011 24.9622 0.708644 25.4541C1.17718 25.9461 1.8215 26.2325 2.50064 26.2505H27.5006C28.1798 26.2325 28.8241 25.9461 29.2926 25.4541C29.7612 24.9622 30.0158 24.3047 30.0006 23.6255V14.4255C30.0026 14.3048 29.9709 14.1858 29.9091 14.0821C29.8473 13.9783 29.7578 13.8937 29.6506 13.8379Z" fill="#C4CFDD"/>
</svg>
