<svg width="53" height="45" viewBox="0 0 53 45" fill="none" xmlns="http://www.w3.org/2000/svg">
<path d="M49.0146 24.5001C48.7936 25.4754 47.8366 26.0788 46.8614 25.8578L43.3504 25.0622L41.8255 31.7916L34.8655 23.1396L23.4548 20.5539C22.4795 20.3329 21.8761 19.3759 22.097 18.4007L25.6772 2.6012C25.8982 1.62592 26.8552 1.0225 27.8304 1.24349L51.237 6.54737C52.2123 6.76836 52.8157 7.72538 52.5948 8.70065L49.0146 24.5001Z" fill="#DAE2E8"/>
<path d="M5.26663 38.3753L7.25559 29.5978L5.69515 29.2442C3.64707 28.7801 2.36479 26.7464 2.82888 24.6984L6.409 8.89892C6.87309 6.85084 8.90675 5.56856 10.9548 6.03265L34.3614 11.3365C36.4095 11.8006 37.6918 13.8343 37.2277 15.8824L33.6697 31.5843C33.2056 33.6324 31.1719 34.9146 29.1238 34.4505L18.3958 32.0196L5.26663 38.3753ZM5.79628 26.2898L12.0628 27.4831L10.002 33.1645L18.0119 28.8312L30.9103 31.5273L34.402 14.118L10.288 8.88042L5.79628 26.2898Z" fill="#DAE2E8"/>
</svg>
