<svg width="170" height="170" viewBox="0 0 170 170" fill="none" xmlns="http://www.w3.org/2000/svg">
<path d="M39.8607 20.6272C39.8607 21.4205 40.4285 22.1005 41.2235 22.1005C42.0184 22.1005 42.5862 21.5339 42.5862 20.7405C42.6997 17.7939 42.1319 14.8472 41.1099 12.1272C40.315 12.5805 39.52 13.1472 38.6116 13.7139C39.6336 15.8672 39.9743 18.2472 39.8607 20.6272Z" fill="#DAE2E8" fill-opacity="0.7"/>
<path d="M31.9115 19.2672C32.7064 19.2672 33.3878 18.5872 33.3878 17.7939C33.3878 17.6805 33.3878 17.5672 33.2742 17.4539C32.5929 18.0205 31.9115 18.4739 31.2301 19.0405C31.3437 19.0405 31.4572 19.1539 31.5708 19.1539H31.9115V19.2672Z" fill="#DAE2E8" fill-opacity="0.7"/>
<path d="M57.0083 9.1805C57.2354 9.29383 57.4625 9.40716 57.8032 9.40716C58.2575 9.40716 58.7117 9.1805 59.0524 8.72716C59.5066 8.04716 59.2795 7.1405 58.5981 6.8005C57.9168 6.34716 57.349 5.55383 57.1219 4.7605C56.2134 5.1005 55.3049 5.4405 54.51 5.7805C54.8507 7.1405 55.7591 8.38717 57.0083 9.1805Z" fill="#DAE2E8" fill-opacity="0.7"/>
<path d="M63.027 2.94727C62.4592 3.0606 62.005 3.28727 61.4372 3.4006C62.005 3.51393 62.6863 3.4006 63.027 2.94727Z" fill="#DAE2E8" fill-opacity="0.7"/>
<path d="M40.9963 30.3737C41.5641 30.7137 42.2455 30.8271 42.9268 30.8271C44.7438 30.8271 46.4472 29.8071 47.4692 28.5604C48.832 26.8604 49.1726 24.7071 49.6269 23.0071L50.876 17.1137C50.9896 16.3204 50.5354 15.6404 49.7404 15.4137C48.9455 15.3004 48.2642 15.7537 48.037 16.5471L46.7879 22.4404C46.4472 23.9137 46.1065 25.6137 45.198 26.7471C44.5167 27.6537 43.1539 28.3337 42.2455 27.7671C41.5641 27.4271 40.6556 27.7671 40.3149 28.4471C39.9742 29.2404 40.3149 30.0337 40.9963 30.3737Z" fill="#DAE2E8" fill-opacity="0.7"/>
<path d="M13.4011 45.7872C13.6283 46.3539 14.1961 46.6939 14.7639 46.6939C14.991 46.6939 15.1045 46.6939 15.3317 46.5806C16.013 46.2406 16.4673 45.4472 16.1266 44.7672C15.1045 42.2739 15.3317 39.2139 16.6944 36.9472C18.0571 34.5672 20.5554 32.9806 23.2809 32.6406C23.508 32.6406 23.7351 32.6406 24.0758 32.5272C25.0979 32.4139 26.2335 32.3006 27.3691 31.6206C28.3911 31.0539 29.0725 29.8072 29.0725 28.6739C29.0725 27.6539 28.7318 26.8606 27.9369 26.2939C27.2555 25.8406 26.347 25.9539 25.8928 26.5206C25.4385 27.2006 25.5521 27.9939 26.1199 28.4472C26.1199 28.5606 26.0063 29.0139 25.7792 29.1272C25.325 29.4672 24.5301 29.4672 23.7351 29.5806C23.508 29.5806 23.1673 29.5806 22.9402 29.6939C21.9182 29.8072 20.8961 30.1472 19.8741 30.6006C17.2622 33.6606 14.8774 36.9472 12.7198 40.4606C12.3791 42.2739 12.7198 44.0872 13.4011 45.7872Z" fill="#DAE2E8" fill-opacity="0.7"/>
<path d="M33.842 34.4539C33.9555 34.4539 34.1827 34.4539 34.2962 34.3406L34.864 34.1139C35.659 33.8872 35.9996 33.0939 35.7725 32.3006C35.5454 31.5072 34.7505 31.1672 33.9555 31.3939L33.3877 31.6206C32.5928 31.8472 32.2521 32.6406 32.4793 33.4339C32.5928 34.0006 33.1606 34.4539 33.842 34.4539Z" fill="#DAE2E8" fill-opacity="0.7"/>
<path d="M10.6757 49.6404C9.88073 49.5271 9.19937 50.0938 9.08581 50.8871L7.95021 59.2738C7.83664 60.0671 8.40445 60.7471 9.19937 60.8604C9.31293 60.8604 9.31293 60.8604 9.42649 60.8604C10.1079 60.8604 10.7892 60.2938 10.7892 59.6138L11.9248 51.2271C11.9248 50.5471 11.4706 49.7538 10.6757 49.6404Z" fill="#DAE2E8" fill-opacity="0.7"/>
<path d="M31.3437 53.3805C31.4572 53.3805 31.5708 53.3805 31.6844 53.3805C32.4793 53.1538 32.9335 52.3605 32.7064 51.6805C31.9115 48.8472 31.5708 45.7872 31.7979 42.8405C31.7979 42.0472 31.2301 41.3672 30.4352 41.3672C29.6403 41.3672 28.9589 41.9339 28.9589 42.7272C28.7318 46.0139 29.0725 49.3005 29.981 52.4738C30.0945 52.9272 30.6623 53.3805 31.3437 53.3805Z" fill="#DAE2E8" fill-opacity="0.7"/>
<path d="M57.6897 33.4337C57.8032 33.4337 58.0304 33.4337 58.1439 33.3204L66.4338 30.2604C66.7745 30.1471 67.1152 29.8071 67.2288 29.4671C67.3423 29.1271 67.3423 28.7871 67.2288 28.3337L67.0016 27.8804C66.7745 27.2004 65.866 26.7471 65.1847 27.0871C64.7304 27.2004 64.5033 27.5404 64.3897 27.9937L57.1219 30.7137C56.4405 30.9404 55.9863 31.8471 56.327 32.5271C56.5541 33.0937 57.1219 33.4337 57.6897 33.4337Z" fill="#DAE2E8" fill-opacity="0.7"/>
<path d="M57.2355 18.2472L63.4813 21.9872C63.7084 22.1005 63.9355 22.2139 64.1626 22.2139C64.6169 22.2139 65.0711 21.9872 65.4118 21.5339C65.866 20.8539 65.6389 19.9472 64.9576 19.6072L58.7117 15.8672C58.0304 15.4139 57.1219 15.6405 56.7812 16.3205C56.327 17.0005 56.5541 17.9072 57.2355 18.2472Z" fill="#DAE2E8" fill-opacity="0.7"/>
<path d="M74.4967 2.04038C74.7238 2.38038 75.178 2.60705 75.6323 2.60705C75.973 2.60705 76.2001 2.49372 76.5408 2.26705L79.1526 0.227051C77.5628 0.340384 75.973 0.453717 74.2695 0.680384C74.156 1.13372 74.2695 1.58705 74.4967 2.04038Z" fill="#DAE2E8" fill-opacity="0.7"/>
<path d="M70.8627 10.2005C71.2034 10.5405 71.5441 10.8805 71.8848 11.3338C72.6797 12.3538 73.2475 13.4872 73.5882 14.6205C74.0424 15.9805 73.9289 17.3405 73.3611 18.0205C73.134 18.3605 72.5661 18.7005 72.1119 18.7005C71.8848 18.7005 71.5441 18.7005 71.4305 18.4738C70.8627 17.9072 69.9543 17.9072 69.3865 18.4738C68.8187 19.0405 68.8187 19.9472 69.3865 20.5138C70.0678 21.1938 70.9763 21.6472 71.9983 21.6472C72.1119 21.6472 72.2255 21.6472 72.339 21.6472C73.7018 21.5338 74.9509 20.8538 75.7458 19.7205C76.7679 18.2472 76.995 16.0938 76.3136 13.8272C75.8594 12.2405 75.0645 10.7672 74.0424 9.5205C73.7018 9.06716 73.3611 8.72717 72.9068 8.27383C72.339 7.59383 71.6577 7.02717 71.317 6.34717C70.8627 5.55383 70.7492 4.4205 71.317 3.96717C71.8848 3.4005 71.8848 2.49383 71.4305 1.92717C70.8627 1.3605 69.9543 1.3605 69.3865 1.81383C67.683 3.4005 67.9102 5.89383 68.9322 7.59383C69.3865 8.72717 70.1814 9.5205 70.8627 10.2005Z" fill="#DAE2E8" fill-opacity="0.7"/>
<path d="M47.4693 32.1872C46.3337 34.4539 46.2201 37.0606 47.015 39.2139C47.9235 41.7072 50.1947 43.5206 52.693 43.7472C52.9202 43.7472 53.1473 43.7472 53.3744 43.7472C55.8727 43.7472 58.3711 42.0472 59.0524 39.7806C59.2795 38.9872 58.8253 38.1939 58.1439 37.9672C57.349 37.7406 56.5541 38.1939 56.327 38.8739C55.8727 40.1206 54.3964 41.0272 53.0337 40.9139C51.5574 40.8006 50.1947 39.6672 49.6269 38.0806C49.0591 36.6072 49.1727 34.7939 49.9676 33.2072C50.6489 31.7339 51.8981 30.3739 53.6015 29.2406C54.2829 28.7872 54.3964 27.8806 53.9422 27.3139C53.488 26.6339 52.5795 26.5206 52.0117 26.9739C49.9676 28.5606 48.3777 30.2606 47.4693 32.1872Z" fill="#DAE2E8" fill-opacity="0.7"/>
<path d="M37.7031 51.4537C37.0217 51.7937 36.7946 52.7004 37.1353 53.3804C37.3624 53.8337 37.9302 54.1737 38.3845 54.1737C38.6116 54.1737 38.8387 54.1737 39.0658 53.9471C42.132 52.2471 44.176 48.9604 44.176 45.4471C44.176 43.7471 43.7218 42.3871 42.8133 41.2537C41.6777 39.7804 39.7472 39.2137 38.1573 39.7804C37.3624 40.0071 37.0217 40.8004 37.2489 41.5937C37.476 42.3871 38.2709 42.7271 39.0658 42.5004C39.5201 42.3871 40.2014 42.6137 40.6557 43.0671C41.2235 43.7471 41.337 44.7671 41.337 45.4471C41.2235 47.9404 39.8607 50.3204 37.7031 51.4537Z" fill="#DAE2E8" fill-opacity="0.7"/>
<path d="M16.2401 56.5538C16.4672 56.5538 16.8079 56.6671 17.035 56.6671C18.6249 56.6671 20.3283 55.7604 21.3503 54.2871C22.1453 53.0404 22.5995 51.5671 22.7131 49.5271C22.7131 48.9604 22.7131 48.3938 22.7131 47.8271C22.7131 46.9204 22.7131 46.1271 22.8266 45.3338C23.0537 43.7471 23.6216 42.2738 24.53 40.9138C24.9843 40.2338 24.8707 39.4404 24.1894 38.9871C23.508 38.5338 22.7131 38.6471 22.2588 39.3271C21.1232 41.0271 20.3283 42.9538 20.1012 44.9938C19.9876 45.9004 19.9876 46.9204 19.9876 47.8271C19.9876 48.3938 19.9876 48.8471 19.9876 49.4138C19.8741 50.8871 19.6469 52.0204 19.0791 52.7004C18.5113 53.4938 17.6028 53.9471 16.8079 53.8338C16.013 53.7204 15.3316 54.1738 15.1045 54.9671C14.991 55.6471 15.5588 56.4404 16.2401 56.5538Z" fill="#DAE2E8" fill-opacity="0.7"/>
<path d="M6.70102 74.1205C9.6536 74.1205 12.6062 72.5338 14.196 69.9272C14.6503 69.2472 14.4231 68.3405 13.7418 68.0005C13.0604 67.5472 12.1519 67.7738 11.8112 68.4538C10.5621 70.3805 7.95019 71.5138 5.67898 71.1738C3.97557 70.8338 2.38573 69.7005 1.5908 68.1138C1.36368 69.3605 1.13656 70.4938 0.909441 71.7405C2.04505 72.8738 3.52133 73.5538 5.11118 73.8938C5.67898 74.0072 6.13322 74.1205 6.70102 74.1205Z" fill="#DAE2E8" fill-opacity="0.7"/>
<path d="M22.9402 57.1206L22.5995 57.4606C22.0317 58.0272 22.0317 58.9339 22.5995 59.5006C22.8267 59.7272 23.2809 59.9539 23.6216 59.9539C23.9623 59.9539 24.3029 59.8406 24.6436 59.5006L24.9843 59.1606C25.5521 58.5939 25.5521 57.6872 24.9843 57.1206C24.4165 56.5539 23.508 56.5539 22.9402 57.1206Z" fill="#DAE2E8" fill-opacity="0.7"/>
<path d="M57.0084 24.2539V24.3672C57.0084 25.1605 57.6897 25.8405 58.4846 25.8405C59.2796 25.8405 59.9609 25.1605 59.9609 24.3672V24.2539C59.9609 23.4605 59.2796 22.7805 58.4846 22.7805C57.6897 22.7805 57.0084 23.4605 57.0084 24.2539Z" fill="#DAE2E8" fill-opacity="0.7"/>
<path d="M80.856 9.40717H80.9696C81.651 9.40717 82.2188 8.95383 82.4459 8.38717C82.673 7.70717 82.4459 7.02717 81.8781 6.57383C81.651 6.4605 81.4238 6.34717 81.1967 6.34717C80.9696 6.34717 80.6289 6.34717 80.4018 6.4605C79.7204 6.68717 79.3798 7.36717 79.4933 8.1605C79.6069 8.72717 80.1747 9.29383 80.856 9.40717Z" fill="#DAE2E8" fill-opacity="0.7"/>
<path d="M82.9001 2.83382C83.2408 3.51382 84.1493 3.85382 84.8306 3.51382C85.512 3.17382 85.8527 2.38049 85.512 1.58715C85.512 1.47382 85.6256 1.36049 85.7391 1.24715C85.9663 1.02049 86.5341 0.907155 87.2154 0.907155C89.3731 0.907155 91.4172 1.70049 92.8934 3.28716C93.1206 3.62716 93.5748 3.74049 93.9155 3.74049C94.2562 3.74049 94.5968 3.62715 94.824 3.40049C95.3918 2.83382 95.3918 1.92716 94.9375 1.36049C94.5968 1.02049 94.2562 0.793822 93.9155 0.453822C91.0765 0.113822 88.1239 0.000488281 85.0578 0.000488281C84.3764 0.000488281 83.695 0.000488281 83.0137 0.000488281C82.5594 0.907155 82.5594 2.04049 82.9001 2.83382Z" fill="#DAE2E8" fill-opacity="0.7"/>
<path d="M83.0136 22.5539C83.2408 22.6672 83.3543 22.6672 83.5814 22.6672C84.1492 22.6672 84.7171 22.3272 84.9442 21.7606L89.2595 10.9939C89.6001 10.3139 89.1459 9.40723 88.4645 9.18056C87.7832 8.84056 86.8747 9.2939 86.6476 9.9739L82.3323 20.7406C81.9916 21.4206 82.3323 22.3272 83.0136 22.5539Z" fill="#DAE2E8" fill-opacity="0.7"/>
<path d="M72.7932 27.4271C71.9983 27.6538 71.6576 28.4471 71.8847 29.2405L74.9509 38.9871C75.178 39.5538 75.7458 40.0071 76.3136 40.0071C76.4272 40.0071 76.6543 40.0071 76.7678 39.8938C77.5628 39.6671 77.9034 38.8738 77.6763 38.0805L74.6102 28.3338C74.3831 27.6538 73.5881 27.2005 72.7932 27.4271Z" fill="#DAE2E8" fill-opacity="0.7"/>
<path d="M58.7118 54.9671C58.9389 56.2137 59.8474 57.3471 60.983 57.9137C61.5508 58.1404 62.1186 58.3671 62.6864 58.3671C63.1406 58.3671 63.5949 58.2537 64.0491 58.1404C64.7305 57.8004 65.0712 57.0071 64.7305 56.3271C64.3898 55.6471 63.5949 55.3071 62.9135 55.6471C62.6864 55.7604 62.4593 55.6471 62.3457 55.5337C61.8915 55.3071 61.5508 54.8537 61.5508 54.5137C61.3237 53.4937 61.8915 52.3604 62.3457 51.5671C62.6864 51.0004 63.0271 50.5471 63.4813 49.9804C63.9355 49.4137 64.3898 48.7337 64.844 48.1671C66.7746 44.9937 67.1152 40.8004 65.7525 37.4004C65.4118 36.7204 64.6169 36.2671 63.9355 36.6071C63.2542 36.9471 62.7999 37.7404 63.1406 38.4204C64.1627 41.1404 63.9355 44.3137 62.4593 46.6937C62.1186 47.2604 61.7779 47.7137 61.3237 48.2804C60.8694 48.8471 60.4152 49.4137 60.0745 50.0937C58.7118 51.6804 58.3711 53.3804 58.7118 54.9671Z" fill="#DAE2E8" fill-opacity="0.7"/>
<path d="M49.7405 47.2605C48.9455 47.0338 48.2642 47.6005 48.037 48.2805L45.993 57.0071C45.7658 57.8005 46.3336 58.4805 47.015 58.7071C47.1286 58.7071 47.2421 58.7071 47.3557 58.7071C48.037 58.7071 48.6049 58.2538 48.7184 57.5738L50.7625 48.8471C50.9896 48.1671 50.5354 47.3738 49.7405 47.2605Z" fill="#DAE2E8" fill-opacity="0.7"/>
<path d="M43.7217 65.6205L32.8199 59.8405C32.1386 59.5005 31.2301 59.7272 30.8894 60.4072C30.5487 61.0872 30.7759 61.9939 31.4572 62.3339L42.359 68.1139C42.5861 68.2272 42.8133 68.2272 43.0404 68.2272C43.4946 68.2272 44.0624 68.0005 44.2895 67.4339C44.6302 66.8672 44.4031 66.0739 43.7217 65.6205Z" fill="#DAE2E8" fill-opacity="0.7"/>
<path d="M61.0965 43.9737L61.4372 43.6337C62.005 43.067 62.005 42.1604 61.4372 41.5937C60.8694 41.027 59.9609 41.027 59.3931 41.5937L59.0524 42.047C58.4846 42.6137 58.4846 43.5204 59.0524 44.087C59.2795 44.3137 59.7338 44.427 60.0744 44.427C60.4151 44.427 60.8694 44.2004 61.0965 43.9737Z" fill="#DAE2E8" fill-opacity="0.7"/>
<path d="M83.2408 32.3004C84.0357 32.3004 84.7171 31.6204 84.7171 30.8271C84.7171 30.0338 84.0357 29.3538 83.2408 29.3538H83.0137C82.2187 29.3538 81.5374 30.0338 81.5374 30.8271C81.5374 31.6204 82.2187 32.3004 83.0137 32.3004H83.2408Z" fill="#DAE2E8" fill-opacity="0.7"/>
<path d="M98.5715 19.1539C98.7986 19.6072 99.2528 19.8339 99.8206 19.8339C100.048 19.8339 100.388 19.7205 100.616 19.6072C101.297 19.1539 101.524 18.3605 101.07 17.6805L94.4833 7.25388C94.0291 6.57388 93.2341 6.34721 92.5528 6.80055C91.8714 7.25388 91.6443 8.04721 92.0985 8.72721L98.5715 19.1539Z" fill="#DAE2E8" fill-opacity="0.7"/>
<path d="M101.751 9.97375C104.477 10.3138 106.975 11.9004 108.338 14.2804C109.133 15.5271 109.473 17.0004 109.36 18.2471C109.246 20.1738 107.883 22.1004 106.18 23.0071C105.499 23.3471 105.158 24.2537 105.499 24.9338C105.726 25.3871 106.294 25.7271 106.748 25.7271C106.975 25.7271 107.202 25.7271 107.316 25.6138C110.041 24.2538 111.858 21.5337 112.085 18.4738C112.199 16.5471 111.744 14.6204 110.722 12.8071C108.905 9.74708 105.612 7.48042 101.978 7.14042C101.183 7.02708 100.502 7.59375 100.388 8.38708C100.388 9.18042 100.956 9.86042 101.751 9.97375Z" fill="#DAE2E8" fill-opacity="0.7"/>
<path d="M88.6917 21.8739C87.6697 24.0272 87.6697 26.5206 88.5781 28.7873C89.4866 31.0539 91.4172 32.6406 93.5748 32.9806C93.9155 32.9806 94.2562 33.0939 94.4833 33.0939C96.7545 33.0939 98.7986 31.7339 99.5935 29.6939C99.8206 29.0139 99.4799 28.1073 98.685 27.8806C98.0037 27.6539 97.0952 27.9939 96.8681 28.7873C96.5274 29.8073 95.1646 30.3739 94.029 30.2606C92.7799 30.0339 91.6443 29.0139 91.0765 27.7673C90.5087 26.2939 90.5087 24.5939 91.19 23.2339C91.5307 22.5539 91.19 21.6472 90.5087 21.3072C89.9409 20.8539 89.0324 21.1939 88.6917 21.8739Z" fill="#DAE2E8" fill-opacity="0.7"/>
<path d="M76.5408 49.6404C75.6323 49.3004 74.7238 49.0737 73.5882 49.0737C72.1119 49.1871 70.8627 50.2071 70.522 51.5671C70.2949 52.3604 70.8627 53.0404 71.5441 53.2671C72.339 53.4937 73.0204 52.9271 73.2475 52.2471C73.2475 52.1337 73.4746 52.0204 73.8153 52.0204C74.2695 52.0204 74.9509 52.1337 75.6323 52.3604C77.4492 52.9271 79.2662 53.4937 81.1967 53.4937C81.1967 53.4937 81.1967 53.4937 81.3103 53.4937C83.6951 53.4937 85.8527 52.5871 87.1019 50.8871C88.6917 48.8471 88.5782 45.7871 86.8748 44.2004C86.307 43.6337 85.3985 43.6337 84.8307 44.2004C84.2629 44.7671 84.2629 45.6737 84.8307 46.2404C85.512 46.9204 85.512 48.2804 84.8307 49.1871C84.1493 50.0937 82.7866 50.6604 81.1967 50.6604C79.7205 50.6604 78.2442 50.2071 76.5408 49.6404Z" fill="#DAE2E8" fill-opacity="0.7"/>
<path d="M52.1253 65.3939C51.4439 65.0539 50.5354 65.2806 50.1947 65.9606C49.854 66.6406 50.0812 67.5472 50.7625 67.8872C52.4659 68.7939 54.2829 69.3606 55.9863 69.3606C56.7812 69.3606 57.4626 69.2472 58.2575 69.0206C61.0965 68.2272 63.2542 65.9606 63.7084 63.3539C63.822 62.5606 63.3677 61.8806 62.5728 61.7672C61.7779 61.6539 61.0965 62.1072 60.983 62.9006C60.7558 64.4872 59.3931 65.8472 57.5762 66.3006C55.9863 66.7539 53.9422 66.4139 52.1253 65.3939Z" fill="#DAE2E8" fill-opacity="0.7"/>
<path d="M23.3945 67.0939C22.7131 67.6605 22.7131 68.4539 23.1674 69.1339C24.7572 70.9472 26.3471 72.8739 27.2555 75.0272C28.164 77.2939 28.164 79.5605 27.142 81.1472C26.2335 82.7339 24.303 83.6405 22.486 83.4139C21.6911 83.3005 21.0097 83.8672 20.8962 84.6605C20.7826 85.4539 21.3504 86.1339 22.1453 86.2472C22.3724 86.2472 22.7131 86.2472 22.9402 86.2472C25.5521 86.2472 28.0505 84.8872 29.4132 82.6205C30.8895 80.2405 31.003 76.9539 29.6403 73.8939C28.6183 71.2872 26.6877 69.1339 25.0979 67.2072C24.8708 66.6405 23.9623 66.6405 23.3945 67.0939Z" fill="#DAE2E8" fill-opacity="0.7"/>
<path d="M2.49931 81.8272C3.06712 81.9406 3.63492 82.5072 3.63492 82.9606C3.52136 83.7539 4.20272 84.4339 4.88408 84.5472H4.99764C5.67901 84.5472 6.36037 83.9806 6.36037 83.3006C6.58749 81.2606 4.88408 79.6739 3.18068 79.2206C2.15863 78.8806 1.13659 78.9939 0.114545 79.1072C0.114545 79.9006 0.000984192 80.9206 0.000984192 81.9406C0.909468 81.7139 1.70439 81.6006 2.49931 81.8272Z" fill="#DAE2E8" fill-opacity="0.7"/>
<path d="M15.3316 78.0872V77.8605C15.3316 77.0672 14.6502 76.3872 13.8553 76.3872C13.0604 76.3872 12.379 77.0672 12.379 77.8605V78.0872C12.379 78.8805 13.0604 79.5605 13.8553 79.5605C14.6502 79.5605 15.3316 78.8805 15.3316 78.0872Z" fill="#DAE2E8" fill-opacity="0.7"/>
<path d="M118.104 13.9405C119.353 14.5072 120.716 14.7338 122.192 14.7338C124.69 14.7338 127.189 13.9405 129.119 12.3538C129.119 12.3538 129.119 12.3538 129.119 12.2405C128.211 11.6738 127.302 11.2205 126.394 10.6538C124.236 11.9005 121.511 12.2405 119.126 11.2205C116.628 10.2005 114.811 7.82051 114.356 5.10051C113.561 4.87385 112.653 4.53385 111.744 4.19385C111.631 4.42051 111.517 4.64718 111.631 4.98718C111.858 8.84051 114.584 12.3538 118.104 13.9405Z" fill="#DAE2E8" fill-opacity="0.7"/>
<path d="M33.842 69.1339C34.0691 68.9073 34.2962 68.4539 34.2962 68.1139C34.2962 67.7739 34.1827 67.3206 33.842 67.0939C33.2742 66.5273 32.3657 66.5273 31.7979 67.0939C31.5708 67.3206 31.3437 67.7739 31.3437 68.1139C31.3437 68.4539 31.4572 68.9073 31.7979 69.1339C32.025 69.3606 32.4793 69.5873 32.8199 69.5873C33.2742 69.5873 33.6149 69.4739 33.842 69.1339Z" fill="#DAE2E8" fill-opacity="0.7"/>
<path d="M35.4318 73.3271C34.6369 73.3271 34.0691 74.0072 34.0691 74.8005V75.1405C34.0691 75.9338 34.7505 76.5005 35.4318 76.5005C35.4318 76.5005 35.4318 76.5005 35.5454 76.5005C36.3403 76.5005 36.9081 75.8205 36.9081 75.0272V74.6872C36.9081 73.8938 36.2268 73.3271 35.4318 73.3271Z" fill="#DAE2E8" fill-opacity="0.7"/>
<path d="M69.8407 43.7472L69.2729 43.9738C68.4779 44.2005 68.1373 44.9938 68.3644 45.7872C68.5915 46.3538 69.1593 46.6938 69.7271 46.6938C69.8407 46.6938 70.0678 46.6938 70.1813 46.5805L70.7492 46.3538C71.5441 46.1272 71.8848 45.3338 71.6576 44.5405C71.4305 43.8605 70.6356 43.5205 69.8407 43.7472Z" fill="#DAE2E8" fill-opacity="0.7"/>
<path d="M92.6663 41.5939C92.8935 41.5939 93.2341 41.4805 93.4613 41.3672L94.0291 41.0272C94.7104 40.5739 94.824 39.6672 94.3697 39.1005C93.9155 38.4205 93.007 38.3072 92.4392 38.7605L91.8714 39.1005C91.1901 39.5539 91.0765 40.4605 91.5307 41.0272C91.7579 41.3672 92.2121 41.5939 92.6663 41.5939Z" fill="#DAE2E8" fill-opacity="0.7"/>
<path d="M105.953 18.3606C105.726 17.5672 104.931 17.1139 104.249 17.3406L103.682 17.4539C102.887 17.6806 102.433 18.4739 102.66 19.1539C102.887 19.8339 103.455 20.1739 104.022 20.1739C104.136 20.1739 104.249 20.1739 104.363 20.1739L104.931 20.0606C105.726 19.8339 106.18 19.0406 105.953 18.3606Z" fill="#DAE2E8" fill-opacity="0.7"/>
<path d="M134.457 23.1205H134.57C135.251 23.1205 135.933 22.5539 135.933 21.8739L136.387 17.2272C135.479 16.5472 134.57 15.9805 133.662 15.3005L133.094 21.5339C133.094 22.3272 133.662 23.0072 134.457 23.1205Z" fill="#DAE2E8" fill-opacity="0.7"/>
<path d="M114.016 29.6939C114.243 29.6939 114.356 29.6939 114.583 29.5806L124.804 25.5006C125.485 25.1606 125.94 24.3673 125.599 23.6873C125.258 23.0073 124.463 22.5539 123.782 22.8939L113.561 26.9739C112.88 27.3139 112.426 28.1073 112.767 28.7873C112.994 29.3539 113.448 29.6939 114.016 29.6939Z" fill="#DAE2E8" fill-opacity="0.7"/>
<path d="M100.956 32.4138C99.3664 36.7205 98.2308 41.1405 97.5494 45.6738C97.4359 46.4672 98.0037 47.1472 98.7986 47.2605C98.9122 47.2605 98.9122 47.2605 99.0257 47.2605C99.7071 47.2605 100.388 46.6938 100.388 46.0138C100.956 41.7072 102.092 37.4005 103.568 33.4338C103.795 32.7538 103.455 31.8472 102.773 31.6205C102.092 31.2805 101.297 31.7338 100.956 32.4138Z" fill="#DAE2E8" fill-opacity="0.7"/>
<path d="M90.0545 52.2472C89.2595 52.0205 88.5782 52.5872 88.351 53.2672C88.0104 54.8539 88.6917 56.6672 90.0545 57.8005C91.3036 58.8205 92.8935 59.2739 93.9155 59.5005C94.9375 59.7272 95.846 59.8405 96.7545 59.8405C98.0037 59.8405 99.1393 59.6139 100.161 59.1605C102.433 58.1405 104.022 55.9872 104.363 53.6072C104.477 52.8139 103.909 52.1339 103.114 52.0205C102.319 51.9072 101.638 52.4739 101.524 53.2672C101.297 54.7405 100.275 56.1005 98.9122 56.6672C97.7766 57.1205 96.3003 57.2339 94.3697 56.8939C93.1206 56.6672 92.3257 56.3272 91.7579 55.7605C91.1901 55.3072 90.8494 54.5139 90.9629 53.9472C91.3036 53.1539 90.8494 52.3605 90.0545 52.2472Z" fill="#DAE2E8" fill-opacity="0.7"/>
<path d="M121.624 44.3139C120.034 44.9939 117.99 44.5406 116.855 43.2939C116.4 42.8406 116.06 42.1605 115.719 41.4805C115.378 40.8005 115.038 40.1205 114.47 39.4405C113.221 37.8539 111.404 36.8339 109.473 36.6072C108.678 36.4939 107.997 37.0606 107.883 37.8539C107.77 38.6472 108.338 39.3272 109.133 39.4405C110.382 39.5539 111.517 40.2339 112.312 41.2539C112.653 41.7072 112.994 42.2739 113.334 42.8405C113.789 43.6339 114.129 44.4272 114.811 45.1072C116.173 46.6939 118.104 47.4872 120.148 47.4872C121.056 47.4872 122.078 47.2606 122.987 46.9206C124.236 46.3539 125.145 45.4472 125.485 44.4272C126.053 42.9539 125.599 41.2539 124.35 40.4606C123.668 40.0072 122.76 40.2339 122.419 40.9139C121.965 41.5939 122.192 42.5005 122.873 42.8405C122.987 42.8405 122.987 43.1805 122.987 43.4072C122.533 43.7472 122.192 44.0872 121.624 44.3139Z" fill="#DAE2E8" fill-opacity="0.7"/>
<path d="M119.694 29.9206C117.877 31.2806 116.855 33.2072 116.855 35.1339C116.855 35.9272 117.536 36.4939 118.217 36.4939C119.012 36.4939 119.58 35.8139 119.58 35.0206C119.58 34.0006 120.148 32.9806 121.17 32.1872C122.306 31.3939 123.895 31.0539 125.258 31.2806C126.621 31.5072 127.984 32.3006 128.779 33.4339C129.233 34.1139 130.141 34.2272 130.709 33.7739C131.39 33.3206 131.504 32.4139 131.05 31.8472C129.801 30.0339 127.756 28.9006 125.599 28.5606C123.668 28.1073 121.397 28.6739 119.694 29.9206Z" fill="#DAE2E8" fill-opacity="0.7"/>
<path d="M140.362 27.4271H140.475C141.27 27.4271 141.952 26.7471 141.952 25.9538C141.952 25.1605 141.27 24.4805 140.475 24.4805H140.362C139.567 24.4805 138.885 25.1605 138.885 25.9538C138.885 26.7471 139.567 27.4271 140.362 27.4271Z" fill="#DAE2E8" fill-opacity="0.7"/>
<path d="M127.189 20.8539C127.416 20.9673 127.529 20.9673 127.757 20.9673C128.324 20.9673 128.779 20.7406 129.233 20.4006C129.801 19.8339 130.028 19.1539 129.801 18.3606C129.573 17.5673 128.779 17.2273 127.984 17.4539C127.529 17.5673 127.302 17.9073 127.075 18.2473C126.734 18.3606 126.394 18.7006 126.28 19.1539C126.053 19.8339 126.507 20.6273 127.189 20.8539Z" fill="#DAE2E8" fill-opacity="0.7"/>
<path d="M77.3356 58.2538C76.5407 58.1405 75.8593 58.5938 75.6322 59.3871L72.2254 76.9538C72.1118 77.7471 72.5661 78.4271 73.361 78.6538C73.4746 78.6538 73.5881 78.6538 73.5881 78.6538C74.2695 78.6538 74.8373 78.2005 74.9509 77.5205L78.3577 59.9538C78.5848 59.1605 78.1306 58.3671 77.3356 58.2538Z" fill="#DAE2E8" fill-opacity="0.7"/>
<path d="M66.8881 69.5872C67.0017 68.7939 66.4339 68.1139 65.6389 68.0005C64.844 67.8872 64.1627 68.4539 64.0491 69.2472C63.9355 70.9472 63.0271 72.5339 61.6643 73.6672C60.3016 74.6872 58.4846 75.1405 56.7812 74.9139C55.9863 74.8005 55.3049 75.2539 55.1914 76.0472C55.0778 76.8405 55.5321 77.5205 56.327 77.6339C56.7812 77.7472 57.349 77.7472 57.8033 77.7472C59.8474 77.7472 61.7779 77.0672 63.3677 75.9339C65.2983 74.4605 66.661 72.0805 66.8881 69.5872Z" fill="#DAE2E8" fill-opacity="0.7"/>
<path d="M45.1981 77.5204C45.8794 80.1271 47.5828 82.3937 49.9676 83.7537C50.5354 84.0937 51.2168 84.4337 51.7846 84.6604C52.3524 84.8871 52.9202 85.2271 53.488 85.5671C54.1693 86.0204 54.9643 86.8137 54.9643 87.4937C54.9643 87.7204 54.8507 88.0604 54.51 88.2871C54.3965 88.4004 54.2829 88.4004 54.2829 88.4004C53.488 88.1737 52.6931 88.5137 52.4659 89.3071C52.2388 89.8737 52.6931 90.6671 53.3744 90.8937C53.7151 91.0071 54.0558 91.0071 54.2829 91.0071C54.9643 91.0071 55.6456 90.7804 56.2134 90.3271C57.2355 89.6471 57.8033 88.4004 57.8033 87.1537C57.8033 85.5671 56.6677 83.9804 54.9643 82.8471C54.2829 82.3937 53.6015 82.1671 52.9202 81.8271C52.3524 81.6004 51.8981 81.3737 51.3303 81.0337C49.6269 80.0137 48.3778 78.4271 47.9235 76.6137C47.4693 74.8004 47.6964 72.7604 48.6049 71.0604C48.9456 70.3804 48.7184 69.4737 48.0371 69.1337C47.3557 68.7937 46.4472 69.0204 46.1065 69.7004C44.8574 72.0804 44.5167 74.9137 45.1981 77.5204Z" fill="#DAE2E8" fill-opacity="0.7"/>
<path d="M38.3844 90.2138C38.6115 90.2138 38.7251 90.2138 38.9522 90.2138C41.2234 89.9872 43.2675 88.2872 43.8353 86.1338C44.0624 85.3405 43.6082 84.5472 42.8132 84.4338C42.0183 84.2072 41.2234 84.6605 41.1098 85.4538C40.7692 86.4738 39.7471 87.3805 38.7251 87.4938C37.5895 87.6072 36.4539 86.9272 35.9996 86.0205C35.6589 85.3405 34.7504 85.0005 34.0691 85.3405C33.3877 85.6805 33.047 86.5872 33.3877 87.2672C34.1826 89.0805 36.2267 90.2138 38.3844 90.2138Z" fill="#DAE2E8" fill-opacity="0.7"/>
<path d="M10.9028 89.7604C12.3791 88.627 13.9689 86.4737 13.174 84.2071C12.9469 83.4137 12.152 83.0737 11.357 83.3004C10.5621 83.527 10.2214 84.3204 10.4485 85.1137C10.6757 85.907 9.88074 86.927 9.08582 87.607C6.58749 89.5337 2.61287 89.5337 0.000984192 87.607C0.000984192 88.7404 0.114545 89.8737 0.114545 91.0071C1.47727 91.5737 2.95356 91.9137 4.5434 91.9137C6.81461 91.9137 9.08582 91.1204 10.9028 89.7604Z" fill="#DAE2E8" fill-opacity="0.7"/>
<path d="M3.97564 105.514C4.20276 105.514 4.54344 105.4 4.77056 105.287C5.45193 104.834 5.67905 104.04 5.2248 103.36L0.795948 96.2205C1.13663 98.7138 1.59087 101.32 2.15867 103.7L2.84004 104.834C2.9536 105.287 3.40784 105.514 3.97564 105.514Z" fill="#DAE2E8" fill-opacity="0.7"/>
<path d="M145.813 33.4337C144.677 36.7204 141.611 39.3271 138.09 39.8937C137.296 40.0071 136.728 40.0071 136.501 39.7804V39.6671C137.068 39.3271 137.296 38.5337 136.955 37.8537C136.614 37.1737 135.819 36.8337 135.024 37.1737C134.229 37.5137 133.662 38.3071 133.548 39.2137C133.435 40.2337 133.889 41.3671 134.57 41.9337C135.251 42.5004 136.16 42.8404 137.296 42.8404C137.636 42.8404 138.09 42.8404 138.545 42.7271C142.974 42.0471 147.062 38.6471 148.538 34.3404C149.106 32.6404 149.333 30.7137 149.106 28.7871C147.289 26.7471 145.472 24.8204 143.541 23.0071C143.655 23.2337 143.655 23.3471 143.882 23.4604C146.153 26.1804 146.948 30.1471 145.813 33.4337Z" fill="#DAE2E8" fill-opacity="0.7"/>
<path d="M130.936 45.1071C130.255 44.7671 129.346 44.9938 129.006 45.6738C127.756 47.8271 127.643 50.6605 128.665 52.9271C129.006 53.6071 129.346 54.1738 129.687 54.7405C130.141 55.4205 130.482 55.9871 130.709 56.6671C131.163 58.2538 130.368 60.0671 128.892 60.8605C128.211 61.2005 127.87 62.1071 128.211 62.7871C128.438 63.2405 129.006 63.5805 129.46 63.5805C129.687 63.5805 129.914 63.5805 130.028 63.4671C132.753 62.1071 134.229 58.8205 133.321 55.9871C132.98 54.9671 132.526 54.1738 132.072 53.3805C131.731 52.9271 131.504 52.3605 131.277 51.9071C130.595 50.4338 130.709 48.6205 131.504 47.1471C131.845 46.3538 131.618 45.5605 130.936 45.1071Z" fill="#DAE2E8" fill-opacity="0.7"/>
<path d="M105.839 49.5271C105.612 50.2071 105.953 51.1138 106.634 51.3404C108.678 52.0204 110.722 52.8138 112.199 54.1738C113.902 55.7604 114.697 58.2538 114.356 60.5204C114.243 61.3138 114.811 61.9938 115.492 62.1071C115.606 62.1071 115.606 62.1071 115.719 62.1071C116.4 62.1071 116.968 61.6538 117.082 60.9738C117.65 57.8004 116.4 54.4004 114.016 52.1338C112.085 50.3204 109.587 49.4138 107.429 48.6204C106.861 48.3938 106.066 48.7338 105.839 49.5271Z" fill="#DAE2E8" fill-opacity="0.7"/>
<path d="M84.2628 69.927C85.6255 70.267 86.9883 70.1537 88.2374 70.0404C89.0323 69.927 89.7137 69.927 90.3951 69.927C92.0985 70.0404 93.8019 70.8337 95.051 72.0804C96.1867 73.327 96.868 75.1404 96.868 76.8404C96.868 77.6337 97.4358 78.3137 98.2307 78.3137C99.0257 78.3137 99.5935 77.747 99.5935 76.9537C99.5935 74.4604 98.685 72.0804 96.9816 70.267C95.2782 68.4537 92.8934 67.3204 90.5086 67.207C89.6001 67.207 88.8052 67.207 87.8967 67.3204C86.7611 67.4337 85.7391 67.4337 84.8306 67.3204C84.0357 67.0937 83.3543 67.547 83.1272 68.3404C83.0136 69.0204 83.4679 69.8137 84.2628 69.927Z" fill="#DAE2E8" fill-opacity="0.7"/>
<path d="M104.704 61.7672C104.249 62.1072 104.022 62.6738 104.136 63.2405C104.249 63.9205 104.817 64.3738 105.499 64.3738H105.612C106.294 64.3738 106.975 63.9205 107.088 63.1272C107.202 62.5605 106.861 61.9938 106.407 61.6538C105.953 61.4272 105.158 61.4272 104.704 61.7672Z" fill="#DAE2E8" fill-opacity="0.7"/>
<path d="M122.419 56.4404V56.667C122.419 57.4604 123.1 58.1404 123.895 58.1404C124.69 58.1404 125.372 57.4604 125.372 56.667V56.4404C125.372 55.647 124.69 54.967 123.895 54.967C123.1 54.967 122.419 55.647 122.419 56.4404Z" fill="#DAE2E8" fill-opacity="0.7"/>
<path d="M140.816 49.4138C140.93 49.4138 141.043 49.4138 141.157 49.4138C141.724 49.4138 142.179 49.1872 142.519 48.7338C142.86 48.2805 142.974 47.6005 142.633 47.0338C142.292 46.3538 141.384 46.0138 140.702 46.4672C140.702 46.4672 140.702 46.4672 140.589 46.4672C140.589 46.4672 140.589 46.4672 140.475 46.4672C139.68 46.5805 139.226 47.3738 139.34 48.1672C139.68 48.7338 140.135 49.3005 140.816 49.4138Z" fill="#DAE2E8" fill-opacity="0.7"/>
<path d="M96.6409 89.3072C99.7071 89.1939 102.773 87.9472 105.044 85.7938C105.385 85.4538 105.612 84.8872 105.499 84.4339C105.385 83.9805 105.044 83.5272 104.477 83.4139L103.455 83.0739C102.66 82.8472 101.865 83.3005 101.638 83.9805C101.524 84.2072 101.524 84.5472 101.638 84.7739C100.161 85.7939 98.3443 86.3605 96.5274 86.3605C94.1426 86.4738 91.7578 85.5672 89.8273 84.0938C89.2595 83.6405 88.351 83.6405 87.7832 84.3205C87.329 84.8872 87.329 85.7938 88.0103 86.3605C90.2816 88.2872 93.2341 89.3072 96.1867 89.3072C96.4138 89.3072 96.5274 89.3072 96.6409 89.3072Z" fill="#DAE2E8" fill-opacity="0.7"/>
<path d="M81.7645 70.2671C79.834 70.6071 78.2441 72.3071 77.9034 74.4605C77.5628 76.2738 78.1306 78.0871 78.5848 79.4471C78.6984 79.7871 78.8119 80.2405 79.039 80.5805C79.3797 81.6005 79.7204 82.5071 79.9475 83.4138C80.5153 86.2471 79.039 89.4205 76.5407 91.0071C75.8594 91.4605 75.6322 92.2538 76.0865 92.9338C76.3136 93.3871 76.7678 93.6138 77.3356 93.6138C77.5628 93.6138 77.7899 93.5005 78.017 93.3871C81.5374 91.2338 83.4679 86.9271 82.7865 82.9605C82.5594 81.8271 82.1052 80.6938 81.7645 79.6738C81.6509 79.3338 81.5374 78.9938 81.4238 78.6538C81.0831 77.6338 80.6289 76.2738 80.856 75.1405C80.9696 74.3471 81.6509 73.3271 82.4458 73.2138C83.2408 73.1005 83.695 72.3071 83.5814 71.5138C83.3543 70.7205 82.5594 70.1538 81.7645 70.2671Z" fill="#DAE2E8" fill-opacity="0.7"/>
<path d="M67.2288 91.1205C65.9796 88.7405 65.6389 86.0205 66.3203 83.4139C66.5474 82.6205 66.0932 81.8272 65.2982 81.7139C64.5033 81.4872 63.7084 81.9405 63.5948 82.7339C62.6864 86.0205 63.1406 89.5339 64.7304 92.4805C66.3203 95.4272 69.0457 97.8072 72.2254 98.9405C72.339 98.9405 72.5661 99.0539 72.6797 99.0539C73.2475 99.0539 73.8153 98.7139 74.0424 98.1472C74.2695 97.3539 73.9288 96.5605 73.1339 96.3339C70.6356 95.3139 68.4779 93.5005 67.2288 91.1205Z" fill="#DAE2E8" fill-opacity="0.7"/>
<path d="M18.852 98.7137C19.8741 98.0337 21.2368 97.8071 22.8266 98.1471C24.4165 98.4871 25.8928 99.2804 27.3691 100.074C28.0504 100.414 28.9589 100.187 29.2996 99.5071C29.6403 98.8271 29.4131 97.9204 28.7318 97.5804C27.1419 96.7871 25.4385 95.8804 23.3944 95.4271C21.0097 94.9737 18.7385 95.3137 17.1486 96.5604C15.1045 98.0337 14.3096 100.867 15.3316 103.02C15.5588 103.474 16.1266 103.814 16.5808 103.814C16.8079 103.814 17.0351 103.814 17.1486 103.7C17.83 103.36 18.1707 102.454 17.83 101.774C17.4893 100.754 17.9435 99.3937 18.852 98.7137Z" fill="#DAE2E8" fill-opacity="0.7"/>
<path d="M38.2709 95.4273C37.5895 94.9739 36.681 95.2006 36.3403 95.8806C35.8861 96.5606 36.1132 97.4673 36.7946 97.8073C39.1794 99.2806 42.0184 100.074 44.8574 100.074C47.3557 100.074 49.854 99.5073 52.0117 98.3739C52.693 98.0339 52.9202 97.1273 52.5795 96.4473C52.2388 95.7673 51.3303 95.5406 50.649 95.8806C46.9015 97.8073 42.0184 97.6939 38.2709 95.4273Z" fill="#DAE2E8" fill-opacity="0.7"/>
<path d="M12.9469 94.6339H13.5147C14.3096 94.6339 14.991 93.9539 14.991 93.1606C14.991 92.3673 14.3096 91.6873 13.5147 91.6873H12.9469C12.1519 91.6873 11.4706 92.3673 11.4706 93.1606C11.5841 94.0673 12.1519 94.6339 12.9469 94.6339Z" fill="#DAE2E8" fill-opacity="0.7"/>
<path d="M27.5961 107.44C27.8233 107.554 27.9368 107.554 28.1639 107.554C28.7317 107.554 29.186 107.214 29.4131 106.647L29.5267 106.307C29.8674 105.627 29.5267 104.72 28.8453 104.494C28.1639 104.154 27.2555 104.494 27.0283 105.174L26.8012 105.514C26.5741 106.307 26.9148 107.1 27.5961 107.44Z" fill="#DAE2E8" fill-opacity="0.7"/>
<path d="M47.6964 87.7204L47.1286 88.2871C46.5608 88.8537 46.5608 89.7604 47.1286 90.3271C47.3557 90.5537 47.8099 90.7804 48.1506 90.7804C48.4913 90.7804 48.832 90.6671 49.1727 90.3271L49.7405 89.7604C50.3083 89.1937 50.3083 88.2871 49.7405 87.7204C49.1727 87.1537 48.2642 87.1537 47.6964 87.7204Z" fill="#DAE2E8" fill-opacity="0.7"/>
<path d="M70.2949 84.6605L70.6356 84.8872C70.8627 85.0005 71.0898 85.0005 71.317 85.0005C71.8848 85.0005 72.339 84.6605 72.5661 84.2072C72.9068 83.5272 72.6797 82.6205 71.8848 82.2805L71.5441 82.1672C70.8627 81.8272 69.9542 82.0538 69.6135 82.8472C69.2729 83.5272 69.5 84.3205 70.2949 84.6605Z" fill="#DAE2E8" fill-opacity="0.7"/>
<path d="M66.3203 62.3338C65.6389 62.7871 65.4118 63.5804 65.8661 64.2604C66.0932 64.7138 66.5474 64.9404 67.1152 64.9404C67.3423 64.9404 67.5695 64.8271 67.7966 64.7138L68.7051 64.1471C69.3864 63.6938 69.6136 62.9004 69.1593 62.2204C68.7051 61.5404 67.9101 61.3138 67.2288 61.7671L66.3203 62.3338Z" fill="#DAE2E8" fill-opacity="0.7"/>
<path d="M86.6476 59.9539C86.0798 60.4072 85.8527 61.2006 86.1933 61.8806C86.4205 62.4472 86.9883 62.7872 87.5561 62.7872C87.6696 62.7872 87.7832 62.7872 88.0103 62.7872C88.6917 62.5606 89.2595 61.8806 89.1459 61.2006C89.1459 60.9739 89.0324 60.7472 89.0324 60.6339C88.9188 60.4072 88.8052 60.2939 88.6917 60.1806C88.0103 59.5005 87.2154 59.5006 86.6476 59.9539Z" fill="#DAE2E8" fill-opacity="0.7"/>
<path d="M110.155 75.8204V75.4804C110.155 74.6871 109.473 74.0071 108.678 74.0071C107.883 74.0071 107.202 74.6871 107.202 75.4804V75.8204C107.202 76.6137 107.883 77.2937 108.678 77.2937C109.473 77.2937 110.155 76.6137 110.155 75.8204Z" fill="#DAE2E8" fill-opacity="0.7"/>
<path d="M104.59 72.1939L116.287 70.8339C117.082 70.7205 117.65 70.0405 117.536 69.2472C117.422 68.4539 116.741 67.8872 115.946 68.0005L104.249 69.3605C103.455 69.4739 102.887 70.1539 103 70.9472C103.114 71.6272 103.682 72.1939 104.363 72.1939C104.477 72.3072 104.477 72.1939 104.59 72.1939Z" fill="#DAE2E8" fill-opacity="0.7"/>
<path d="M116.514 74.6873C115.833 74.2339 114.924 74.4606 114.583 75.1406C114.129 75.8206 114.356 76.7273 115.038 77.0673C116.741 78.0873 117.877 79.7873 118.331 81.7139C118.672 83.6406 118.217 85.6806 116.968 87.1539C116.741 87.3806 116.514 87.6073 116.287 87.9473C115.719 88.5139 115.151 89.1939 114.697 90.1006C113.902 91.6873 114.016 93.8406 115.719 94.8606C115.946 94.9739 116.173 95.0873 116.514 95.0873C116.628 95.0873 116.741 95.0873 116.855 95.0873C117.195 94.9739 117.536 94.7473 117.763 94.4073L118.217 93.6139C118.558 92.9339 118.331 92.0273 117.65 91.6873C117.536 91.5739 117.422 91.5739 117.309 91.5739C117.309 91.5739 117.309 91.4606 117.422 91.4606C117.65 91.0073 118.104 90.4406 118.558 89.9873C118.785 89.6473 119.126 89.4206 119.353 89.0806C121.056 86.9273 121.738 83.9806 121.284 81.3739C120.602 78.5406 118.899 76.0473 116.514 74.6873Z" fill="#DAE2E8" fill-opacity="0.7"/>
<path d="M132.526 68.3405C131.39 69.8138 129.573 70.7205 127.756 70.8338C125.94 70.9471 124.009 70.2671 122.76 68.9071C122.192 68.3405 121.284 68.3405 120.716 68.9071C120.148 69.4738 120.148 70.3805 120.716 70.9471C122.419 72.7605 124.917 73.7805 127.416 73.7805C127.529 73.7805 127.756 73.7805 127.87 73.7805C130.482 73.6671 133.094 72.3071 134.684 70.2671C135.138 69.7005 135.024 68.7938 134.457 68.2271C133.889 67.5471 132.98 67.6605 132.526 68.3405Z" fill="#DAE2E8" fill-opacity="0.7"/>
<path d="M142.633 55.0805C143.428 55.0805 144.223 54.9672 145.018 54.6272C147.402 53.7205 148.879 51.6805 150.128 50.0938C151.263 48.6205 152.513 47.0338 154.103 46.3538C154.784 46.0138 155.125 45.2205 154.897 44.5405C154.557 43.8605 153.762 43.5205 153.08 43.7472C150.809 44.7672 149.219 46.6938 147.97 48.2805C146.608 49.9805 145.585 51.3405 143.996 51.9072C142.746 52.3605 141.043 52.1338 140.475 51.0005C140.135 50.3205 139.34 49.9805 138.658 50.2072C137.977 50.5472 137.636 51.3405 137.863 52.0205C138.658 54.0605 140.589 55.0805 142.633 55.0805Z" fill="#DAE2E8" fill-opacity="0.7"/>
<path d="M90.6223 95.0872C90.8494 95.0872 91.0765 95.0872 91.1901 94.9739C91.7579 94.7472 92.2121 94.1805 92.2121 93.5005C92.2121 92.8205 91.8714 92.2538 91.3036 92.0272C90.8494 91.8005 90.3951 91.8005 90.0545 92.0272C89.6002 92.1405 89.2595 92.4805 89.146 92.9338C88.9188 93.5005 89.146 94.1805 89.6002 94.6339C89.8273 94.9739 90.2816 95.0872 90.6223 95.0872Z" fill="#DAE2E8" fill-opacity="0.7"/>
<path d="M155.011 39.5537C154.443 40.0071 154.33 40.9137 154.784 41.5937L164.55 54.1737C162.847 49.8671 160.803 45.6737 158.418 41.7071L157.055 39.8937C156.487 39.2137 155.579 39.1004 155.011 39.5537Z" fill="#DAE2E8" fill-opacity="0.7"/>
<path d="M102.433 104.267C102.546 104.267 102.66 104.267 102.773 104.267C103.455 104.267 104.022 103.814 104.136 103.247L108.111 87.7205C108.338 86.9272 107.883 86.2472 107.089 86.0205C106.294 85.7938 105.612 86.2472 105.385 87.0405L101.411 102.567C101.183 103.247 101.638 104.041 102.433 104.267Z" fill="#DAE2E8" fill-opacity="0.7"/>
<path d="M87.8968 110.727C88.1239 110.727 88.351 110.727 88.5781 110.614C89.2595 110.274 89.4866 109.367 89.1459 108.687L82.5594 96.2204C82.2188 95.5404 81.3103 95.3138 80.6289 95.6538C79.9475 95.9938 79.7204 96.9004 80.0611 97.5804L86.6476 110.047C86.8747 110.387 87.4425 110.727 87.8968 110.727Z" fill="#DAE2E8" fill-opacity="0.7"/>
<path d="M59.7338 96.9004C59.0525 96.4471 58.144 96.6737 57.8033 97.3537L52.9202 105.287C52.466 105.967 52.6931 106.874 53.3744 107.214C53.6016 107.327 53.8287 107.44 54.1694 107.44C54.6236 107.44 55.0778 107.214 55.4185 106.76L60.3016 98.8271C60.6423 98.1471 60.4152 97.2404 59.7338 96.9004Z" fill="#DAE2E8" fill-opacity="0.7"/>
<path d="M22.9402 115.6C23.3945 115.6 23.8487 115.374 24.1894 114.92C24.6436 114.24 24.4165 113.334 23.7351 112.994C18.6249 109.934 12.6062 108.574 6.81462 108.914C6.0197 108.914 5.4519 109.594 5.4519 110.387C5.4519 111.18 6.13326 111.747 6.92818 111.747C12.152 111.407 17.6029 112.654 22.1453 115.374C22.3724 115.487 22.7131 115.6 22.9402 115.6Z" fill="#DAE2E8" fill-opacity="0.7"/>
<path d="M53.1472 112.54C53.1472 111.747 52.5794 111.067 51.7845 111.067C49.0591 110.954 46.3336 110.16 43.8353 108.914C43.6082 108.8 43.381 108.687 43.1539 108.574C42.359 108.12 41.4505 107.667 40.542 107.44C38.9522 106.987 37.3623 107.1 36.1132 107.78C34.1826 108.914 33.5013 111.52 34.5233 113.447C34.7505 113.9 35.3183 114.24 35.7725 114.24C35.9996 114.24 36.2267 114.24 36.4539 114.127C37.1352 113.787 37.3623 112.88 37.0217 112.2C36.681 111.52 36.9081 110.614 37.5895 110.274C38.1573 109.934 38.8386 109.934 39.7471 110.16C40.4285 110.387 41.1098 110.727 41.9048 111.067C42.1319 111.18 42.359 111.294 42.5861 111.407C45.4251 112.767 48.4913 113.674 51.671 113.787C52.4659 113.9 53.1472 113.334 53.1472 112.54Z" fill="#DAE2E8" fill-opacity="0.7"/>
<path d="M71.4305 109.707C70.6356 109.594 69.9542 110.161 69.8406 110.954C69.7271 111.747 70.2949 112.427 71.0898 112.541C71.4305 112.541 71.7712 112.654 72.1118 112.654C75.4051 112.654 78.5848 110.727 79.9475 107.781C81.5374 104.607 80.856 100.414 78.2441 97.9206C77.6763 97.3539 76.7678 97.3539 76.2 97.9206C75.6322 98.4873 75.6322 99.3939 76.2 99.9606C77.9034 101.661 78.3577 104.494 77.3356 106.647C76.3136 108.574 73.7017 109.934 71.4305 109.707Z" fill="#DAE2E8" fill-opacity="0.7"/>
<path d="M62.9135 106.76C63.7084 106.76 64.3898 106.08 64.3898 105.287V104.154C64.3898 103.36 63.7084 102.68 62.9135 102.68C62.1185 102.68 61.4372 103.36 61.4372 104.154V105.287C61.5507 106.08 62.1185 106.76 62.9135 106.76Z" fill="#DAE2E8" fill-opacity="0.7"/>
<path d="M105.385 109.934C106.861 109.367 107.997 108.12 108.111 106.76C108.111 105.967 107.543 105.287 106.748 105.287C105.953 105.287 105.272 105.854 105.272 106.647C105.272 106.874 104.931 107.214 104.477 107.327C103.795 107.554 103 107.44 102.319 107.44C100.388 107.327 98.7986 107.214 97.4359 106.534C96.3003 105.967 95.0511 104.834 95.0511 103.587C95.0511 102.794 94.3697 102.227 93.5748 102.227C92.7799 102.227 92.2121 102.907 92.2121 103.7C92.3257 105.967 93.9155 108.007 96.3003 109.027C98.2308 109.934 100.502 110.047 102.205 110.16C102.546 110.16 103 110.16 103.341 110.16C103.909 110.274 104.704 110.16 105.385 109.934Z" fill="#DAE2E8" fill-opacity="0.7"/>
<path d="M130.368 81.9405C130.823 82.6205 131.731 82.7338 132.299 82.3938C134.116 81.2605 136.614 81.1471 138.431 82.2805C139.794 83.0738 140.702 84.4338 141.043 86.0205C140.589 86.1338 140.248 86.3605 140.135 86.8138C139.794 87.4938 140.135 88.4005 140.816 88.6271L141.952 89.0805C142.179 89.1938 142.292 89.1938 142.519 89.1938C142.747 89.1938 142.974 89.0805 143.201 88.9671C143.541 88.7405 143.882 88.2871 143.882 87.8338C144.223 84.6605 142.519 81.3738 139.794 79.6738C137.068 77.9738 133.321 78.0871 130.709 79.9005C130.141 80.3538 129.914 81.2605 130.368 81.9405Z" fill="#DAE2E8" fill-opacity="0.7"/>
<path d="M125.599 78.6539C126.394 78.6539 127.075 77.9739 127.075 77.1806C127.075 76.3873 126.394 75.7073 125.599 75.7073H125.372C124.577 75.7073 123.895 76.3873 123.895 77.1806C123.895 77.9739 124.577 78.6539 125.372 78.6539H125.599Z" fill="#DAE2E8" fill-opacity="0.7"/>
<path d="M153.535 60.2938C151.831 59.6138 150.014 59.5004 148.425 59.8404C146.494 60.4071 145.018 61.7671 144.336 63.4671C143.655 65.3938 144.223 67.6604 145.699 68.9071C146.267 69.3604 147.175 69.3604 147.743 68.6804C148.197 68.1138 148.197 67.2071 147.516 66.6404C146.948 66.1871 146.721 65.1671 146.948 64.3738C147.289 63.5804 148.084 62.7871 149.106 62.5604C150.128 62.3338 151.264 62.4471 152.399 62.9004C153.762 63.4671 154.784 64.4871 155.238 65.6204C155.579 66.7538 155.238 68.1138 154.33 68.5671C153.648 69.0204 153.421 69.8138 153.875 70.4938C154.103 70.9471 154.557 71.1738 155.125 71.1738C155.352 71.1738 155.579 71.0604 155.806 70.9471C157.85 69.8138 158.759 67.0938 157.964 64.7138C157.282 62.9004 155.692 61.2004 153.535 60.2938Z" fill="#DAE2E8" fill-opacity="0.7"/>
<path d="M147.97 75.0272C147.289 74.6872 146.494 74.3472 145.813 74.1206C144.791 73.6672 143.882 73.3272 143.087 72.8739C141.611 71.9672 140.702 70.8339 140.589 69.7006C140.475 68.9072 139.794 68.3406 138.999 68.4539C138.204 68.5672 137.636 69.2472 137.75 70.0406C138.09 72.0806 139.453 73.8939 141.611 75.2539C142.633 75.8206 143.655 76.2739 144.677 76.7272C145.358 76.9539 146.04 77.2939 146.608 77.6339C150.014 79.3339 152.74 82.3939 153.989 85.9072C154.216 86.4739 154.784 86.8139 155.352 86.8139C155.465 86.8139 155.692 86.8139 155.806 86.7006C156.487 86.4739 156.941 85.5672 156.601 84.8872C155.238 80.5806 152.058 77.0672 147.97 75.0272Z" fill="#DAE2E8" fill-opacity="0.7"/>
<path d="M155.125 54.1738L155.692 54.7405C155.919 54.9672 156.26 55.0805 156.601 55.0805C156.942 55.0805 157.396 54.9672 157.623 54.6272C158.191 54.0605 158.077 53.1538 157.509 52.5872L156.942 52.0205C156.374 51.4538 155.465 51.5672 154.897 52.1338C154.557 52.8138 154.557 53.7205 155.125 54.1738Z" fill="#DAE2E8" fill-opacity="0.7"/>
<path d="M163.528 63.2404C163.187 63.9204 163.642 64.8271 164.323 65.0537C165.459 65.5071 166.708 65.7337 168.07 65.8471C167.843 64.8271 167.616 63.9204 167.389 63.0137C166.708 62.9004 166.026 62.7871 165.459 62.5604C164.664 62.1071 163.869 62.5604 163.528 63.2404Z" fill="#DAE2E8" fill-opacity="0.7"/>
<path d="M157.282 74.8005C156.601 77.0672 158.077 79.3339 158.645 80.0139C160.803 83.0739 163.642 85.5672 166.935 87.3805C167.162 87.4939 167.389 87.4939 167.616 87.4939C168.07 87.4939 168.638 87.2672 168.865 86.7005C169.206 86.0205 168.979 85.1139 168.298 84.7739C165.345 83.1872 162.847 80.9205 161.03 78.3139C160.235 77.0672 159.894 76.1605 160.121 75.5939C160.348 74.8005 159.894 74.0072 159.213 73.7805C158.304 73.6672 157.509 74.0072 157.282 74.8005Z" fill="#DAE2E8" fill-opacity="0.7"/>
<path d="M164.891 74.5739C164.55 75.2539 164.891 76.1606 165.686 76.3872C167.162 77.0672 168.638 77.6339 170.001 78.4272C169.887 77.2939 169.774 76.1606 169.66 75.0272C168.638 74.5739 167.73 74.1206 166.708 73.6672C166.026 73.5539 165.231 73.8939 164.891 74.5739Z" fill="#DAE2E8" fill-opacity="0.7"/>
<path d="M122.987 98.2606C123.101 98.9406 123.668 99.5073 124.35 99.5073C124.463 99.5073 124.463 99.5073 124.577 99.5073C125.372 99.394 125.94 98.714 125.826 97.9206C125.599 96.5606 126.053 95.2006 126.848 94.0673C128.211 92.3673 130.709 91.574 132.753 92.1406C134.797 92.8206 136.501 94.7473 136.614 97.0139C136.728 97.8073 137.296 98.374 138.09 98.374C138.885 98.2606 139.453 97.5806 139.453 96.9006C139.226 93.5006 136.728 90.554 133.548 89.534C130.368 88.6273 126.621 89.7606 124.577 92.4806C123.328 93.9539 122.76 96.1073 122.987 98.2606Z" fill="#DAE2E8" fill-opacity="0.7"/>
<path d="M115.265 100.414C114.583 100.867 114.356 101.66 114.811 102.34C117.082 105.967 119.694 109.254 122.646 112.314C122.873 112.654 123.328 112.767 123.668 112.767C124.009 112.767 124.35 112.654 124.69 112.314C125.258 111.747 125.258 110.84 124.69 110.274C121.851 107.327 119.353 104.154 117.195 100.754C116.741 100.187 115.946 99.9604 115.265 100.414Z" fill="#DAE2E8" fill-opacity="0.7"/>
<path d="M150.809 99.5072C151.264 99.5072 151.604 99.2806 151.945 98.9406L158.304 91.0072C158.758 90.4406 158.645 89.5339 158.077 88.9672C157.509 88.5139 156.601 88.6272 156.033 89.1939L149.674 97.1272C149.219 97.6939 149.333 98.6006 149.901 99.1672C150.241 99.3939 150.582 99.5072 150.809 99.5072Z" fill="#DAE2E8" fill-opacity="0.7"/>
<path d="M31.1165 122.06C31.1165 122.06 31.2301 122.06 31.1165 122.06C31.9114 122.06 32.5928 121.38 32.4792 120.587L32.1386 112.087C32.1386 111.294 31.4572 110.727 30.6623 110.727C29.8674 110.727 29.2996 111.407 29.2996 112.2L29.6402 120.7C29.7538 121.494 30.4352 122.06 31.1165 122.06Z" fill="#DAE2E8" fill-opacity="0.7"/>
<path d="M12.0384 114.694C11.4706 114.127 10.5621 114.127 9.99427 114.694L6.58745 118.094C6.92813 119 7.38238 119.907 7.83662 120.814L12.0384 116.62C12.6062 116.167 12.6062 115.26 12.0384 114.694Z" fill="#DAE2E8" fill-opacity="0.7"/>
<path d="M142.633 97.8071C141.838 97.8071 141.157 98.3738 141.157 99.1671C141.157 100.414 140.135 101.66 139.34 102.454C138.885 102.907 138.318 103.36 137.636 103.927C136.955 104.494 136.274 105.06 135.592 105.74C134.457 106.874 133.094 108.8 133.094 111.067C133.094 112.314 133.775 113.674 134.684 114.467C135.479 115.147 136.387 115.6 137.409 115.6C137.523 115.6 137.523 115.6 137.636 115.6C138.431 115.6 138.999 114.92 138.999 114.127C138.999 113.334 138.318 112.767 137.523 112.767C137.182 112.767 136.841 112.54 136.728 112.427C136.387 112.087 136.046 111.52 136.046 110.954C136.046 109.594 137.068 108.347 137.636 107.667C138.204 107.1 138.772 106.647 139.453 106.08C140.021 105.627 140.702 105.06 141.27 104.494C142.974 102.907 143.882 101.094 143.882 99.2805C144.109 98.4871 143.428 97.8071 142.633 97.8071Z" fill="#DAE2E8" fill-opacity="0.7"/>
<path d="M143.428 110.274C142.633 110.274 141.952 110.841 141.952 111.634C141.952 112.427 142.519 113.107 143.314 113.107H144.109C144.109 113.107 144.109 113.107 144.223 113.107C145.018 113.107 145.585 112.541 145.585 111.747C145.585 110.954 145.018 110.274 144.223 110.274H143.428Z" fill="#DAE2E8" fill-opacity="0.7"/>
<path d="M165.231 96.1071C164.55 95.7671 163.642 96.1071 163.414 96.9004L163.074 97.5804C162.733 98.2604 163.074 99.1671 163.869 99.3938C164.096 99.5071 164.209 99.5071 164.437 99.5071C165.004 99.5071 165.572 99.1671 165.799 98.6004L166.14 97.9204C166.253 97.2404 165.913 96.4471 165.231 96.1071Z" fill="#DAE2E8" fill-opacity="0.7"/>
<path d="M150.809 87.9471C151.036 87.1538 150.809 86.3605 150.014 86.0205C149.333 85.5671 148.425 85.7938 147.97 86.3605C147.857 86.4738 147.743 86.7005 147.63 86.9271C147.516 87.1538 147.516 87.3805 147.516 87.6071C147.516 88.4005 148.197 88.9671 148.992 89.0805C149.106 89.0805 149.106 89.0805 149.219 89.0805C150.014 88.9671 150.582 88.6271 150.809 87.9471Z" fill="#DAE2E8" fill-opacity="0.7"/>
<path d="M158.872 106.194C158.304 105.741 157.736 105.287 157.282 104.721C156.714 104.154 155.919 103.134 156.033 102.001C156.147 101.207 155.579 100.527 154.784 100.414C153.989 100.301 153.308 100.867 153.194 101.661C153.08 103.361 153.762 105.061 155.238 106.647C155.806 107.214 156.487 107.781 157.055 108.347C157.509 108.801 158.077 109.141 158.418 109.594C160.008 111.181 161.03 113.334 161.37 115.601C161.484 116.281 162.052 116.847 162.733 116.847H162.847C163.642 116.734 164.209 116.054 164.096 115.261C163.755 112.314 162.506 109.594 160.348 107.554C159.894 107.101 159.326 106.647 158.872 106.194Z" fill="#DAE2E8" fill-opacity="0.7"/>
<path d="M73.7017 126.821C73.9288 126.934 74.156 126.934 74.3831 126.934C74.9509 126.934 75.4051 126.594 75.6322 126.141C75.9729 125.461 75.7458 124.554 74.9509 124.214C70.2949 121.947 66.661 117.527 65.2982 112.541C65.0711 111.747 64.2762 111.294 63.5948 111.521C62.7999 111.747 62.3457 112.541 62.5728 113.221C64.1626 119.114 68.3644 124.101 73.7017 126.821Z" fill="#DAE2E8" fill-opacity="0.7"/>
<path d="M85.7391 118.887C86.1934 119.227 86.534 119.567 86.8747 119.907C87.2154 120.247 87.6696 120.7 88.1239 121.04C90.3951 122.854 93.2341 123.874 96.1867 123.874C96.6409 123.874 97.2087 123.874 97.663 123.76C98.4579 123.647 99.0257 122.967 98.9121 122.174C98.7986 121.38 98.1172 120.814 97.3223 120.927C94.7104 121.267 91.9849 120.474 90.0544 118.774C89.7137 118.434 89.3731 118.094 89.0324 117.754C88.5781 117.3 88.1239 116.96 87.6696 116.507C86.4205 115.487 85.1713 114.92 83.9222 114.92C82.1052 114.807 80.5153 115.827 79.9475 117.414C79.7204 118.094 80.0611 119 80.7425 119.227C81.4238 119.454 82.3323 119.114 82.5594 118.434C82.673 118.094 83.2408 117.754 83.8086 117.867C84.2628 117.98 84.9442 118.32 85.7391 118.887Z" fill="#DAE2E8" fill-opacity="0.7"/>
<path d="M112.199 113.674C112.539 114.24 112.88 114.694 113.221 115.26C114.356 117.3 115.038 119.567 115.151 121.834C115.151 122.627 115.833 123.194 116.514 123.194C117.309 123.194 117.877 122.514 117.877 121.72C117.763 119 116.968 116.28 115.606 113.9C115.265 113.334 114.811 112.767 114.47 112.087C113.902 111.294 113.334 110.5 112.994 109.594C112.312 108.234 112.312 106.874 112.767 105.967C113.107 105.287 112.88 104.38 112.199 104.04C111.517 103.7 110.609 103.927 110.268 104.607C109.36 106.307 109.473 108.574 110.495 110.727C111.063 111.86 111.631 112.767 112.199 113.674Z" fill="#DAE2E8" fill-opacity="0.7"/>
<path d="M131.39 132.487C132.412 133.281 133.662 133.621 134.911 133.621C135.592 133.621 136.387 133.507 136.955 133.167C137.636 132.827 137.977 132.034 137.636 131.241C137.296 130.561 136.501 130.221 135.706 130.561C134.911 130.901 133.889 130.787 132.98 130.107C131.845 129.314 131.05 127.954 131.05 126.481C131.05 125.007 131.731 123.647 132.867 122.854C133.548 122.401 133.662 121.494 133.207 120.927C132.753 120.247 131.845 120.134 131.277 120.587C129.46 121.947 128.324 124.327 128.324 126.594C128.211 128.974 129.46 131.127 131.39 132.487Z" fill="#DAE2E8" fill-opacity="0.7"/>
<path d="M127.075 113.787C126.848 114.467 127.189 115.26 127.87 115.714C128.211 115.94 128.551 116.054 128.892 116.054C129.233 116.054 129.687 115.94 130.028 115.714C130.596 115.26 130.709 114.354 130.255 113.674C130.141 113.447 129.914 113.334 129.687 113.22C129.46 112.994 129.346 112.88 129.006 112.88C127.984 112.654 127.302 113.107 127.075 113.787Z" fill="#DAE2E8" fill-opacity="0.7"/>
<path d="M129.801 101.547C130.028 101.66 130.368 101.774 130.596 101.774C130.823 101.774 131.05 101.66 131.277 101.547C131.731 101.32 132.072 100.867 132.185 100.3C132.185 99.7338 131.845 99.1671 131.39 98.9405C130.936 98.6005 130.255 98.4871 129.801 98.8271C129.346 99.1671 129.006 99.6205 129.006 100.187C129.006 100.754 129.346 101.32 129.801 101.547Z" fill="#DAE2E8" fill-opacity="0.7"/>
<path d="M55.1914 118.434L55.0778 119.227C54.9643 120.02 55.6456 120.7 56.327 120.814H56.4406C57.1219 120.814 57.8033 120.247 57.8033 119.567L57.9168 118.774C58.0304 117.98 57.349 117.3 56.6677 117.3C55.9863 117.074 55.3049 117.64 55.1914 118.434Z" fill="#DAE2E8" fill-opacity="0.7"/>
<path d="M40.4285 131.241C40.7692 130.674 40.7692 129.994 40.3149 129.427L39.7471 128.747C39.1793 128.181 38.3844 128.067 37.703 128.634C37.2488 129.087 37.1352 129.767 37.3623 130.221C36.3403 130.901 34.9776 131.127 33.842 130.901C31.9114 130.674 30.208 129.541 28.7317 128.521C27.4826 127.614 26.0063 126.481 25.2114 125.007C24.53 123.647 24.53 122.174 25.2114 121.154C25.6656 120.474 25.5521 119.681 24.9843 119.114C24.3029 118.661 23.508 118.774 22.9402 119.341C21.5774 121.154 21.4639 123.874 22.713 126.141C23.7351 128.067 25.5521 129.541 27.0283 130.561C28.6182 131.694 30.7758 133.054 33.2742 133.394C33.7284 133.507 34.0691 133.507 34.5233 133.507C37.0217 133.847 39.1793 132.941 40.4285 131.241Z" fill="#DAE2E8" fill-opacity="0.7"/>
<path d="M17.4893 134.187C18.9656 132.487 19.5334 130.107 18.9656 127.954C18.6249 126.707 18.0571 125.801 17.3758 124.781C16.6944 123.647 16.1266 122.627 16.1266 121.607C16.1266 120.587 16.9215 119.567 17.83 119.341C18.6249 119.114 19.0792 118.321 18.852 117.641C18.6249 116.847 17.83 116.394 17.1486 116.621C14.991 117.187 13.2876 119.341 13.2876 121.607C13.2876 123.421 14.1961 124.894 14.991 126.254C15.5588 127.047 16.013 127.841 16.2402 128.747C16.5808 129.994 16.2402 131.354 15.4452 132.374C15.2181 132.601 14.991 132.827 14.7639 132.941C15.3317 133.734 15.8995 134.527 16.4673 135.207C16.808 134.981 17.1486 134.641 17.4893 134.187Z" fill="#DAE2E8" fill-opacity="0.7"/>
<path d="M83.1272 132.147C84.1493 129.54 83.8086 126.367 82.3323 123.987C81.8781 123.307 81.0832 123.08 80.4018 123.534C79.7204 123.987 79.4933 124.78 79.9476 125.46C80.9696 127.16 81.1967 129.314 80.5154 131.127C79.834 132.94 78.2442 134.414 76.4272 134.98C75.7458 135.207 75.4051 135.774 75.4051 136.454C75.5187 137.134 76.0865 137.7 76.7679 137.7H77.3357H77.4492C77.9035 137.7 78.3577 137.474 78.5848 137.02C80.6289 136.227 82.3323 134.414 83.1272 132.147Z" fill="#DAE2E8" fill-opacity="0.7"/>
<path d="M124.009 128.747C123.441 128.18 122.646 128.067 121.965 128.634C120.829 129.654 119.126 130.22 117.536 129.994C115.946 129.767 114.47 128.974 113.561 127.614C113.334 127.274 113.107 126.82 112.88 126.48C112.426 125.687 111.972 124.894 111.29 124.1C110.382 123.194 109.133 122.74 107.997 122.74C107.089 122.74 106.294 123.194 105.612 123.874C105.044 124.44 105.158 125.347 105.726 125.914C106.294 126.48 107.202 126.367 107.77 125.8C107.77 125.8 107.883 125.687 108.111 125.687C108.451 125.687 109.019 125.914 109.246 126.14C109.7 126.594 110.041 127.16 110.382 127.84C110.609 128.294 110.95 128.747 111.29 129.314C112.653 131.24 114.924 132.6 117.309 132.827C117.65 132.827 117.877 132.827 118.217 132.827C120.262 132.827 122.419 132.034 123.895 130.674C124.463 130.22 124.463 129.314 124.009 128.747Z" fill="#DAE2E8" fill-opacity="0.7"/>
<path d="M151.831 124.554C153.989 123.534 155.579 121.607 156.374 119.454C157.055 117.187 156.941 114.694 155.806 112.654C155.465 111.974 154.557 111.747 153.875 112.087C153.194 112.427 152.967 113.334 153.308 114.014C153.989 115.374 154.216 117.074 153.648 118.547C153.194 120.02 152.058 121.38 150.582 122.06C149.219 122.74 147.289 122.74 146.38 121.607C145.926 121.04 145.018 120.927 144.336 121.38C143.768 121.834 143.655 122.74 144.109 123.42C145.245 124.78 146.835 125.347 148.538 125.347C149.674 125.234 150.809 125.007 151.831 124.554Z" fill="#DAE2E8" fill-opacity="0.7"/>
<path d="M65.2983 126.254C64.5034 126.367 64.0491 127.16 64.1627 127.84L66.5474 141.44C66.661 142.12 67.2288 142.574 67.9102 142.574C68.0237 142.574 68.0237 142.574 68.1373 142.574C68.9322 142.46 69.3865 141.667 69.2729 140.987L66.8881 127.387C66.7746 126.594 66.0932 126.14 65.2983 126.254Z" fill="#DAE2E8" fill-opacity="0.7"/>
<path d="M93.3477 140.194C93.4612 140.194 93.6883 140.307 93.8019 140.307C94.3697 140.307 94.9375 139.967 95.1646 139.4L99.2528 127.5C99.4799 126.707 99.1392 125.914 98.3443 125.687C97.5494 125.46 96.7545 125.8 96.5274 126.594L92.4392 138.494C92.2121 139.174 92.6663 139.967 93.3477 140.194Z" fill="#DAE2E8" fill-opacity="0.7"/>
<path d="M157.736 123.534L148.538 130.901C147.97 131.354 147.857 132.261 148.311 132.941C148.538 133.281 148.992 133.507 149.447 133.507C149.787 133.507 150.128 133.394 150.355 133.167L159.553 125.801C160.121 125.347 160.235 124.441 159.781 123.761C159.213 123.194 158.304 123.081 157.736 123.534Z" fill="#DAE2E8" fill-opacity="0.7"/>
<path d="M115.378 140.647C114.697 138.154 112.88 136.227 111.29 134.754L106.407 130.107C105.839 129.54 104.931 129.54 104.363 130.107C103.795 130.674 103.795 131.58 104.363 132.147L109.246 136.794C110.836 138.38 112.085 139.627 112.539 141.327C112.88 142.687 112.539 144.16 111.631 145.18C110.95 145.974 110.155 146.427 109.36 146.314C108.678 146.314 107.997 145.747 107.883 145.18C107.77 144.387 107.088 143.82 106.294 143.934C105.499 144.047 104.931 144.727 105.044 145.52C105.272 147.447 107.088 149.147 109.133 149.26C109.246 149.26 109.36 149.26 109.36 149.26C110.95 149.26 112.539 148.467 113.789 147.107C115.265 145.294 115.833 142.8 115.378 140.647Z" fill="#DAE2E8" fill-opacity="0.7"/>
<path d="M144.223 136C143.541 135.547 142.633 135.774 142.292 136.454C140.589 138.947 137.636 140.647 134.57 140.647C131.504 140.647 128.438 139.061 126.848 136.454C126.394 135.774 125.485 135.66 124.918 136C124.236 136.454 124.123 137.36 124.463 137.927C126.621 141.327 130.596 143.367 134.57 143.367C138.658 143.367 142.519 141.214 144.677 137.927C145.131 137.36 144.904 136.454 144.223 136Z" fill="#DAE2E8" fill-opacity="0.7"/>
<path d="M47.3557 129.881V130.221C47.3557 131.014 48.0371 131.694 48.832 131.694C49.6269 131.694 50.3083 131.014 50.3083 130.221V129.881C50.3083 129.087 49.6269 128.407 48.832 128.407C48.0371 128.407 47.3557 129.087 47.3557 129.881Z" fill="#DAE2E8" fill-opacity="0.7"/>
<path d="M120.148 143.027C119.353 143.027 118.672 143.707 118.672 144.5C118.672 145.294 119.353 145.974 120.148 145.974H120.489C121.284 145.974 121.965 145.294 121.965 144.5C121.965 143.707 121.284 143.027 120.489 143.027H120.148Z" fill="#DAE2E8" fill-opacity="0.7"/>
<path d="M29.6403 143.934C29.4132 142.8 28.8454 141.78 27.9369 140.987C25.8928 139.06 22.5995 138.72 20.1012 139.967C20.7826 140.76 21.3504 141.44 22.0317 142.234C23.3945 141.894 24.8707 142.12 25.8928 143.027C26.347 143.48 26.6877 143.934 26.6877 144.387C26.8013 144.84 26.6877 145.18 26.347 145.407C26.1199 145.634 26.0064 145.86 25.8928 146.2C26.4606 146.767 27.0284 147.334 27.5962 147.787C27.8233 147.787 28.0504 147.674 28.164 147.447C29.4132 146.654 29.8674 145.294 29.6403 143.934Z" fill="#DAE2E8" fill-opacity="0.7"/>
<path d="M45.7658 145.86C46.6743 144.954 47.3557 144.16 48.2642 144.047C49.2862 143.934 50.5354 144.954 51.5574 145.86C52.1252 146.427 53.0337 146.314 53.6015 145.747C54.1693 145.18 54.0558 144.274 53.488 143.707C52.4659 142.687 50.4218 140.874 48.0371 141.1C46.1065 141.327 44.9709 142.574 43.8353 143.707C43.154 144.387 42.5862 145.067 41.9048 145.407C40.9963 145.86 39.8607 145.747 39.0658 145.294C38.2709 144.727 37.8166 143.707 37.8166 142.8C37.9302 142.007 37.3624 141.327 36.5675 141.214C35.7725 141.1 35.0912 141.667 34.9776 142.46C34.7505 144.5 35.7725 146.427 37.4759 147.56C38.3844 148.24 39.52 148.467 40.6556 148.467C41.5641 148.467 42.4726 148.24 43.2675 147.9C44.176 147.56 45.0845 146.654 45.7658 145.86Z" fill="#DAE2E8" fill-opacity="0.7"/>
<path d="M61.7779 145.52C62.4592 145.52 63.027 145.067 63.1406 144.387C63.2542 143.594 62.7999 142.914 62.005 142.687C60.188 142.347 58.7117 140.534 58.7117 138.72C58.7117 137.927 58.9389 137.02 59.166 136.114L59.2795 135.774C59.6202 134.64 59.9609 133.28 59.6202 131.807C59.2795 129.994 58.1439 128.634 56.5541 128.18C55.532 127.954 54.3964 128.18 53.4879 128.86C52.693 129.427 52.2388 130.334 52.3523 131.24C52.3523 132.034 53.0337 132.6 53.8286 132.6C54.6236 132.6 55.1914 131.92 55.1914 131.127C55.1914 131.127 55.1914 131.014 55.4185 130.9C55.532 130.787 55.7592 130.787 55.8727 130.787C56.327 130.9 56.7812 131.467 56.8948 132.147C57.0083 133.054 56.7812 134.074 56.5541 134.867L56.4405 135.207C56.0998 136.227 55.8727 137.36 55.8727 138.494C55.8727 141.667 58.371 144.614 61.4372 145.294C61.6643 145.52 61.6643 145.52 61.7779 145.52Z" fill="#DAE2E8" fill-opacity="0.7"/>
<path d="M63.1406 149.827C64.844 152.321 67.7966 153.794 70.7491 153.794C71.0898 153.794 71.4305 153.794 71.8847 153.681C75.178 153.227 78.2441 150.847 79.2662 147.674C79.9475 145.634 79.6069 143.027 77.5628 142.007C76.8814 141.667 75.9729 141.894 75.6322 142.687C75.2915 143.367 75.5187 144.274 76.3136 144.614C76.8814 144.841 76.8814 145.974 76.5407 146.881C75.7458 149.034 73.7017 150.734 71.4305 150.961C69.1593 151.301 66.7745 150.167 65.4118 148.241C64.9575 147.561 64.0491 147.447 63.4813 147.901C62.9135 148.241 62.6863 149.147 63.1406 149.827Z" fill="#DAE2E8" fill-opacity="0.7"/>
<path d="M97.5494 146.994C96.5274 146.54 95.3918 146.2 94.3697 145.86C93.007 145.407 91.7578 144.954 90.6222 144.387C89.1459 143.594 87.7832 142.234 87.4425 140.647C87.6696 140.987 88.0103 141.1 88.4646 141.214C89.3731 141.327 90.168 140.76 90.7358 139.967C91.3036 139.06 91.3036 138.04 90.7358 137.134C89.9409 135.774 88.0103 135.434 86.534 136.34C85.512 137.02 84.8306 138.154 84.6035 139.514C84.2628 142.914 86.8747 145.634 89.2595 146.88C90.6222 147.674 92.0985 148.127 93.5748 148.58C94.5968 148.92 95.6189 149.26 96.5274 149.6C98.7986 150.62 100.388 152.207 100.616 153.794C100.729 154.474 100.388 155.267 99.9342 155.72C99.7071 155.947 99.3664 156.06 99.1393 156.06C98.3443 155.947 97.663 156.514 97.5494 157.307C97.4359 158.1 98.0037 158.78 98.7986 158.894C98.9121 158.894 99.0257 158.894 99.1393 158.894C100.161 158.894 101.07 158.44 101.865 157.647C102.887 156.514 103.455 154.927 103.227 153.34C102.887 150.847 100.843 148.467 97.5494 146.994Z" fill="#DAE2E8" fill-opacity="0.7"/>
<path d="M131.618 146.54C131.504 145.747 130.709 145.294 129.914 145.407C129.119 145.52 128.665 146.314 128.779 147.107C129.006 148.127 128.211 149.147 127.416 149.827C124.463 152.32 119.694 152.434 116.741 149.94C116.173 149.487 115.265 149.487 114.697 150.167C114.243 150.734 114.243 151.64 114.924 152.207C116.968 153.794 119.467 154.7 121.965 154.7C124.577 154.7 127.189 153.794 129.233 152.094C131.163 150.507 131.958 148.467 131.618 146.54Z" fill="#DAE2E8" fill-opacity="0.7"/>
<path d="M144.45 145.974C145.472 144.954 146.494 143.934 147.403 142.914C146.948 143.14 146.494 143.367 146.04 143.707C145.358 144.274 144.791 145.067 144.45 145.974Z" fill="#DAE2E8" fill-opacity="0.7"/>
<path d="M140.021 146.994C139.34 146.767 138.431 147.107 138.204 147.787L136.274 153C137.75 151.867 139.226 150.734 140.589 149.487L140.816 148.807C141.157 148.014 140.702 147.22 140.021 146.994Z" fill="#DAE2E8" fill-opacity="0.7"/>
<path d="M55.1914 148.354L45.5387 157.42C44.9709 157.987 44.9709 158.894 45.4252 159.46C45.6523 159.8 46.1065 159.914 46.4472 159.914C46.7879 159.914 47.1286 159.8 47.4693 159.574L57.1219 150.507C57.6897 149.94 57.6897 149.034 57.2355 148.467C56.6677 147.787 55.7592 147.787 55.1914 148.354Z" fill="#DAE2E8" fill-opacity="0.7"/>
<path d="M88.6917 153.114C88.2374 152.321 87.5561 151.754 86.7612 151.641C85.9662 151.527 85.2849 151.981 85.0577 152.774C84.9442 153.567 85.3984 154.247 86.1934 154.474C86.3069 154.474 86.4205 154.814 86.3069 155.041C86.1933 155.494 85.6255 155.834 84.9442 155.947C84.2628 156.061 83.5815 156.061 82.7865 156.174H82.1052C80.9696 156.174 79.6068 156.287 78.4712 157.081C76.8814 158.101 75.8593 160.027 76.0865 161.841C76.3136 163.767 77.6763 165.354 79.4933 165.921C79.6068 165.921 79.7204 166.034 79.9475 166.034C80.5153 166.034 81.0831 165.694 81.3102 165.014C81.5374 164.221 81.0831 163.427 80.4018 163.201C79.7204 162.974 79.039 162.294 78.9255 161.501C78.8119 160.707 79.2662 159.914 79.9475 159.461C80.6289 159.121 81.4238 159.007 82.2187 159.007H82.7865C83.695 159.007 84.6035 159.007 85.6255 158.781C87.2154 158.327 88.4646 157.307 88.9188 156.061C89.2595 155.041 89.1459 154.021 88.6917 153.114Z" fill="#DAE2E8" fill-opacity="0.7"/>
<path d="M118.217 161.727C116.06 158.667 111.404 157.76 108.338 159.914C105.953 161.614 104.931 164.674 105.499 167.394C106.407 167.167 107.316 166.94 108.224 166.714C107.883 165.127 108.565 163.2 109.928 162.294C111.744 161.047 114.583 161.614 115.833 163.314C116.06 163.654 116.287 163.767 116.628 163.88C117.195 163.654 117.65 163.54 118.217 163.314C118.558 162.86 118.558 162.294 118.217 161.727Z" fill="#DAE2E8" fill-opacity="0.7"/>
<path d="M90.0545 157.42C89.7138 157.307 89.3731 157.307 89.0324 157.42C88.4646 157.647 88.1239 158.327 88.1239 158.894C88.1239 159.574 88.5782 160.14 89.2595 160.254C89.3731 160.254 89.4867 160.254 89.7138 160.254C90.168 160.254 90.6223 160.027 90.9629 159.574C91.3036 159.007 91.3036 158.327 90.9629 157.874C90.7358 157.76 90.3951 157.534 90.0545 157.42Z" fill="#DAE2E8" fill-opacity="0.7"/>
<path d="M78.2441 154.36H78.4713C79.2662 154.36 79.9475 153.68 79.9475 152.887C79.9475 152.094 79.2662 151.414 78.4713 151.414H78.2441C77.4492 151.414 76.7678 152.094 76.7678 152.887C76.8814 153.68 77.4492 154.36 78.2441 154.36Z" fill="#DAE2E8" fill-opacity="0.7"/>
<path d="M40.4285 151.527C39.6336 151.527 38.9522 152.207 38.9522 153V153.227C38.9522 154.02 39.6336 154.7 40.4285 154.7C41.2234 154.7 41.9048 154.02 41.9048 153.227V153C41.7912 152.094 41.2234 151.527 40.4285 151.527Z" fill="#DAE2E8" fill-opacity="0.7"/>
<path d="M29.2996 136.794C28.5047 136.794 27.8233 137.474 27.8233 138.267V138.494C27.8233 139.287 28.5047 139.967 29.2996 139.967C30.0945 139.967 30.7759 139.287 30.7759 138.494V138.267C30.6623 137.361 29.9809 136.794 29.2996 136.794Z" fill="#DAE2E8" fill-opacity="0.7"/>
<path d="M123.668 158.894L122.873 159.234C122.192 159.574 121.851 160.48 122.192 161.16C122.192 161.274 122.306 161.387 122.419 161.5C123.441 160.934 124.577 160.48 125.599 159.914C125.599 159.8 125.599 159.687 125.485 159.574C125.145 158.78 124.35 158.44 123.668 158.894Z" fill="#DAE2E8" fill-opacity="0.7"/>
<path d="M55.6456 161.84C55.5321 161.047 54.8507 160.48 54.0558 160.594C52.5795 160.707 51.2168 161.5 50.1947 162.52C51.2168 162.974 52.1253 163.427 53.1473 163.767C53.488 163.54 53.9422 163.427 54.3965 163.427C55.1914 163.314 55.7592 162.634 55.6456 161.84Z" fill="#DAE2E8" fill-opacity="0.7"/>
<path d="M63.5949 156.74C61.5508 158.214 60.7558 161.274 61.8915 163.54C62.2321 164.22 63.0271 164.56 63.822 164.22C64.5033 163.88 64.844 163.087 64.5033 162.294C63.9355 161.16 64.3898 159.687 65.2983 159.007C66.2068 158.327 67.7966 158.327 68.7051 159.234C69.6136 160.027 69.8407 161.614 69.1593 162.634C68.7051 163.314 68.9322 164.22 69.6136 164.56C69.8407 164.674 70.0678 164.787 70.4085 164.787C70.8627 164.787 71.317 164.56 71.6577 164.107C73.0204 161.954 72.5661 158.894 70.7492 157.194C68.7051 155.494 65.6389 155.267 63.5949 156.74Z" fill="#DAE2E8" fill-opacity="0.7"/>
<path d="M89.8273 167.28C90.168 167.167 90.6222 167.28 91.0764 167.28C91.5307 167.394 92.0985 167.394 92.6663 167.394C93.8019 167.28 94.9375 166.6 95.3917 165.694C95.846 165.014 95.846 164.107 95.5053 163.427C95.1646 162.747 94.3697 162.407 93.5748 162.747C92.8934 163.087 92.6663 163.767 92.7798 164.447C92.6663 164.56 92.4392 164.674 92.3256 164.674C91.9849 164.674 91.6442 164.674 91.19 164.56C90.5086 164.447 89.8273 164.447 89.0324 164.56C86.9883 165.014 85.9662 166.714 85.0577 167.96C84.8306 168.3 84.6035 168.64 84.3764 168.98C84.1493 169.32 83.8086 169.66 83.4679 170C83.9221 170 84.3764 170 84.9442 170C85.7391 170 86.4205 170 87.2154 169.887C87.3289 169.774 87.4425 169.66 87.4425 169.434C88.351 168.527 89.0324 167.507 89.8273 167.28Z" fill="#DAE2E8" fill-opacity="0.7"/>
<path d="M118.672 115.487L118.445 115.714C117.877 116.281 117.877 117.187 118.445 117.754C118.672 117.981 119.126 118.207 119.467 118.207C119.807 118.207 120.148 118.094 120.489 117.754L120.716 117.527C121.284 116.961 121.284 116.054 120.716 115.487C120.148 114.921 119.239 114.921 118.672 115.487Z" fill="#DAE2E8" fill-opacity="0.7"/>
<path d="M100.616 115.487C100.048 116.054 100.048 116.961 100.616 117.527L100.843 117.754C101.07 117.981 101.524 118.207 101.865 118.207C102.205 118.207 102.546 118.094 102.887 117.754C103.455 117.187 103.455 116.281 102.887 115.714L102.66 115.487C102.092 114.921 101.183 114.921 100.616 115.487Z" fill="#DAE2E8" fill-opacity="0.7"/>
<path d="M39.6336 119.227L39.2929 119.454C38.6116 119.794 38.2709 120.701 38.6116 121.381C38.8387 121.834 39.4065 122.174 39.8607 122.174C40.0878 122.174 40.315 122.174 40.5421 122.061L40.8828 121.834C41.5641 121.494 41.9048 120.587 41.5641 119.907C41.1099 119.114 40.315 118.774 39.6336 119.227Z" fill="#DAE2E8" fill-opacity="0.7"/>
</svg>
