<svg width="30" height="30" viewBox="0 0 30 30" fill="none" xmlns="http://www.w3.org/2000/svg">
<path fill-rule="evenodd" clip-rule="evenodd" d="M15 0.000488281C12.0333 0.000488281 9.13315 0.880169 6.66641 2.52839C4.19968 4.17661 2.27709 6.51933 1.14177 9.26022C0.00645978 12.0011 -0.290537 15.0171 0.288241 17.9269C0.867019 20.8366 2.29559 23.5092 4.39338 25.607C6.49117 27.7048 9.16389 29.1334 12.0736 29.7122C14.9833 30.291 17.9994 29.9939 20.7402 28.8586C23.4811 27.7233 25.8238 25.8008 27.472 23.3341C29.1202 20.8673 30 17.9672 30 15.0005C30 11.0222 28.4196 7.20702 25.6066 4.39397C22.7935 1.58093 18.9782 0.000488281 15 0.000488281ZM19.0899 20.7863C18.2482 21.6628 17.1061 22.1883 15.8928 22.2576V24.372H14.1171V22.2576C13.0399 22.1908 12.0195 21.7507 11.2318 21.0128C10.444 20.2749 9.93828 19.2854 9.80144 18.2148L12.5485 17.5005C12.5576 17.8199 12.6306 18.1341 12.7634 18.4247C12.8962 18.7153 13.086 18.9764 13.3216 19.1922C13.5572 19.4081 13.8337 19.5744 14.1348 19.6814C14.4358 19.7883 14.7553 19.8336 15.0743 19.8148C15.342 19.8398 15.612 19.8081 15.8668 19.722C16.1215 19.6359 16.3552 19.4972 16.5528 19.3148C16.7069 19.156 16.828 18.968 16.9089 18.762C16.9898 18.556 17.029 18.3361 17.0243 18.1149C17.0373 17.9074 17.0015 17.6997 16.9196 17.5087C16.8377 17.3176 16.712 17.1484 16.5528 17.0148C15.895 16.6121 15.1883 16.2952 14.45 16.0719C13.6548 15.8145 12.8887 15.4746 12.1643 15.0577C11.6047 14.7207 11.1432 14.2428 10.8257 13.6718C10.4722 13.0346 10.2947 12.3147 10.3114 11.5862C10.3038 10.5776 10.6264 9.59428 11.23 8.78624C11.5821 8.34792 12.0201 7.98622 12.5171 7.72335C13.0141 7.46049 13.5595 7.30192 14.1199 7.25757V5.62898H15.8957V7.25757C16.8146 7.33323 17.6851 7.70162 18.3793 8.30842C19.0735 8.91522 19.555 9.72844 19.7529 10.629L17.3071 11.6291C17.2193 11.0888 16.9539 10.5931 16.5529 10.2206C16.1519 9.848 15.6381 9.61972 15.0928 9.57185C14.8714 9.56262 14.6504 9.59843 14.4432 9.677C14.2359 9.75557 14.0468 9.87537 13.8871 10.0291C13.7393 10.177 13.6228 10.3531 13.5445 10.547C13.4662 10.7409 13.4277 10.9486 13.4314 11.1577C13.4205 11.3513 13.4545 11.5449 13.5305 11.7232C13.6066 11.9016 13.7227 12.06 13.87 12.1862C14.4555 12.5609 15.0869 12.8586 15.7485 13.072C16.606 13.3602 17.4364 13.7235 18.23 14.1577C18.8244 14.4954 19.32 14.983 19.6672 15.572C20.0331 16.2156 20.2186 16.946 20.2043 17.6862C20.24 18.8236 19.8416 19.932 19.0899 20.7863Z" fill="#0F2137"/>
</svg>
