<svg width="302" height="347" viewBox="0 0 302 347" fill="none" xmlns="http://www.w3.org/2000/svg">
<g opacity="0.15">
<path d="M302 2.81535V4.30748H300.047V6.54568H298.746V4.30748H296.793V2.81535H298.746V0.577148H300.047V2.81535H302Z" fill="#295271"/>
<path d="M302 20.7209V22.213H300.047V24.4512H298.746V22.213H296.793V20.7209H298.746V18.4827H300.047V20.7209H302Z" fill="#295271"/>
<path d="M302 38.6266V40.1188H300.047V42.357H298.746V40.1188H296.793V38.6266H298.746V36.3884H300.047V38.6266H302Z" fill="#295271"/>
<path d="M302 56.5321V58.0243H300.047V60.2625H298.746V58.0243H296.793V56.5321H298.746V54.2939H300.047V56.5321H302Z" fill="#295271"/>
<path d="M302 74.4377V75.9298H300.047V78.168H298.746V75.9298H296.793V74.4377H298.746V72.1995H300.047V74.4377H302Z" fill="#295271"/>
<path d="M302 92.3432V93.8353H300.047V96.0735H298.746V93.8353H296.793V92.3432H298.746V90.105H300.047V92.3432H302Z" fill="#295271"/>
<path d="M302 110.249V111.741H300.047V113.979H298.746V111.741H296.793V110.249H298.746V108.011H300.047V110.249H302Z" fill="#295271"/>
<path d="M302 128.154V129.647H300.047V131.885H298.746V129.647H296.793V128.154H298.746V125.916H300.047V128.154H302Z" fill="#295271"/>
<path d="M302 146.06V147.552H300.047V149.79H298.746V147.552H296.793V146.06H298.746V143.822H300.047V146.06H302Z" fill="#295271"/>
<path d="M302 163.966V165.458H300.047V167.696H298.746V165.458H296.793V163.966H298.746V161.728H300.047V163.966H302Z" fill="#295271"/>
<path d="M302 181.871V183.363H300.047V185.602H298.746V183.363H296.793V181.871H298.746V179.633H300.047V181.871H302Z" fill="#295271"/>
<path d="M302 199.777V201.269H300.047V203.507H298.746V201.269H296.793V199.777H298.746V197.539H300.047V199.777H302Z" fill="#295271"/>
<path d="M302 217.683V219.175H300.047V221.413H298.746V219.175H296.793V217.683H298.746V215.444H300.047V217.683H302Z" fill="#295271"/>
<path d="M302 235.588V237.08H300.047V239.318H298.746V237.08H296.793V235.588H298.746V233.35H300.047V235.588H302Z" fill="#295271"/>
<path d="M302 253.494V254.986H300.047V257.224H298.746V254.986H296.793V253.494H298.746V251.255H300.047V253.494H302Z" fill="#295271"/>
<path d="M302 271.399V272.892H300.047V275.13H298.746V272.892H296.793V271.399H298.746V269.161H300.047V271.399H302Z" fill="#295271"/>
<path d="M302 289.305V290.797H300.047V293.035H298.746V290.797H296.793V289.305H298.746V287.067H300.047V289.305H302Z" fill="#295271"/>
<path d="M302 307.21V308.703H300.047V310.941H298.746V308.703H296.793V307.21H298.746V304.972H300.047V307.21H302Z" fill="#295271"/>
<path d="M302 325.116V326.608H300.047V328.846H298.746V326.608H296.793V325.116H298.746V322.878H300.047V325.116H302Z" fill="#295271"/>
<path d="M302 343.022V344.514H300.047V346.752H298.746V344.514H296.793V343.022H298.746V340.783H300.047V343.022H302Z" fill="#295271"/>
<path d="M286.38 2.81535V4.30748H284.427V6.54568H283.125V4.30748H281.173V2.81535H283.125V0.577148H284.427V2.81535H286.38Z" fill="#295271"/>
<path d="M286.38 20.7209V22.213H284.427V24.4512H283.125V22.213H281.173V20.7209H283.125V18.4827H284.427V20.7209H286.38Z" fill="#295271"/>
<path d="M286.38 38.6266V40.1188H284.427V42.357H283.125V40.1188H281.173V38.6266H283.125V36.3884H284.427V38.6266H286.38Z" fill="#295271"/>
<path d="M286.38 56.5321V58.0243H284.427V60.2625H283.125V58.0243H281.173V56.5321H283.125V54.2939H284.427V56.5321H286.38Z" fill="#295271"/>
<path d="M286.38 74.4377V75.9298H284.427V78.168H283.125V75.9298H281.173V74.4377H283.125V72.1995H284.427V74.4377H286.38Z" fill="#295271"/>
<path d="M286.38 92.3432V93.8353H284.427V96.0735H283.125V93.8353H281.173V92.3432H283.125V90.105H284.427V92.3432H286.38Z" fill="#295271"/>
<path d="M286.38 110.249V111.741H284.427V113.979H283.125V111.741H281.173V110.249H283.125V108.011H284.427V110.249H286.38Z" fill="#295271"/>
<path d="M286.38 128.154V129.647H284.427V131.885H283.125V129.647H281.173V128.154H283.125V125.916H284.427V128.154H286.38Z" fill="#295271"/>
<path d="M286.38 146.06V147.552H284.427V149.79H283.125V147.552H281.173V146.06H283.125V143.822H284.427V146.06H286.38Z" fill="#295271"/>
<path d="M286.38 163.966V165.458H284.427V167.696H283.125V165.458H281.173V163.966H283.125V161.728H284.427V163.966H286.38Z" fill="#295271"/>
<path d="M286.38 181.871V183.363H284.427V185.602H283.125V183.363H281.173V181.871H283.125V179.633H284.427V181.871H286.38Z" fill="#295271"/>
<path d="M286.38 199.777V201.269H284.427V203.507H283.125V201.269H281.173V199.777H283.125V197.539H284.427V199.777H286.38Z" fill="#295271"/>
<path d="M286.38 217.683V219.175H284.427V221.413H283.125V219.175H281.173V217.683H283.125V215.444H284.427V217.683H286.38Z" fill="#295271"/>
<path d="M286.38 235.588V237.08H284.427V239.318H283.125V237.08H281.173V235.588H283.125V233.35H284.427V235.588H286.38Z" fill="#295271"/>
<path d="M286.38 253.494V254.986H284.427V257.224H283.125V254.986H281.173V253.494H283.125V251.255H284.427V253.494H286.38Z" fill="#295271"/>
<path d="M286.38 271.399V272.892H284.427V275.13H283.125V272.892H281.173V271.399H283.125V269.161H284.427V271.399H286.38Z" fill="#295271"/>
<path d="M286.38 289.305V290.797H284.427V293.035H283.125V290.797H281.173V289.305H283.125V287.067H284.427V289.305H286.38Z" fill="#295271"/>
<path d="M286.38 307.21V308.703H284.427V310.941H283.125V308.703H281.173V307.21H283.125V304.972H284.427V307.21H286.38Z" fill="#295271"/>
<path d="M286.38 325.116V326.608H284.427V328.846H283.125V326.608H281.173V325.116H283.125V322.878H284.427V325.116H286.38Z" fill="#295271"/>
<path d="M286.38 343.022V344.514H284.427V346.752H283.125V344.514H281.173V343.022H283.125V340.783H284.427V343.022H286.38Z" fill="#295271"/>
<path d="M270.759 2.81535V4.30748H268.806V6.54568H267.504V4.30748H265.552V2.81535H267.504V0.577148H268.806V2.81535H270.759Z" fill="#295271"/>
<path d="M270.759 20.7209V22.213H268.806V24.4512H267.504V22.213H265.552V20.7209H267.504V18.4827H268.806V20.7209H270.759Z" fill="#295271"/>
<path d="M270.759 38.6266V40.1188H268.806V42.357H267.504V40.1188H265.552V38.6266H267.504V36.3884H268.806V38.6266H270.759Z" fill="#295271"/>
<path d="M270.759 56.5321V58.0243H268.806V60.2625H267.504V58.0243H265.552V56.5321H267.504V54.2939H268.806V56.5321H270.759Z" fill="#295271"/>
<path d="M270.759 74.4377V75.9298H268.806V78.168H267.504V75.9298H265.552V74.4377H267.504V72.1995H268.806V74.4377H270.759Z" fill="#295271"/>
<path d="M270.759 92.3432V93.8353H268.806V96.0735H267.504V93.8353H265.552V92.3432H267.504V90.105H268.806V92.3432H270.759Z" fill="#295271"/>
<path d="M270.759 110.249V111.741H268.806V113.979H267.504V111.741H265.552V110.249H267.504V108.011H268.806V110.249H270.759Z" fill="#295271"/>
<path d="M270.759 128.154V129.647H268.806V131.885H267.504V129.647H265.552V128.154H267.504V125.916H268.806V128.154H270.759Z" fill="#295271"/>
<path d="M270.759 146.06V147.552H268.806V149.79H267.504V147.552H265.552V146.06H267.504V143.822H268.806V146.06H270.759Z" fill="#295271"/>
<path d="M270.759 163.966V165.458H268.806V167.696H267.504V165.458H265.552V163.966H267.504V161.728H268.806V163.966H270.759Z" fill="#295271"/>
<path d="M270.759 181.871V183.363H268.806V185.602H267.504V183.363H265.552V181.871H267.504V179.633H268.806V181.871H270.759Z" fill="#295271"/>
<path d="M270.759 199.777V201.269H268.806V203.507H267.504V201.269H265.552V199.777H267.504V197.539H268.806V199.777H270.759Z" fill="#295271"/>
<path d="M270.759 217.683V219.175H268.806V221.413H267.504V219.175H265.552V217.683H267.504V215.444H268.806V217.683H270.759Z" fill="#295271"/>
<path d="M270.759 235.588V237.08H268.806V239.318H267.504V237.08H265.552V235.588H267.504V233.35H268.806V235.588H270.759Z" fill="#295271"/>
<path d="M270.759 253.494V254.986H268.806V257.224H267.504V254.986H265.552V253.494H267.504V251.255H268.806V253.494H270.759Z" fill="#295271"/>
<path d="M270.759 271.399V272.892H268.806V275.13H267.504V272.892H265.552V271.399H267.504V269.161H268.806V271.399H270.759Z" fill="#295271"/>
<path d="M270.759 289.305V290.797H268.806V293.035H267.504V290.797H265.552V289.305H267.504V287.067H268.806V289.305H270.759Z" fill="#295271"/>
<path d="M270.759 307.21V308.703H268.806V310.941H267.504V308.703H265.552V307.21H267.504V304.972H268.806V307.21H270.759Z" fill="#295271"/>
<path d="M270.759 325.116V326.608H268.806V328.846H267.504V326.608H265.552V325.116H267.504V322.878H268.806V325.116H270.759Z" fill="#295271"/>
<path d="M270.759 343.022V344.514H268.806V346.752H267.504V344.514H265.552V343.022H267.504V340.783H268.806V343.022H270.759Z" fill="#295271"/>
<path d="M255.138 2.81535V4.30748H253.186V6.54568H251.884V4.30748H249.931V2.81535H251.884V0.577148H253.186V2.81535H255.138Z" fill="#295271"/>
<path d="M255.138 20.7209V22.213H253.186V24.4512H251.884V22.213H249.931V20.7209H251.884V18.4827H253.186V20.7209H255.138Z" fill="#295271"/>
<path d="M255.138 38.6266V40.1188H253.186V42.357H251.884V40.1188H249.931V38.6266H251.884V36.3884H253.186V38.6266H255.138Z" fill="#295271"/>
<path d="M255.138 56.5321V58.0243H253.186V60.2625H251.884V58.0243H249.931V56.5321H251.884V54.2939H253.186V56.5321H255.138Z" fill="#295271"/>
<path d="M255.138 74.4377V75.9298H253.186V78.168H251.884V75.9298H249.931V74.4377H251.884V72.1995H253.186V74.4377H255.138Z" fill="#295271"/>
<path d="M255.138 92.3432V93.8353H253.186V96.0735H251.884V93.8353H249.931V92.3432H251.884V90.105H253.186V92.3432H255.138Z" fill="#295271"/>
<path d="M255.138 110.249V111.741H253.186V113.979H251.884V111.741H249.931V110.249H251.884V108.011H253.186V110.249H255.138Z" fill="#295271"/>
<path d="M255.138 128.154V129.647H253.186V131.885H251.884V129.647H249.931V128.154H251.884V125.916H253.186V128.154H255.138Z" fill="#295271"/>
<path d="M255.138 146.06V147.552H253.186V149.79H251.884V147.552H249.931V146.06H251.884V143.822H253.186V146.06H255.138Z" fill="#295271"/>
<path d="M255.138 163.966V165.458H253.186V167.696H251.884V165.458H249.931V163.966H251.884V161.728H253.186V163.966H255.138Z" fill="#295271"/>
<path d="M255.138 181.871V183.363H253.186V185.602H251.884V183.363H249.931V181.871H251.884V179.633H253.186V181.871H255.138Z" fill="#295271"/>
<path d="M255.138 199.777V201.269H253.186V203.507H251.884V201.269H249.931V199.777H251.884V197.539H253.186V199.777H255.138Z" fill="#295271"/>
<path d="M255.138 217.683V219.175H253.186V221.413H251.884V219.175H249.931V217.683H251.884V215.444H253.186V217.683H255.138Z" fill="#295271"/>
<path d="M255.138 235.588V237.08H253.186V239.318H251.884V237.08H249.931V235.588H251.884V233.35H253.186V235.588H255.138Z" fill="#295271"/>
<path d="M255.138 253.494V254.986H253.186V257.224H251.884V254.986H249.931V253.494H251.884V251.255H253.186V253.494H255.138Z" fill="#295271"/>
<path d="M255.138 271.399V272.892H253.186V275.13H251.884V272.892H249.931V271.399H251.884V269.161H253.186V271.399H255.138Z" fill="#295271"/>
<path d="M255.138 289.305V290.797H253.186V293.035H251.884V290.797H249.931V289.305H251.884V287.067H253.186V289.305H255.138Z" fill="#295271"/>
<path d="M255.138 307.21V308.703H253.186V310.941H251.884V308.703H249.931V307.21H251.884V304.972H253.186V307.21H255.138Z" fill="#295271"/>
<path d="M255.138 325.116V326.608H253.186V328.846H251.884V326.608H249.931V325.116H251.884V322.878H253.186V325.116H255.138Z" fill="#295271"/>
<path d="M255.138 343.022V344.514H253.186V346.752H251.884V344.514H249.931V343.022H251.884V340.783H253.186V343.022H255.138Z" fill="#295271"/>
<path d="M239.518 2.81535V4.30748H237.565V6.54568H236.263V4.30748H234.311V2.81535H236.263V0.577148H237.565V2.81535H239.518Z" fill="#295271"/>
<path d="M239.518 20.7209V22.213H237.565V24.4512H236.263V22.213H234.311V20.7209H236.263V18.4827H237.565V20.7209H239.518Z" fill="#295271"/>
<path d="M239.518 38.6266V40.1188H237.565V42.357H236.263V40.1188H234.311V38.6266H236.263V36.3884H237.565V38.6266H239.518Z" fill="#295271"/>
<path d="M239.518 56.5321V58.0243H237.565V60.2625H236.263V58.0243H234.311V56.5321H236.263V54.2939H237.565V56.5321H239.518Z" fill="#295271"/>
<path d="M239.518 74.4377V75.9298H237.565V78.168H236.263V75.9298H234.311V74.4377H236.263V72.1995H237.565V74.4377H239.518Z" fill="#295271"/>
<path d="M239.518 92.3432V93.8353H237.565V96.0735H236.263V93.8353H234.311V92.3432H236.263V90.105H237.565V92.3432H239.518Z" fill="#295271"/>
<path d="M239.518 110.249V111.741H237.565V113.979H236.263V111.741H234.311V110.249H236.263V108.011H237.565V110.249H239.518Z" fill="#295271"/>
<path d="M239.518 128.154V129.647H237.565V131.885H236.263V129.647H234.311V128.154H236.263V125.916H237.565V128.154H239.518Z" fill="#295271"/>
<path d="M239.518 146.06V147.552H237.565V149.79H236.263V147.552H234.311V146.06H236.263V143.822H237.565V146.06H239.518Z" fill="#295271"/>
<path d="M239.518 163.966V165.458H237.565V167.696H236.263V165.458H234.311V163.966H236.263V161.728H237.565V163.966H239.518Z" fill="#295271"/>
<path d="M239.518 181.871V183.363H237.565V185.602H236.263V183.363H234.311V181.871H236.263V179.633H237.565V181.871H239.518Z" fill="#295271"/>
<path d="M239.518 199.777V201.269H237.565V203.507H236.263V201.269H234.311V199.777H236.263V197.539H237.565V199.777H239.518Z" fill="#295271"/>
<path d="M239.518 217.683V219.175H237.565V221.413H236.263V219.175H234.311V217.683H236.263V215.444H237.565V217.683H239.518Z" fill="#295271"/>
<path d="M239.518 235.588V237.08H237.565V239.318H236.263V237.08H234.311V235.588H236.263V233.35H237.565V235.588H239.518Z" fill="#295271"/>
<path d="M239.518 253.494V254.986H237.565V257.224H236.263V254.986H234.311V253.494H236.263V251.255H237.565V253.494H239.518Z" fill="#295271"/>
<path d="M239.518 271.399V272.892H237.565V275.13H236.263V272.892H234.311V271.399H236.263V269.161H237.565V271.399H239.518Z" fill="#295271"/>
<path d="M239.518 289.305V290.797H237.565V293.035H236.263V290.797H234.311V289.305H236.263V287.067H237.565V289.305H239.518Z" fill="#295271"/>
<path d="M239.518 307.21V308.703H237.565V310.941H236.263V308.703H234.311V307.21H236.263V304.972H237.565V307.21H239.518Z" fill="#295271"/>
<path d="M239.518 325.116V326.608H237.565V328.846H236.263V326.608H234.311V325.116H236.263V322.878H237.565V325.116H239.518Z" fill="#295271"/>
<path d="M239.518 343.022V344.514H237.565V346.752H236.263V344.514H234.311V343.022H236.263V340.783H237.565V343.022H239.518Z" fill="#295271"/>
<path d="M223.897 2.81535V4.30748H221.944V6.54568H220.642V4.30748H218.69V2.81535H220.642V0.577148H221.944V2.81535H223.897Z" fill="#295271"/>
<path d="M223.897 20.7209V22.213H221.944V24.4512H220.642V22.213H218.69V20.7209H220.642V18.4827H221.944V20.7209H223.897Z" fill="#295271"/>
<path d="M223.897 38.6266V40.1188H221.944V42.357H220.642V40.1188H218.69V38.6266H220.642V36.3884H221.944V38.6266H223.897Z" fill="#295271"/>
<path d="M223.897 56.5321V58.0243H221.944V60.2625H220.642V58.0243H218.69V56.5321H220.642V54.2939H221.944V56.5321H223.897Z" fill="#295271"/>
<path d="M223.897 74.4377V75.9298H221.944V78.168H220.642V75.9298H218.69V74.4377H220.642V72.1995H221.944V74.4377H223.897Z" fill="#295271"/>
<path d="M223.897 92.3432V93.8353H221.944V96.0735H220.642V93.8353H218.69V92.3432H220.642V90.105H221.944V92.3432H223.897Z" fill="#295271"/>
<path d="M223.897 110.249V111.741H221.944V113.979H220.642V111.741H218.69V110.249H220.642V108.011H221.944V110.249H223.897Z" fill="#295271"/>
<path d="M223.897 128.154V129.647H221.944V131.885H220.642V129.647H218.69V128.154H220.642V125.916H221.944V128.154H223.897Z" fill="#295271"/>
<path d="M223.897 146.06V147.552H221.944V149.79H220.642V147.552H218.69V146.06H220.642V143.822H221.944V146.06H223.897Z" fill="#295271"/>
<path d="M223.897 163.966V165.458H221.944V167.696H220.642V165.458H218.69V163.966H220.642V161.728H221.944V163.966H223.897Z" fill="#295271"/>
<path d="M223.897 181.871V183.363H221.944V185.602H220.642V183.363H218.69V181.871H220.642V179.633H221.944V181.871H223.897Z" fill="#295271"/>
<path d="M223.897 199.777V201.269H221.944V203.507H220.642V201.269H218.69V199.777H220.642V197.539H221.944V199.777H223.897Z" fill="#295271"/>
<path d="M223.897 217.683V219.175H221.944V221.413H220.642V219.175H218.69V217.683H220.642V215.444H221.944V217.683H223.897Z" fill="#295271"/>
<path d="M223.897 235.588V237.08H221.944V239.318H220.642V237.08H218.69V235.588H220.642V233.35H221.944V235.588H223.897Z" fill="#295271"/>
<path d="M223.897 253.494V254.986H221.944V257.224H220.642V254.986H218.69V253.494H220.642V251.255H221.944V253.494H223.897Z" fill="#295271"/>
<path d="M223.897 271.399V272.892H221.944V275.13H220.642V272.892H218.69V271.399H220.642V269.161H221.944V271.399H223.897Z" fill="#295271"/>
<path d="M223.897 289.305V290.797H221.944V293.035H220.642V290.797H218.69V289.305H220.642V287.067H221.944V289.305H223.897Z" fill="#295271"/>
<path d="M223.897 307.21V308.703H221.944V310.941H220.642V308.703H218.69V307.21H220.642V304.972H221.944V307.21H223.897Z" fill="#295271"/>
<path d="M223.897 325.116V326.608H221.944V328.846H220.642V326.608H218.69V325.116H220.642V322.878H221.944V325.116H223.897Z" fill="#295271"/>
<path d="M223.897 343.022V344.514H221.944V346.752H220.642V344.514H218.69V343.022H220.642V340.783H221.944V343.022H223.897Z" fill="#295271"/>
<path d="M208.276 2.81535V4.30748H206.324V6.54568H205.022V4.30748H203.069V2.81535H205.022V0.577148H206.324V2.81535H208.276Z" fill="#295271"/>
<path d="M208.276 20.7209V22.213H206.324V24.4512H205.022V22.213H203.069V20.7209H205.022V18.4827H206.324V20.7209H208.276Z" fill="#295271"/>
<path d="M208.276 38.6266V40.1188H206.324V42.357H205.022V40.1188H203.069V38.6266H205.022V36.3884H206.324V38.6266H208.276Z" fill="#295271"/>
<path d="M208.276 56.5321V58.0243H206.324V60.2625H205.022V58.0243H203.069V56.5321H205.022V54.2939H206.324V56.5321H208.276Z" fill="#295271"/>
<path d="M208.276 74.4377V75.9298H206.324V78.168H205.022V75.9298H203.069V74.4377H205.022V72.1995H206.324V74.4377H208.276Z" fill="#295271"/>
<path d="M208.276 92.3432V93.8353H206.324V96.0735H205.022V93.8353H203.069V92.3432H205.022V90.105H206.324V92.3432H208.276Z" fill="#295271"/>
<path d="M208.276 110.249V111.741H206.324V113.979H205.022V111.741H203.069V110.249H205.022V108.011H206.324V110.249H208.276Z" fill="#295271"/>
<path d="M208.276 128.154V129.647H206.324V131.885H205.022V129.647H203.069V128.154H205.022V125.916H206.324V128.154H208.276Z" fill="#295271"/>
<path d="M208.276 146.06V147.552H206.324V149.79H205.022V147.552H203.069V146.06H205.022V143.822H206.324V146.06H208.276Z" fill="#295271"/>
<path d="M208.276 163.966V165.458H206.324V167.696H205.022V165.458H203.069V163.966H205.022V161.728H206.324V163.966H208.276Z" fill="#295271"/>
<path d="M208.276 181.871V183.363H206.324V185.602H205.022V183.363H203.069V181.871H205.022V179.633H206.324V181.871H208.276Z" fill="#295271"/>
<path d="M208.276 199.777V201.269H206.324V203.507H205.022V201.269H203.069V199.777H205.022V197.539H206.324V199.777H208.276Z" fill="#295271"/>
<path d="M208.276 217.683V219.175H206.324V221.413H205.022V219.175H203.069V217.683H205.022V215.444H206.324V217.683H208.276Z" fill="#295271"/>
<path d="M208.276 235.588V237.08H206.324V239.318H205.022V237.08H203.069V235.588H205.022V233.35H206.324V235.588H208.276Z" fill="#295271"/>
<path d="M208.276 253.494V254.986H206.324V257.224H205.022V254.986H203.069V253.494H205.022V251.255H206.324V253.494H208.276Z" fill="#295271"/>
<path d="M208.276 271.399V272.892H206.324V275.13H205.022V272.892H203.069V271.399H205.022V269.161H206.324V271.399H208.276Z" fill="#295271"/>
<path d="M208.276 289.305V290.797H206.324V293.035H205.022V290.797H203.069V289.305H205.022V287.067H206.324V289.305H208.276Z" fill="#295271"/>
<path d="M208.276 307.21V308.703H206.324V310.941H205.022V308.703H203.069V307.21H205.022V304.972H206.324V307.21H208.276Z" fill="#295271"/>
<path d="M208.276 325.116V326.608H206.324V328.846H205.022V326.608H203.069V325.116H205.022V322.878H206.324V325.116H208.276Z" fill="#295271"/>
<path d="M208.276 343.022V344.514H206.324V346.752H205.022V344.514H203.069V343.022H205.022V340.783H206.324V343.022H208.276Z" fill="#295271"/>
<path d="M192.655 2.81535V4.30748H190.703V6.54568H189.401V4.30748H187.448V2.81535H189.401V0.577148H190.703V2.81535H192.655Z" fill="#295271"/>
<path d="M192.655 20.7209V22.213H190.703V24.4512H189.401V22.213H187.448V20.7209H189.401V18.4827H190.703V20.7209H192.655Z" fill="#295271"/>
<path d="M192.655 38.6266V40.1188H190.703V42.357H189.401V40.1188H187.448V38.6266H189.401V36.3884H190.703V38.6266H192.655Z" fill="#295271"/>
<path d="M192.655 56.5321V58.0243H190.703V60.2625H189.401V58.0243H187.448V56.5321H189.401V54.2939H190.703V56.5321H192.655Z" fill="#295271"/>
<path d="M192.655 74.4377V75.9298H190.703V78.168H189.401V75.9298H187.448V74.4377H189.401V72.1995H190.703V74.4377H192.655Z" fill="#295271"/>
<path d="M192.655 92.3432V93.8353H190.703V96.0735H189.401V93.8353H187.448V92.3432H189.401V90.105H190.703V92.3432H192.655Z" fill="#295271"/>
<path d="M192.655 110.249V111.741H190.703V113.979H189.401V111.741H187.448V110.249H189.401V108.011H190.703V110.249H192.655Z" fill="#295271"/>
<path d="M192.655 128.154V129.647H190.703V131.885H189.401V129.647H187.448V128.154H189.401V125.916H190.703V128.154H192.655Z" fill="#295271"/>
<path d="M192.655 146.06V147.552H190.703V149.79H189.401V147.552H187.448V146.06H189.401V143.822H190.703V146.06H192.655Z" fill="#295271"/>
<path d="M192.655 163.966V165.458H190.703V167.696H189.401V165.458H187.448V163.966H189.401V161.728H190.703V163.966H192.655Z" fill="#295271"/>
<path d="M192.655 181.871V183.363H190.703V185.602H189.401V183.363H187.448V181.871H189.401V179.633H190.703V181.871H192.655Z" fill="#295271"/>
<path d="M192.655 199.777V201.269H190.703V203.507H189.401V201.269H187.448V199.777H189.401V197.539H190.703V199.777H192.655Z" fill="#295271"/>
<path d="M192.655 217.683V219.175H190.703V221.413H189.401V219.175H187.448V217.683H189.401V215.444H190.703V217.683H192.655Z" fill="#295271"/>
<path d="M192.655 235.588V237.08H190.703V239.318H189.401V237.08H187.448V235.588H189.401V233.35H190.703V235.588H192.655Z" fill="#295271"/>
<path d="M192.655 253.494V254.986H190.703V257.224H189.401V254.986H187.448V253.494H189.401V251.255H190.703V253.494H192.655Z" fill="#295271"/>
<path d="M192.655 271.399V272.892H190.703V275.13H189.401V272.892H187.448V271.399H189.401V269.161H190.703V271.399H192.655Z" fill="#295271"/>
<path d="M192.655 289.305V290.797H190.703V293.035H189.401V290.797H187.448V289.305H189.401V287.067H190.703V289.305H192.655Z" fill="#295271"/>
<path d="M192.655 307.21V308.703H190.703V310.941H189.401V308.703H187.448V307.21H189.401V304.972H190.703V307.21H192.655Z" fill="#295271"/>
<path d="M192.655 325.116V326.608H190.703V328.846H189.401V326.608H187.448V325.116H189.401V322.878H190.703V325.116H192.655Z" fill="#295271"/>
<path d="M192.655 343.022V344.514H190.703V346.752H189.401V344.514H187.448V343.022H189.401V340.783H190.703V343.022H192.655Z" fill="#295271"/>
<path d="M177.035 2.81535V4.30748H175.082V6.54568H173.78V4.30748H171.828V2.81535H173.78V0.577148H175.082V2.81535H177.035Z" fill="#295271"/>
<path d="M177.035 20.7209V22.213H175.082V24.4512H173.78V22.213H171.828V20.7209H173.78V18.4827H175.082V20.7209H177.035Z" fill="#295271"/>
<path d="M177.035 38.6266V40.1188H175.082V42.357H173.78V40.1188H171.828V38.6266H173.78V36.3884H175.082V38.6266H177.035Z" fill="#295271"/>
<path d="M177.035 56.5321V58.0243H175.082V60.2625H173.78V58.0243H171.828V56.5321H173.78V54.2939H175.082V56.5321H177.035Z" fill="#295271"/>
<path d="M177.035 74.4377V75.9298H175.082V78.168H173.78V75.9298H171.828V74.4377H173.78V72.1995H175.082V74.4377H177.035Z" fill="#295271"/>
<path d="M177.035 92.3432V93.8353H175.082V96.0735H173.78V93.8353H171.828V92.3432H173.78V90.105H175.082V92.3432H177.035Z" fill="#295271"/>
<path d="M177.035 110.249V111.741H175.082V113.979H173.78V111.741H171.828V110.249H173.78V108.011H175.082V110.249H177.035Z" fill="#295271"/>
<path d="M177.035 128.154V129.647H175.082V131.885H173.78V129.647H171.828V128.154H173.78V125.916H175.082V128.154H177.035Z" fill="#295271"/>
<path d="M177.035 146.06V147.552H175.082V149.79H173.78V147.552H171.828V146.06H173.78V143.822H175.082V146.06H177.035Z" fill="#295271"/>
<path d="M177.035 163.966V165.458H175.082V167.696H173.78V165.458H171.828V163.966H173.78V161.728H175.082V163.966H177.035Z" fill="#295271"/>
<path d="M177.035 181.871V183.363H175.082V185.602H173.78V183.363H171.828V181.871H173.78V179.633H175.082V181.871H177.035Z" fill="#295271"/>
<path d="M177.035 199.777V201.269H175.082V203.507H173.78V201.269H171.828V199.777H173.78V197.539H175.082V199.777H177.035Z" fill="#295271"/>
<path d="M177.035 217.683V219.175H175.082V221.413H173.78V219.175H171.828V217.683H173.78V215.444H175.082V217.683H177.035Z" fill="#295271"/>
<path d="M177.035 235.588V237.08H175.082V239.318H173.78V237.08H171.828V235.588H173.78V233.35H175.082V235.588H177.035Z" fill="#295271"/>
<path d="M177.035 253.494V254.986H175.082V257.224H173.78V254.986H171.828V253.494H173.78V251.255H175.082V253.494H177.035Z" fill="#295271"/>
<path d="M177.035 271.399V272.892H175.082V275.13H173.78V272.892H171.828V271.399H173.78V269.161H175.082V271.399H177.035Z" fill="#295271"/>
<path d="M177.035 289.305V290.797H175.082V293.035H173.78V290.797H171.828V289.305H173.78V287.067H175.082V289.305H177.035Z" fill="#295271"/>
<path d="M177.035 307.21V308.703H175.082V310.941H173.78V308.703H171.828V307.21H173.78V304.972H175.082V307.21H177.035Z" fill="#295271"/>
<path d="M177.035 325.116V326.608H175.082V328.846H173.78V326.608H171.828V325.116H173.78V322.878H175.082V325.116H177.035Z" fill="#295271"/>
<path d="M177.035 343.022V344.514H175.082V346.752H173.78V344.514H171.828V343.022H173.78V340.783H175.082V343.022H177.035Z" fill="#295271"/>
<path d="M161.414 2.81535V4.30748H159.461V6.54568H158.16V4.30748H156.207V2.81535H158.16V0.577148H159.461V2.81535H161.414Z" fill="#295271"/>
<path d="M161.414 20.7209V22.213H159.461V24.4512H158.16V22.213H156.207V20.7209H158.16V18.4827H159.461V20.7209H161.414Z" fill="#295271"/>
<path d="M161.414 38.6266V40.1188H159.461V42.357H158.16V40.1188H156.207V38.6266H158.16V36.3884H159.461V38.6266H161.414Z" fill="#295271"/>
<path d="M161.414 56.5321V58.0243H159.461V60.2625H158.16V58.0243H156.207V56.5321H158.16V54.2939H159.461V56.5321H161.414Z" fill="#295271"/>
<path d="M161.414 74.4377V75.9298H159.461V78.168H158.16V75.9298H156.207V74.4377H158.16V72.1995H159.461V74.4377H161.414Z" fill="#295271"/>
<path d="M161.414 92.3432V93.8353H159.461V96.0735H158.16V93.8353H156.207V92.3432H158.16V90.105H159.461V92.3432H161.414Z" fill="#295271"/>
<path d="M161.414 110.249V111.741H159.461V113.979H158.16V111.741H156.207V110.249H158.16V108.011H159.461V110.249H161.414Z" fill="#295271"/>
<path d="M161.414 128.154V129.647H159.461V131.885H158.16V129.647H156.207V128.154H158.16V125.916H159.461V128.154H161.414Z" fill="#295271"/>
<path d="M161.414 146.06V147.552H159.461V149.79H158.16V147.552H156.207V146.06H158.16V143.822H159.461V146.06H161.414Z" fill="#295271"/>
<path d="M161.414 163.966V165.458H159.461V167.696H158.16V165.458H156.207V163.966H158.16V161.728H159.461V163.966H161.414Z" fill="#295271"/>
<path d="M161.414 181.871V183.363H159.461V185.602H158.16V183.363H156.207V181.871H158.16V179.633H159.461V181.871H161.414Z" fill="#295271"/>
<path d="M161.414 199.777V201.269H159.461V203.507H158.16V201.269H156.207V199.777H158.16V197.539H159.461V199.777H161.414Z" fill="#295271"/>
<path d="M161.414 217.683V219.175H159.461V221.413H158.16V219.175H156.207V217.683H158.16V215.444H159.461V217.683H161.414Z" fill="#295271"/>
<path d="M161.414 235.588V237.08H159.461V239.318H158.16V237.08H156.207V235.588H158.16V233.35H159.461V235.588H161.414Z" fill="#295271"/>
<path d="M161.414 253.494V254.986H159.461V257.224H158.16V254.986H156.207V253.494H158.16V251.255H159.461V253.494H161.414Z" fill="#295271"/>
<path d="M161.414 271.399V272.892H159.461V275.13H158.16V272.892H156.207V271.399H158.16V269.161H159.461V271.399H161.414Z" fill="#295271"/>
<path d="M161.414 289.305V290.797H159.461V293.035H158.16V290.797H156.207V289.305H158.16V287.067H159.461V289.305H161.414Z" fill="#295271"/>
<path d="M161.414 307.21V308.703H159.461V310.941H158.16V308.703H156.207V307.21H158.16V304.972H159.461V307.21H161.414Z" fill="#295271"/>
<path d="M161.414 325.116V326.608H159.461V328.846H158.16V326.608H156.207V325.116H158.16V322.878H159.461V325.116H161.414Z" fill="#295271"/>
<path d="M161.414 343.022V344.514H159.461V346.752H158.16V344.514H156.207V343.022H158.16V340.783H159.461V343.022H161.414Z" fill="#295271"/>
<path d="M145.793 2.81535V4.30748H143.841V6.54568H142.539V4.30748H140.586V2.81535H142.539V0.577148H143.841V2.81535H145.793Z" fill="#295271"/>
<path d="M145.793 20.7209V22.213H143.841V24.4512H142.539V22.213H140.586V20.7209H142.539V18.4827H143.841V20.7209H145.793Z" fill="#295271"/>
<path d="M145.793 38.6266V40.1188H143.841V42.357H142.539V40.1188H140.586V38.6266H142.539V36.3884H143.841V38.6266H145.793Z" fill="#295271"/>
<path d="M145.793 56.5321V58.0243H143.841V60.2625H142.539V58.0243H140.586V56.5321H142.539V54.2939H143.841V56.5321H145.793Z" fill="#295271"/>
<path d="M145.793 74.4377V75.9298H143.841V78.168H142.539V75.9298H140.586V74.4377H142.539V72.1995H143.841V74.4377H145.793Z" fill="#295271"/>
<path d="M145.793 92.3432V93.8353H143.841V96.0735H142.539V93.8353H140.586V92.3432H142.539V90.105H143.841V92.3432H145.793Z" fill="#295271"/>
<path d="M145.793 110.249V111.741H143.841V113.979H142.539V111.741H140.586V110.249H142.539V108.011H143.841V110.249H145.793Z" fill="#295271"/>
<path d="M145.793 128.154V129.647H143.841V131.885H142.539V129.647H140.586V128.154H142.539V125.916H143.841V128.154H145.793Z" fill="#295271"/>
<path d="M145.793 146.06V147.552H143.841V149.79H142.539V147.552H140.586V146.06H142.539V143.822H143.841V146.06H145.793Z" fill="#295271"/>
<path d="M145.793 163.966V165.458H143.841V167.696H142.539V165.458H140.586V163.966H142.539V161.728H143.841V163.966H145.793Z" fill="#295271"/>
<path d="M145.793 181.871V183.363H143.841V185.602H142.539V183.363H140.586V181.871H142.539V179.633H143.841V181.871H145.793Z" fill="#295271"/>
<path d="M145.793 199.777V201.269H143.841V203.507H142.539V201.269H140.586V199.777H142.539V197.539H143.841V199.777H145.793Z" fill="#295271"/>
<path d="M145.793 217.683V219.175H143.841V221.413H142.539V219.175H140.586V217.683H142.539V215.444H143.841V217.683H145.793Z" fill="#295271"/>
<path d="M145.793 235.588V237.08H143.841V239.318H142.539V237.08H140.586V235.588H142.539V233.35H143.841V235.588H145.793Z" fill="#295271"/>
<path d="M145.793 253.494V254.986H143.841V257.224H142.539V254.986H140.586V253.494H142.539V251.255H143.841V253.494H145.793Z" fill="#295271"/>
<path d="M145.793 271.399V272.892H143.841V275.13H142.539V272.892H140.586V271.399H142.539V269.161H143.841V271.399H145.793Z" fill="#295271"/>
<path d="M145.793 289.305V290.797H143.841V293.035H142.539V290.797H140.586V289.305H142.539V287.067H143.841V289.305H145.793Z" fill="#295271"/>
<path d="M145.793 307.21V308.703H143.841V310.941H142.539V308.703H140.586V307.21H142.539V304.972H143.841V307.21H145.793Z" fill="#295271"/>
<path d="M145.793 325.116V326.608H143.841V328.846H142.539V326.608H140.586V325.116H142.539V322.878H143.841V325.116H145.793Z" fill="#295271"/>
<path d="M145.793 343.022V344.514H143.841V346.752H142.539V344.514H140.586V343.022H142.539V340.783H143.841V343.022H145.793Z" fill="#295271"/>
<path d="M130.173 2.81535V4.30748H128.22V6.54568H126.918V4.30748H124.966V2.81535H126.918V0.577148H128.22V2.81535H130.173Z" fill="#295271"/>
<path d="M130.173 20.7209V22.213H128.22V24.4512H126.918V22.213H124.966V20.7209H126.918V18.4827H128.22V20.7209H130.173Z" fill="#295271"/>
<path d="M130.173 38.6266V40.1188H128.22V42.357H126.918V40.1188H124.966V38.6266H126.918V36.3884H128.22V38.6266H130.173Z" fill="#295271"/>
<path d="M130.173 56.5321V58.0243H128.22V60.2625H126.918V58.0243H124.966V56.5321H126.918V54.2939H128.22V56.5321H130.173Z" fill="#295271"/>
<path d="M130.173 74.4377V75.9298H128.22V78.168H126.918V75.9298H124.966V74.4377H126.918V72.1995H128.22V74.4377H130.173Z" fill="#295271"/>
<path d="M130.173 92.3432V93.8353H128.22V96.0735H126.918V93.8353H124.966V92.3432H126.918V90.105H128.22V92.3432H130.173Z" fill="#295271"/>
<path d="M130.173 110.249V111.741H128.22V113.979H126.918V111.741H124.966V110.249H126.918V108.011H128.22V110.249H130.173Z" fill="#295271"/>
<path d="M130.173 128.154V129.647H128.22V131.885H126.918V129.647H124.966V128.154H126.918V125.916H128.22V128.154H130.173Z" fill="#295271"/>
<path d="M130.173 146.06V147.552H128.22V149.79H126.918V147.552H124.966V146.06H126.918V143.822H128.22V146.06H130.173Z" fill="#295271"/>
<path d="M130.173 163.966V165.458H128.22V167.696H126.918V165.458H124.966V163.966H126.918V161.728H128.22V163.966H130.173Z" fill="#295271"/>
<path d="M130.173 181.871V183.363H128.22V185.602H126.918V183.363H124.966V181.871H126.918V179.633H128.22V181.871H130.173Z" fill="#295271"/>
<path d="M130.173 199.777V201.269H128.22V203.507H126.918V201.269H124.966V199.777H126.918V197.539H128.22V199.777H130.173Z" fill="#295271"/>
<path d="M130.173 217.683V219.175H128.22V221.413H126.918V219.175H124.966V217.683H126.918V215.444H128.22V217.683H130.173Z" fill="#295271"/>
<path d="M130.173 235.588V237.08H128.22V239.318H126.918V237.08H124.966V235.588H126.918V233.35H128.22V235.588H130.173Z" fill="#295271"/>
<path d="M130.173 253.494V254.986H128.22V257.224H126.918V254.986H124.966V253.494H126.918V251.255H128.22V253.494H130.173Z" fill="#295271"/>
<path d="M130.173 271.399V272.892H128.22V275.13H126.918V272.892H124.966V271.399H126.918V269.161H128.22V271.399H130.173Z" fill="#295271"/>
<path d="M130.173 289.305V290.797H128.22V293.035H126.918V290.797H124.966V289.305H126.918V287.067H128.22V289.305H130.173Z" fill="#295271"/>
<path d="M130.173 307.21V308.703H128.22V310.941H126.918V308.703H124.966V307.21H126.918V304.972H128.22V307.21H130.173Z" fill="#295271"/>
<path d="M130.173 325.116V326.608H128.22V328.846H126.918V326.608H124.966V325.116H126.918V322.878H128.22V325.116H130.173Z" fill="#295271"/>
<path d="M130.173 343.022V344.514H128.22V346.752H126.918V344.514H124.966V343.022H126.918V340.783H128.22V343.022H130.173Z" fill="#295271"/>
<path d="M114.552 2.81535V4.30748H112.599V6.54568H111.298V4.30748H109.345V2.81535H111.298V0.577148H112.599V2.81535H114.552Z" fill="#295271"/>
<path d="M114.552 20.7209V22.213H112.599V24.4512H111.298V22.213H109.345V20.7209H111.298V18.4827H112.599V20.7209H114.552Z" fill="#295271"/>
<path d="M114.552 38.6266V40.1188H112.599V42.357H111.298V40.1188H109.345V38.6266H111.298V36.3884H112.599V38.6266H114.552Z" fill="#295271"/>
<path d="M114.552 56.5321V58.0243H112.599V60.2625H111.298V58.0243H109.345V56.5321H111.298V54.2939H112.599V56.5321H114.552Z" fill="#295271"/>
<path d="M114.552 74.4377V75.9298H112.599V78.168H111.298V75.9298H109.345V74.4377H111.298V72.1995H112.599V74.4377H114.552Z" fill="#295271"/>
<path d="M114.552 92.3432V93.8353H112.599V96.0735H111.298V93.8353H109.345V92.3432H111.298V90.105H112.599V92.3432H114.552Z" fill="#295271"/>
<path d="M114.552 110.249V111.741H112.599V113.979H111.298V111.741H109.345V110.249H111.298V108.011H112.599V110.249H114.552Z" fill="#295271"/>
<path d="M114.552 128.154V129.647H112.599V131.885H111.298V129.647H109.345V128.154H111.298V125.916H112.599V128.154H114.552Z" fill="#295271"/>
<path d="M114.552 146.06V147.552H112.599V149.79H111.298V147.552H109.345V146.06H111.298V143.822H112.599V146.06H114.552Z" fill="#295271"/>
<path d="M114.552 163.966V165.458H112.599V167.696H111.298V165.458H109.345V163.966H111.298V161.728H112.599V163.966H114.552Z" fill="#295271"/>
<path d="M114.552 181.871V183.363H112.599V185.602H111.298V183.363H109.345V181.871H111.298V179.633H112.599V181.871H114.552Z" fill="#295271"/>
<path d="M114.552 199.777V201.269H112.599V203.507H111.298V201.269H109.345V199.777H111.298V197.539H112.599V199.777H114.552Z" fill="#295271"/>
<path d="M114.552 217.683V219.175H112.599V221.413H111.298V219.175H109.345V217.683H111.298V215.444H112.599V217.683H114.552Z" fill="#295271"/>
<path d="M114.552 235.588V237.08H112.599V239.318H111.298V237.08H109.345V235.588H111.298V233.35H112.599V235.588H114.552Z" fill="#295271"/>
<path d="M114.552 253.494V254.986H112.599V257.224H111.298V254.986H109.345V253.494H111.298V251.255H112.599V253.494H114.552Z" fill="#295271"/>
<path d="M114.552 271.399V272.892H112.599V275.13H111.298V272.892H109.345V271.399H111.298V269.161H112.599V271.399H114.552Z" fill="#295271"/>
<path d="M114.552 289.305V290.797H112.599V293.035H111.298V290.797H109.345V289.305H111.298V287.067H112.599V289.305H114.552Z" fill="#295271"/>
<path d="M114.552 307.21V308.703H112.599V310.941H111.298V308.703H109.345V307.21H111.298V304.972H112.599V307.21H114.552Z" fill="#295271"/>
<path d="M114.552 325.116V326.608H112.599V328.846H111.298V326.608H109.345V325.116H111.298V322.878H112.599V325.116H114.552Z" fill="#295271"/>
<path d="M114.552 343.022V344.514H112.599V346.752H111.298V344.514H109.345V343.022H111.298V340.783H112.599V343.022H114.552Z" fill="#295271"/>
<path d="M98.9308 2.81535V4.30748H96.9782V6.54568H95.6765V4.30748H93.7239V2.81535H95.6765V0.577148H96.9782V2.81535H98.9308Z" fill="#295271"/>
<path d="M98.9308 20.7209V22.213H96.9782V24.4512H95.6765V22.213H93.7239V20.7209H95.6765V18.4827H96.9782V20.7209H98.9308Z" fill="#295271"/>
<path d="M98.9308 38.6266V40.1188H96.9782V42.357H95.6765V40.1188H93.7239V38.6266H95.6765V36.3884H96.9782V38.6266H98.9308Z" fill="#295271"/>
<path d="M98.9308 56.5321V58.0243H96.9782V60.2625H95.6765V58.0243H93.7239V56.5321H95.6765V54.2939H96.9782V56.5321H98.9308Z" fill="#295271"/>
<path d="M98.9308 74.4377V75.9298H96.9782V78.168H95.6765V75.9298H93.7239V74.4377H95.6765V72.1995H96.9782V74.4377H98.9308Z" fill="#295271"/>
<path d="M98.9308 92.3432V93.8353H96.9782V96.0735H95.6765V93.8353H93.7239V92.3432H95.6765V90.105H96.9782V92.3432H98.9308Z" fill="#295271"/>
<path d="M98.9308 110.249V111.741H96.9782V113.979H95.6765V111.741H93.7239V110.249H95.6765V108.011H96.9782V110.249H98.9308Z" fill="#295271"/>
<path d="M98.9308 128.154V129.647H96.9782V131.885H95.6765V129.647H93.7239V128.154H95.6765V125.916H96.9782V128.154H98.9308Z" fill="#295271"/>
<path d="M98.9308 146.06V147.552H96.9782V149.79H95.6765V147.552H93.7239V146.06H95.6765V143.822H96.9782V146.06H98.9308Z" fill="#295271"/>
<path d="M98.9308 163.966V165.458H96.9782V167.696H95.6765V165.458H93.7239V163.966H95.6765V161.728H96.9782V163.966H98.9308Z" fill="#295271"/>
<path d="M98.9308 181.871V183.363H96.9782V185.602H95.6765V183.363H93.7239V181.871H95.6765V179.633H96.9782V181.871H98.9308Z" fill="#295271"/>
<path d="M98.9308 199.777V201.269H96.9782V203.507H95.6765V201.269H93.7239V199.777H95.6765V197.539H96.9782V199.777H98.9308Z" fill="#295271"/>
<path d="M98.9308 217.683V219.175H96.9782V221.413H95.6765V219.175H93.7239V217.683H95.6765V215.444H96.9782V217.683H98.9308Z" fill="#295271"/>
<path d="M98.9308 235.588V237.08H96.9782V239.318H95.6765V237.08H93.7239V235.588H95.6765V233.35H96.9782V235.588H98.9308Z" fill="#295271"/>
<path d="M98.9308 253.494V254.986H96.9782V257.224H95.6765V254.986H93.7239V253.494H95.6765V251.255H96.9782V253.494H98.9308Z" fill="#295271"/>
<path d="M98.9308 271.399V272.892H96.9782V275.13H95.6765V272.892H93.7239V271.399H95.6765V269.161H96.9782V271.399H98.9308Z" fill="#295271"/>
<path d="M98.9308 289.305V290.797H96.9782V293.035H95.6765V290.797H93.7239V289.305H95.6765V287.067H96.9782V289.305H98.9308Z" fill="#295271"/>
<path d="M98.9308 307.21V308.703H96.9782V310.941H95.6765V308.703H93.7239V307.21H95.6765V304.972H96.9782V307.21H98.9308Z" fill="#295271"/>
<path d="M98.9308 325.116V326.608H96.9782V328.846H95.6765V326.608H93.7239V325.116H95.6765V322.878H96.9782V325.116H98.9308Z" fill="#295271"/>
<path d="M98.9308 343.022V344.514H96.9782V346.752H95.6765V344.514H93.7239V343.022H95.6765V340.783H96.9782V343.022H98.9308Z" fill="#295271"/>
<path d="M83.3104 2.81535V4.30748H81.3578V6.54568H80.0561V4.30748H78.1035V2.81535H80.0561V0.577148H81.3578V2.81535H83.3104Z" fill="#295271"/>
<path d="M83.3104 20.7209V22.213H81.3578V24.4512H80.0561V22.213H78.1035V20.7209H80.0561V18.4827H81.3578V20.7209H83.3104Z" fill="#295271"/>
<path d="M83.3104 38.6266V40.1188H81.3578V42.357H80.0561V40.1188H78.1035V38.6266H80.0561V36.3884H81.3578V38.6266H83.3104Z" fill="#295271"/>
<path d="M83.3104 56.5321V58.0243H81.3578V60.2625H80.0561V58.0243H78.1035V56.5321H80.0561V54.2939H81.3578V56.5321H83.3104Z" fill="#295271"/>
<path d="M83.3104 74.4377V75.9298H81.3578V78.168H80.0561V75.9298H78.1035V74.4377H80.0561V72.1995H81.3578V74.4377H83.3104Z" fill="#295271"/>
<path d="M83.3104 92.3432V93.8353H81.3578V96.0735H80.0561V93.8353H78.1035V92.3432H80.0561V90.105H81.3578V92.3432H83.3104Z" fill="#295271"/>
<path d="M83.3104 110.249V111.741H81.3578V113.979H80.0561V111.741H78.1035V110.249H80.0561V108.011H81.3578V110.249H83.3104Z" fill="#295271"/>
<path d="M83.3104 128.154V129.647H81.3578V131.885H80.0561V129.647H78.1035V128.154H80.0561V125.916H81.3578V128.154H83.3104Z" fill="#295271"/>
<path d="M83.3104 146.06V147.552H81.3578V149.79H80.0561V147.552H78.1035V146.06H80.0561V143.822H81.3578V146.06H83.3104Z" fill="#295271"/>
<path d="M83.3104 163.966V165.458H81.3578V167.696H80.0561V165.458H78.1035V163.966H80.0561V161.728H81.3578V163.966H83.3104Z" fill="#295271"/>
<path d="M83.3104 181.871V183.363H81.3578V185.602H80.0561V183.363H78.1035V181.871H80.0561V179.633H81.3578V181.871H83.3104Z" fill="#295271"/>
<path d="M83.3104 199.777V201.269H81.3578V203.507H80.0561V201.269H78.1035V199.777H80.0561V197.539H81.3578V199.777H83.3104Z" fill="#295271"/>
<path d="M83.3104 217.683V219.175H81.3578V221.413H80.0561V219.175H78.1035V217.683H80.0561V215.444H81.3578V217.683H83.3104Z" fill="#295271"/>
<path d="M83.3104 235.588V237.08H81.3578V239.318H80.0561V237.08H78.1035V235.588H80.0561V233.35H81.3578V235.588H83.3104Z" fill="#295271"/>
<path d="M83.3104 253.494V254.986H81.3578V257.224H80.0561V254.986H78.1035V253.494H80.0561V251.255H81.3578V253.494H83.3104Z" fill="#295271"/>
<path d="M83.3104 271.399V272.892H81.3578V275.13H80.0561V272.892H78.1035V271.399H80.0561V269.161H81.3578V271.399H83.3104Z" fill="#295271"/>
<path d="M83.3104 289.305V290.797H81.3578V293.035H80.0561V290.797H78.1035V289.305H80.0561V287.067H81.3578V289.305H83.3104Z" fill="#295271"/>
<path d="M83.3104 307.21V308.703H81.3578V310.941H80.0561V308.703H78.1035V307.21H80.0561V304.972H81.3578V307.21H83.3104Z" fill="#295271"/>
<path d="M83.3104 325.116V326.608H81.3578V328.846H80.0561V326.608H78.1035V325.116H80.0561V322.878H81.3578V325.116H83.3104Z" fill="#295271"/>
<path d="M83.3104 343.022V344.514H81.3578V346.752H80.0561V344.514H78.1035V343.022H80.0561V340.783H81.3578V343.022H83.3104Z" fill="#295271"/>
<path d="M67.6898 2.81535V4.30748H65.7372V6.54568H64.4354V4.30748H62.4828V2.81535H64.4354V0.577148H65.7372V2.81535H67.6898Z" fill="#295271"/>
<path d="M67.6897 20.7209V22.213H65.7371V24.4512H64.4354V22.213H62.4828V20.7209H64.4354V18.4827H65.7371V20.7209H67.6897Z" fill="#295271"/>
<path d="M67.6897 38.6266V40.1188H65.7371V42.357H64.4354V40.1188H62.4828V38.6266H64.4354V36.3884H65.7371V38.6266H67.6897Z" fill="#295271"/>
<path d="M67.6897 56.5321V58.0243H65.7371V60.2625H64.4354V58.0243H62.4828V56.5321H64.4354V54.2939H65.7371V56.5321H67.6897Z" fill="#295271"/>
<path d="M67.6897 74.4377V75.9298H65.7371V78.168H64.4354V75.9298H62.4828V74.4377H64.4354V72.1995H65.7371V74.4377H67.6897Z" fill="#295271"/>
<path d="M67.6897 92.3432V93.8353H65.7371V96.0735H64.4354V93.8353H62.4828V92.3432H64.4354V90.105H65.7371V92.3432H67.6897Z" fill="#295271"/>
<path d="M67.6897 110.249V111.741H65.7371V113.979H64.4354V111.741H62.4828V110.249H64.4354V108.011H65.7371V110.249H67.6897Z" fill="#295271"/>
<path d="M67.6897 128.154V129.647H65.7371V131.885H64.4354V129.647H62.4828V128.154H64.4354V125.916H65.7371V128.154H67.6897Z" fill="#295271"/>
<path d="M67.6897 146.06V147.552H65.7371V149.79H64.4354V147.552H62.4828V146.06H64.4354V143.822H65.7371V146.06H67.6897Z" fill="#295271"/>
<path d="M67.6897 163.966V165.458H65.7371V167.696H64.4354V165.458H62.4828V163.966H64.4354V161.728H65.7371V163.966H67.6897Z" fill="#295271"/>
<path d="M67.6897 181.871V183.363H65.7371V185.602H64.4354V183.363H62.4828V181.871H64.4354V179.633H65.7371V181.871H67.6897Z" fill="#295271"/>
<path d="M67.6897 199.777V201.269H65.7371V203.507H64.4354V201.269H62.4828V199.777H64.4354V197.539H65.7371V199.777H67.6897Z" fill="#295271"/>
<path d="M67.6897 217.683V219.175H65.7371V221.413H64.4354V219.175H62.4828V217.683H64.4354V215.444H65.7371V217.683H67.6897Z" fill="#295271"/>
<path d="M67.6897 235.588V237.08H65.7371V239.318H64.4354V237.08H62.4828V235.588H64.4354V233.35H65.7371V235.588H67.6897Z" fill="#295271"/>
<path d="M67.6897 253.494V254.986H65.7371V257.224H64.4354V254.986H62.4828V253.494H64.4354V251.255H65.7371V253.494H67.6897Z" fill="#295271"/>
<path d="M67.6897 271.399V272.892H65.7371V275.13H64.4354V272.892H62.4828V271.399H64.4354V269.161H65.7371V271.399H67.6897Z" fill="#295271"/>
<path d="M67.6897 289.305V290.797H65.7371V293.035H64.4354V290.797H62.4828V289.305H64.4354V287.067H65.7371V289.305H67.6897Z" fill="#295271"/>
<path d="M67.6897 307.21V308.703H65.7371V310.941H64.4354V308.703H62.4828V307.21H64.4354V304.972H65.7371V307.21H67.6897Z" fill="#295271"/>
<path d="M67.6897 325.116V326.608H65.7371V328.846H64.4354V326.608H62.4828V325.116H64.4354V322.878H65.7371V325.116H67.6897Z" fill="#295271"/>
<path d="M67.6897 343.022V344.514H65.7371V346.752H64.4354V344.514H62.4828V343.022H64.4354V340.783H65.7371V343.022H67.6897Z" fill="#295271"/>
<path d="M52.069 2.81535V4.30748H50.1164V6.54568H48.8147V4.30748H46.8621V2.81535H48.8147V0.577148H50.1164V2.81535H52.069Z" fill="#295271"/>
<path d="M52.069 20.7209V22.213H50.1164V24.4512H48.8147V22.213H46.8621V20.7209H48.8147V18.4827H50.1164V20.7209H52.069Z" fill="#295271"/>
<path d="M52.069 38.6266V40.1188H50.1164V42.357H48.8147V40.1188H46.8621V38.6266H48.8147V36.3884H50.1164V38.6266H52.069Z" fill="#295271"/>
<path d="M52.069 56.5321V58.0243H50.1164V60.2625H48.8147V58.0243H46.8621V56.5321H48.8147V54.2939H50.1164V56.5321H52.069Z" fill="#295271"/>
<path d="M52.069 74.4377V75.9298H50.1164V78.168H48.8147V75.9298H46.8621V74.4377H48.8147V72.1995H50.1164V74.4377H52.069Z" fill="#295271"/>
<path d="M52.069 92.3432V93.8353H50.1164V96.0735H48.8147V93.8353H46.8621V92.3432H48.8147V90.105H50.1164V92.3432H52.069Z" fill="#295271"/>
<path d="M52.069 110.249V111.741H50.1164V113.979H48.8147V111.741H46.8621V110.249H48.8147V108.011H50.1164V110.249H52.069Z" fill="#295271"/>
<path d="M52.069 128.154V129.647H50.1164V131.885H48.8147V129.647H46.8621V128.154H48.8147V125.916H50.1164V128.154H52.069Z" fill="#295271"/>
<path d="M52.069 146.06V147.552H50.1164V149.79H48.8147V147.552H46.8621V146.06H48.8147V143.822H50.1164V146.06H52.069Z" fill="#295271"/>
<path d="M52.069 163.966V165.458H50.1164V167.696H48.8147V165.458H46.8621V163.966H48.8147V161.728H50.1164V163.966H52.069Z" fill="#295271"/>
<path d="M52.069 181.871V183.363H50.1164V185.602H48.8147V183.363H46.8621V181.871H48.8147V179.633H50.1164V181.871H52.069Z" fill="#295271"/>
<path d="M52.069 199.777V201.269H50.1164V203.507H48.8147V201.269H46.8621V199.777H48.8147V197.539H50.1164V199.777H52.069Z" fill="#295271"/>
<path d="M52.069 217.683V219.175H50.1164V221.413H48.8147V219.175H46.8621V217.683H48.8147V215.444H50.1164V217.683H52.069Z" fill="#295271"/>
<path d="M52.069 235.588V237.08H50.1164V239.318H48.8147V237.08H46.8621V235.588H48.8147V233.35H50.1164V235.588H52.069Z" fill="#295271"/>
<path d="M52.069 253.494V254.986H50.1164V257.224H48.8147V254.986H46.8621V253.494H48.8147V251.255H50.1164V253.494H52.069Z" fill="#295271"/>
<path d="M52.069 271.399V272.892H50.1164V275.13H48.8147V272.892H46.8621V271.399H48.8147V269.161H50.1164V271.399H52.069Z" fill="#295271"/>
<path d="M52.069 289.305V290.797H50.1164V293.035H48.8147V290.797H46.8621V289.305H48.8147V287.067H50.1164V289.305H52.069Z" fill="#295271"/>
<path d="M52.069 307.21V308.703H50.1164V310.941H48.8147V308.703H46.8621V307.21H48.8147V304.972H50.1164V307.21H52.069Z" fill="#295271"/>
<path d="M52.069 325.116V326.608H50.1164V328.846H48.8147V326.608H46.8621V325.116H48.8147V322.878H50.1164V325.116H52.069Z" fill="#295271"/>
<path d="M52.069 343.022V344.514H50.1164V346.752H48.8147V344.514H46.8621V343.022H48.8147V340.783H50.1164V343.022H52.069Z" fill="#295271"/>
<path d="M36.4483 2.81535V4.30748H34.4957V6.54568H33.194V4.30748H31.2414V2.81535H33.194V0.577148H34.4957V2.81535H36.4483Z" fill="#295271"/>
<path d="M36.4484 20.7209V22.213H34.4958V24.4512H33.194V22.213H31.2415V20.7209H33.194V18.4827H34.4958V20.7209H36.4484Z" fill="#295271"/>
<path d="M36.4484 38.6266V40.1188H34.4958V42.357H33.194V40.1188H31.2415V38.6266H33.194V36.3884H34.4958V38.6266H36.4484Z" fill="#295271"/>
<path d="M36.4484 56.5321V58.0243H34.4958V60.2625H33.194V58.0243H31.2415V56.5321H33.194V54.2939H34.4958V56.5321H36.4484Z" fill="#295271"/>
<path d="M36.4484 74.4377V75.9298H34.4958V78.168H33.194V75.9298H31.2415V74.4377H33.194V72.1995H34.4958V74.4377H36.4484Z" fill="#295271"/>
<path d="M36.4484 92.3432V93.8353H34.4958V96.0735H33.194V93.8353H31.2415V92.3432H33.194V90.105H34.4958V92.3432H36.4484Z" fill="#295271"/>
<path d="M36.4484 110.249V111.741H34.4958V113.979H33.194V111.741H31.2415V110.249H33.194V108.011H34.4958V110.249H36.4484Z" fill="#295271"/>
<path d="M36.4484 128.154V129.647H34.4958V131.885H33.194V129.647H31.2415V128.154H33.194V125.916H34.4958V128.154H36.4484Z" fill="#295271"/>
<path d="M36.4484 146.06V147.552H34.4958V149.79H33.194V147.552H31.2415V146.06H33.194V143.822H34.4958V146.06H36.4484Z" fill="#295271"/>
<path d="M36.4484 163.966V165.458H34.4958V167.696H33.194V165.458H31.2415V163.966H33.194V161.728H34.4958V163.966H36.4484Z" fill="#295271"/>
<path d="M36.4484 181.871V183.363H34.4958V185.602H33.194V183.363H31.2415V181.871H33.194V179.633H34.4958V181.871H36.4484Z" fill="#295271"/>
<path d="M36.4484 199.777V201.269H34.4958V203.507H33.194V201.269H31.2415V199.777H33.194V197.539H34.4958V199.777H36.4484Z" fill="#295271"/>
<path d="M36.4484 217.683V219.175H34.4958V221.413H33.194V219.175H31.2415V217.683H33.194V215.444H34.4958V217.683H36.4484Z" fill="#295271"/>
<path d="M36.4484 235.588V237.08H34.4958V239.318H33.194V237.08H31.2415V235.588H33.194V233.35H34.4958V235.588H36.4484Z" fill="#295271"/>
<path d="M36.4484 253.494V254.986H34.4958V257.224H33.194V254.986H31.2415V253.494H33.194V251.255H34.4958V253.494H36.4484Z" fill="#295271"/>
<path d="M36.4484 271.399V272.892H34.4958V275.13H33.194V272.892H31.2415V271.399H33.194V269.161H34.4958V271.399H36.4484Z" fill="#295271"/>
<path d="M36.4484 289.305V290.797H34.4958V293.035H33.194V290.797H31.2415V289.305H33.194V287.067H34.4958V289.305H36.4484Z" fill="#295271"/>
<path d="M36.4484 307.21V308.703H34.4958V310.941H33.194V308.703H31.2415V307.21H33.194V304.972H34.4958V307.21H36.4484Z" fill="#295271"/>
<path d="M36.4484 325.116V326.608H34.4958V328.846H33.194V326.608H31.2415V325.116H33.194V322.878H34.4958V325.116H36.4484Z" fill="#295271"/>
<path d="M36.4484 343.022V344.514H34.4958V346.752H33.194V344.514H31.2415V343.022H33.194V340.783H34.4958V343.022H36.4484Z" fill="#295271"/>
<path d="M20.8276 2.81535V4.30748H18.875V6.54568H17.5733V4.30748H15.6207V2.81535H17.5733V0.577148H18.875V2.81535H20.8276Z" fill="#295271"/>
<path d="M20.8276 20.7209V22.213H18.875V24.4512H17.5733V22.213H15.6207V20.7209H17.5733V18.4827H18.875V20.7209H20.8276Z" fill="#295271"/>
<path d="M20.8276 38.6266V40.1188H18.875V42.357H17.5733V40.1188H15.6207V38.6266H17.5733V36.3884H18.875V38.6266H20.8276Z" fill="#295271"/>
<path d="M20.8276 56.5321V58.0243H18.875V60.2625H17.5733V58.0243H15.6207V56.5321H17.5733V54.2939H18.875V56.5321H20.8276Z" fill="#295271"/>
<path d="M20.8276 74.4377V75.9298H18.875V78.168H17.5733V75.9298H15.6207V74.4377H17.5733V72.1995H18.875V74.4377H20.8276Z" fill="#295271"/>
<path d="M20.8276 92.3432V93.8353H18.875V96.0735H17.5733V93.8353H15.6207V92.3432H17.5733V90.105H18.875V92.3432H20.8276Z" fill="#295271"/>
<path d="M20.8276 110.249V111.741H18.875V113.979H17.5733V111.741H15.6207V110.249H17.5733V108.011H18.875V110.249H20.8276Z" fill="#295271"/>
<path d="M20.8276 128.154V129.647H18.875V131.885H17.5733V129.647H15.6207V128.154H17.5733V125.916H18.875V128.154H20.8276Z" fill="#295271"/>
<path d="M20.8276 146.06V147.552H18.875V149.79H17.5733V147.552H15.6207V146.06H17.5733V143.822H18.875V146.06H20.8276Z" fill="#295271"/>
<path d="M20.8276 163.966V165.458H18.875V167.696H17.5733V165.458H15.6207V163.966H17.5733V161.728H18.875V163.966H20.8276Z" fill="#295271"/>
<path d="M20.8276 181.871V183.363H18.875V185.602H17.5733V183.363H15.6207V181.871H17.5733V179.633H18.875V181.871H20.8276Z" fill="#295271"/>
<path d="M20.8276 199.777V201.269H18.875V203.507H17.5733V201.269H15.6207V199.777H17.5733V197.539H18.875V199.777H20.8276Z" fill="#295271"/>
<path d="M20.8276 217.683V219.175H18.875V221.413H17.5733V219.175H15.6207V217.683H17.5733V215.444H18.875V217.683H20.8276Z" fill="#295271"/>
<path d="M20.8276 235.588V237.08H18.875V239.318H17.5733V237.08H15.6207V235.588H17.5733V233.35H18.875V235.588H20.8276Z" fill="#295271"/>
<path d="M20.8276 253.494V254.986H18.875V257.224H17.5733V254.986H15.6207V253.494H17.5733V251.255H18.875V253.494H20.8276Z" fill="#295271"/>
<path d="M20.8276 271.399V272.892H18.875V275.13H17.5733V272.892H15.6207V271.399H17.5733V269.161H18.875V271.399H20.8276Z" fill="#295271"/>
<path d="M20.8276 289.305V290.797H18.875V293.035H17.5733V290.797H15.6207V289.305H17.5733V287.067H18.875V289.305H20.8276Z" fill="#295271"/>
<path d="M20.8276 307.21V308.703H18.875V310.941H17.5733V308.703H15.6207V307.21H17.5733V304.972H18.875V307.21H20.8276Z" fill="#295271"/>
<path d="M20.8276 325.116V326.608H18.875V328.846H17.5733V326.608H15.6207V325.116H17.5733V322.878H18.875V325.116H20.8276Z" fill="#295271"/>
<path d="M20.8276 343.022V344.514H18.875V346.752H17.5733V344.514H15.6207V343.022H17.5733V340.783H18.875V343.022H20.8276Z" fill="#295271"/>
<path d="M5.20691 2.81535V4.30748H3.25432V6.54568H1.95259V4.30748H0V2.81535H1.95259V0.577148H3.25432V2.81535H5.20691Z" fill="#295271"/>
<path d="M5.20691 20.7209V22.213H3.25432V24.4512H1.95259V22.213H0V20.7209H1.95259V18.4827H3.25432V20.7209H5.20691Z" fill="#295271"/>
<path d="M5.20691 38.6266V40.1188H3.25432V42.357H1.95259V40.1188H0V38.6266H1.95259V36.3884H3.25432V38.6266H5.20691Z" fill="#295271"/>
<path d="M5.20691 56.5321V58.0243H3.25432V60.2625H1.95259V58.0243H0V56.5321H1.95259V54.2939H3.25432V56.5321H5.20691Z" fill="#295271"/>
<path d="M5.20691 74.4377V75.9298H3.25432V78.168H1.95259V75.9298H0V74.4377H1.95259V72.1995H3.25432V74.4377H5.20691Z" fill="#295271"/>
<path d="M5.20691 92.3432V93.8353H3.25432V96.0735H1.95259V93.8353H0V92.3432H1.95259V90.105H3.25432V92.3432H5.20691Z" fill="#295271"/>
<path d="M5.20691 110.249V111.741H3.25432V113.979H1.95259V111.741H0V110.249H1.95259V108.011H3.25432V110.249H5.20691Z" fill="#295271"/>
<path d="M5.20691 128.154V129.647H3.25432V131.885H1.95259V129.647H0V128.154H1.95259V125.916H3.25432V128.154H5.20691Z" fill="#295271"/>
<path d="M5.20691 146.06V147.552H3.25432V149.79H1.95259V147.552H0V146.06H1.95259V143.822H3.25432V146.06H5.20691Z" fill="#295271"/>
<path d="M5.20691 163.966V165.458H3.25432V167.696H1.95259V165.458H0V163.966H1.95259V161.728H3.25432V163.966H5.20691Z" fill="#295271"/>
<path d="M5.20691 181.871V183.363H3.25432V185.602H1.95259V183.363H0V181.871H1.95259V179.633H3.25432V181.871H5.20691Z" fill="#295271"/>
<path d="M5.20691 199.777V201.269H3.25432V203.507H1.95259V201.269H0V199.777H1.95259V197.539H3.25432V199.777H5.20691Z" fill="#295271"/>
<path d="M5.20691 217.683V219.175H3.25432V221.413H1.95259V219.175H0V217.683H1.95259V215.444H3.25432V217.683H5.20691Z" fill="#295271"/>
<path d="M5.20691 235.588V237.08H3.25432V239.318H1.95259V237.08H0V235.588H1.95259V233.35H3.25432V235.588H5.20691Z" fill="#295271"/>
<path d="M5.20691 253.494V254.986H3.25432V257.224H1.95259V254.986H0V253.494H1.95259V251.255H3.25432V253.494H5.20691Z" fill="#295271"/>
<path d="M5.20691 271.399V272.892H3.25432V275.13H1.95259V272.892H0V271.399H1.95259V269.161H3.25432V271.399H5.20691Z" fill="#295271"/>
<path d="M5.20691 289.305V290.797H3.25432V293.035H1.95259V290.797H0V289.305H1.95259V287.067H3.25432V289.305H5.20691Z" fill="#295271"/>
<path d="M5.20691 307.21V308.703H3.25432V310.941H1.95259V308.703H0V307.21H1.95259V304.972H3.25432V307.21H5.20691Z" fill="#295271"/>
<path d="M5.20691 325.116V326.608H3.25432V328.846H1.95259V326.608H0V325.116H1.95259V322.878H3.25432V325.116H5.20691Z" fill="#295271"/>
<path d="M5.20691 343.022V344.514H3.25432V346.752H1.95259V344.514H0V343.022H1.95259V340.783H3.25432V343.022H5.20691Z" fill="#295271"/>
</g>
</svg>
