<svg width="31" height="32" viewBox="0 0 31 32" fill="none" xmlns="http://www.w3.org/2000/svg">
<path opacity="0.7" fill-rule="evenodd" clip-rule="evenodd" d="M30.8616 13.973C30.8114 13.7554 30.6887 13.5615 30.5138 13.4227C30.3388 13.2839 30.1219 13.2085 29.8986 13.2092C29.2242 13.205 28.567 12.9969 28.0133 12.6119C27.4597 12.2269 27.0356 11.6833 26.7969 11.0526C26.5425 10.3925 26.4862 9.67252 26.6349 8.98087C26.7836 8.28922 27.1308 7.65595 27.634 7.15868C27.7905 7.00625 27.886 6.80201 27.9028 6.58426C27.9196 6.3665 27.8566 6.15009 27.7255 5.97546C27.0345 5.04797 26.2383 4.20375 25.3531 3.45946C25.2724 3.39061 25.179 3.33827 25.0782 3.30552C24.9773 3.27278 24.8711 3.26025 24.7654 3.26859C24.6597 3.27694 24.5566 3.30599 24.4622 3.35416C24.3677 3.40232 24.2837 3.46858 24.2149 3.54923C23.7599 4.06437 23.1565 4.42595 22.4876 4.58418C21.8187 4.74241 21.1173 4.68947 20.4797 4.43281C19.8366 4.13519 19.299 3.64942 18.938 3.0397C18.577 2.42998 18.4096 1.72518 18.4578 1.01824C18.4733 0.801232 18.406 0.586413 18.2696 0.416936C18.1332 0.247458 17.9377 0.135723 17.7224 0.104493C16.6033 -0.0277918 15.4729 -0.0326479 14.3527 0.0896842C14.1388 0.120277 13.9439 0.229019 13.8056 0.394997C13.6672 0.560975 13.5953 0.772366 13.6038 0.988255C13.6384 1.68865 13.4613 2.38322 13.0956 2.98156C12.7299 3.57991 12.1925 4.05431 11.5535 4.34304C10.919 4.59163 10.2237 4.64011 9.56089 4.48217C8.89805 4.32422 8.29935 3.96745 7.8452 3.45946C7.70602 3.29992 7.50997 3.20111 7.29892 3.18431C7.08788 3.16752 6.87865 3.23399 6.716 3.36951C5.81332 4.1057 5.00005 4.9452 4.29278 5.8707C4.15914 6.04704 4.09451 6.26599 4.11105 6.48663C4.1276 6.70727 4.22419 6.9143 4.38264 7.06873C4.89475 7.56657 5.24763 8.20522 5.39666 8.90372C5.54569 9.60222 5.48411 10.3291 5.21978 10.9926C4.95425 11.6343 4.50103 12.1808 3.91946 12.5603C3.33788 12.9399 2.65517 13.1347 1.96088 13.1194C1.74304 13.1088 1.52977 13.1847 1.36763 13.3306C1.20548 13.4764 1.10761 13.6805 1.09522 13.8982C0.965655 15.0879 0.965655 16.2881 1.09522 17.4777C1.14866 17.6973 1.27479 17.8922 1.45319 18.0309C1.63159 18.1696 1.85175 18.2439 2.07771 18.2415C2.75025 18.2424 3.40626 18.4495 3.95721 18.8352C4.50816 19.2209 4.92752 19.7665 5.15844 20.3981C5.41436 21.058 5.47139 21.7784 5.32262 22.4704C5.17384 23.1624 4.82573 23.7956 4.32121 24.292C4.1648 24.4445 4.06927 24.6487 4.05246 24.8665C4.03565 25.0842 4.09874 25.3006 4.22989 25.4753C4.92127 26.4015 5.71615 27.2455 6.59917 27.9913C6.76384 28.1267 6.97457 28.193 7.18713 28.1763C7.39968 28.1595 7.59747 28.0611 7.73888 27.9015C8.19183 27.3839 8.79505 27.0206 9.46436 26.8622C10.1337 26.7038 10.8358 26.7582 11.4727 27.0179C12.1165 27.3148 12.655 27.8003 13.0169 28.4101C13.3787 29.0199 13.5468 29.725 13.499 30.4325C13.4859 30.649 13.554 30.8627 13.69 31.0316C13.826 31.2005 14.0201 31.3127 14.2344 31.3462C14.8066 31.4186 15.3829 31.4536 15.9597 31.451C16.51 31.451 17.06 31.4209 17.6071 31.361C17.8231 31.3289 18.0194 31.2177 18.1578 31.0488C18.2962 30.8799 18.3668 30.6656 18.3559 30.4475C18.3249 29.7479 18.5034 29.0551 18.8684 28.4575C19.2333 27.8598 19.7683 27.3846 20.4048 27.0927C21.0408 26.8463 21.7368 26.8004 22.3997 26.9611C23.0625 27.1217 23.6604 27.4811 24.1131 27.9913C24.2525 28.1509 24.4488 28.2498 24.6601 28.2666C24.8714 28.2834 25.0808 28.2168 25.2437 28.0812C26.1484 27.3416 26.9619 26.4969 27.667 25.565C27.8003 25.3913 27.8647 25.1747 27.8481 24.9564C27.8315 24.7381 27.7351 24.5336 27.5772 24.382C27.0653 23.884 26.7124 23.2454 26.5632 22.547C26.4139 21.8486 26.4749 21.1218 26.7385 20.4581C26.9776 19.8367 27.3969 19.3008 27.9426 18.9193C28.4882 18.5377 29.1355 18.3277 29.8012 18.3163L29.987 18.3313C30.2047 18.3375 30.4166 18.2603 30.5794 18.1156C30.7422 17.9708 30.8437 17.7695 30.863 17.5525C30.9914 16.3628 30.9909 15.1626 30.8616 13.973ZM16.0031 20.9972C14.9572 21.0466 13.9206 20.7817 13.0266 20.2365C12.1327 19.6913 11.4226 18.8909 10.9877 17.9384C10.5528 16.986 10.413 15.9252 10.5865 14.8926C10.76 13.8601 11.2388 12.9032 11.9611 12.1452C12.6833 11.3871 13.6161 10.8627 14.639 10.6396C15.662 10.4165 16.7284 10.5049 17.7007 10.8934C18.673 11.2818 19.5067 11.9525 20.0944 12.819C20.682 13.6856 20.9967 14.7083 20.9979 15.7553C21.0284 17.1122 20.5199 18.4258 19.5837 19.4083C18.6474 20.3909 17.3598 20.9623 16.0031 20.9972Z" fill="#ADBDD0"/>
</svg>
