<svg width="43" height="48" viewBox="0 0 43 48" fill="none" xmlns="http://www.w3.org/2000/svg">
<path d="M11.2 13.3916L-1.52588e-05 17.9916L12.5 47.9916L42.5 35.4916L37.7 23.8916C37.6 23.7916 37.6 23.7916 37.5 23.7916C37.4 23.7916 37.4 23.6916 37.3 23.6916C37.2 23.5916 37.1 23.5916 36.9 23.5916C36.9 23.5916 36.9 23.5916 36.8 23.5916H36.7H36.6H36.5C36.4 23.5916 36.4 23.5916 36.3 23.5916H36.2C36.1 23.5916 36 23.5916 35.9 23.6916C35.4 23.8916 35.1 24.2916 35 24.6916C34.6 26.1916 33.5 27.5916 31.9 28.1916C29.2 29.2916 26.1 27.9916 24.9 25.2916C23.8 22.5916 25.1 19.4916 27.8 18.2916C29.4 17.5916 31.1 17.7916 32.5 18.5916C32.9 18.7916 33.4 18.8916 33.9 18.6916C34 18.6916 34.1 18.5916 34.1 18.5916C34.1 18.5916 34.2 18.5916 34.2 18.4916L34.3 18.3916L34.4 18.2916L34.5 18.1916L34.6 18.0916C34.6 18.0916 34.6 18.0916 34.6 17.9916C34.7 17.8916 34.7 17.7916 34.8 17.6916C34.8 17.5916 34.8 17.5916 34.8 17.4916C34.8 17.3916 34.8 17.3916 34.8 17.2916L30 5.5916L18.8 10.2916C18 10.4916 17.2 10.1916 16.9 9.3916C16.7 8.8916 16.8 8.3916 17 7.9916C17.8 6.5916 18 4.8916 17.3 3.2916C16.2 0.591603 13.1 -0.708397 10.3 0.391603C7.59999 1.4916 6.29998 4.5916 7.39998 7.3916C7.99998 8.9916 9.39998 9.9916 10.9 10.4916C11.3 10.5916 11.7 10.8916 11.9 11.3916C12.3 12.0916 11.9 12.9916 11.2 13.3916Z" fill="#DAE2E8"/>
</svg>
