<svg width="30" height="30" viewBox="0 0 30 30" fill="none" xmlns="http://www.w3.org/2000/svg">
<path fill-rule="evenodd" clip-rule="evenodd" d="M16.4319 0.000488557V13.555H30C29.9971 9.95859 28.5662 6.51062 26.022 3.96888C23.4777 1.42715 20.0283 -0.000235639 16.4319 0.000488557ZM13.5681 30.0005C17.1666 30.0005 20.6178 28.571 23.1623 26.0264C25.7069 23.4819 27.1364 20.0309 27.1364 16.4324H13.5681L13.5545 2.87774C11.7736 2.87864 10.0104 3.23027 8.36543 3.91262C6.72043 4.59497 5.22589 5.5947 3.96723 6.85463C2.70858 8.11455 1.71042 9.60997 1.02972 11.2556C0.349025 12.9013 -0.000893663 14.6651 1.71398e-06 16.446C0.00089709 18.2269 0.352531 19.9901 1.03488 21.6351C1.71723 23.2801 2.71696 24.7746 3.97689 26.0333C5.23681 27.2919 6.73223 28.2901 8.37791 28.9708C10.0236 29.6515 11.7872 30.0014 13.5681 30.0005Z" fill="#C4CFDD"/>
</svg>
