<svg width="194" height="123" viewBox="0 0 194 123" fill="none" xmlns="http://www.w3.org/2000/svg">
<g opacity="0.1">
<path d="M174.204 14.3004C168.931 14.3004 166.339 11.1004 163.836 7.90039C161.512 4.90039 159.278 2.10039 154.898 2.10039C150.518 2.10039 148.284 4.90039 145.96 7.90039C143.457 11.0004 140.865 14.3004 135.592 14.3004C130.318 14.3004 127.726 11.1004 125.223 7.90039C122.899 4.90039 120.665 2.10039 116.285 2.10039C111.905 2.10039 109.671 4.90039 107.347 7.90039C104.844 11.0004 102.252 14.3004 96.9788 14.3004C91.7053 14.3004 89.1132 11.0004 86.6999 7.90039C84.376 4.90039 82.1415 2.10039 77.7618 2.10039C73.3821 2.10039 71.1476 4.90039 68.8237 7.90039C66.321 11.0004 63.7289 14.3004 58.4554 14.3004C53.1819 14.3004 50.5899 11.1004 48.1766 7.90039C45.8527 4.90039 43.6181 2.10039 39.2385 2.10039C34.8588 2.10039 32.6242 4.90039 30.3003 7.90039C27.7976 11.0004 25.2056 14.3004 20.0215 14.3004C14.748 14.3004 12.1559 11.1004 9.65322 7.90039C7.32931 4.90039 5.09477 2.10039 0.715088 2.10039V0.900391C5.98859 0.900391 8.58065 4.10039 11.0833 7.30039C13.4072 10.3004 15.6418 13.1004 20.0215 13.1004C24.4011 13.1004 26.6357 10.3004 28.9596 7.30039C31.4623 4.20039 34.0543 0.900391 39.2385 0.900391C44.512 0.900391 47.104 4.10039 49.5173 7.30039C51.8412 10.3004 54.0758 13.1004 58.4554 13.1004C62.8351 13.1004 65.0697 10.3004 67.3936 7.30039C69.8962 4.20039 72.4883 0.900391 77.7618 0.900391C83.0353 0.900391 85.6274 4.10039 88.13 7.30039C90.454 10.3004 92.6885 13.1004 97.0682 13.1004C101.448 13.1004 103.682 10.3004 106.006 7.30039C108.509 4.20039 111.101 0.900391 116.375 0.900391C121.648 0.900391 124.24 4.10039 126.743 7.30039C129.067 10.3004 131.301 13.1004 135.681 13.1004C140.061 13.1004 142.295 10.3004 144.619 7.30039C147.122 4.20039 149.714 0.900391 154.987 0.900391C160.261 0.900391 162.853 4.10039 165.356 7.30039C167.679 10.3004 169.914 13.1004 174.294 13.1004C178.673 13.1004 180.908 10.3004 183.232 7.30039C185.734 4.20039 188.327 0.900391 193.6 0.900391V2.10039C189.22 2.10039 186.986 4.90039 184.662 7.90039C181.98 11.0004 179.478 14.3004 174.204 14.3004Z" fill="#295271"/>
<path d="M174.204 25.1004C168.931 25.1004 166.339 21.9004 163.836 18.7004C161.512 15.7004 159.278 12.9004 154.898 12.9004C150.518 12.9004 148.284 15.7004 145.96 18.7004C143.457 21.8004 140.865 25.1004 135.591 25.1004C130.318 25.1004 127.726 21.9004 125.223 18.7004C122.899 15.7004 120.665 12.9004 116.285 12.9004C111.905 12.9004 109.671 15.7004 107.347 18.7004C104.844 21.8004 102.252 25.1004 96.9787 25.1004C91.7052 25.1004 89.1132 21.9004 86.6105 18.7004C84.2866 15.7004 82.052 12.9004 77.6724 12.9004C73.2927 12.9004 71.0581 15.7004 68.7342 18.7004C66.2315 21.8004 63.6395 25.1004 58.366 25.1004C53.0925 25.1004 50.5004 21.9004 48.0871 18.7004C45.7632 15.7004 43.5287 12.9004 39.149 12.9004C34.7693 12.9004 32.5348 15.7004 30.2109 18.7004C27.7082 21.8004 25.1161 25.1004 19.932 25.1004C14.6585 25.1004 12.0664 21.9004 9.56376 18.7004C7.23985 15.7004 5.00531 12.9004 0.625626 12.9004V11.7004C5.89913 11.7004 8.49118 14.9004 10.9939 18.1004C13.3178 21.1004 15.5523 23.9004 19.932 23.9004C24.3117 23.9004 26.5462 21.1004 28.8701 18.1004C31.3728 15.0004 33.9649 11.7004 39.149 11.7004C44.4225 11.7004 47.0145 14.9004 49.4278 18.1004C51.7518 21.1004 53.9863 23.9004 58.366 23.9004C62.7457 23.9004 64.9802 21.1004 67.3041 18.1004C69.8068 15.0004 72.3988 11.7004 77.6724 11.7004C82.9459 11.7004 85.5379 14.9004 88.0406 18.1004C90.3645 21.1004 92.599 23.9004 96.9787 23.9004C101.358 23.9004 103.593 21.1004 105.917 18.1004C108.42 15.0004 111.012 11.7004 116.285 11.7004C121.559 11.7004 124.151 14.9004 126.653 18.1004C128.977 21.1004 131.212 23.9004 135.591 23.9004C139.971 23.9004 142.206 21.1004 144.53 18.1004C147.032 15.0004 149.624 11.7004 154.898 11.7004C160.171 11.7004 162.763 14.9004 165.266 18.1004C167.59 21.1004 169.825 23.9004 174.204 23.9004C178.584 23.9004 180.818 21.1004 183.142 18.1004C185.645 15.0004 188.237 11.7004 193.511 11.7004V12.9004C189.131 12.9004 186.896 15.7004 184.572 18.7004C181.98 21.8004 179.478 25.1004 174.204 25.1004Z" fill="#295271"/>
<path d="M174.204 35.9005C168.931 35.9005 166.339 32.7005 163.836 29.5005C161.512 26.5005 159.278 23.7005 154.898 23.7005C150.518 23.7005 148.284 26.5005 145.96 29.5005C143.457 32.6005 140.865 35.9005 135.591 35.9005C130.318 35.9005 127.726 32.7005 125.223 29.5005C122.899 26.5005 120.665 23.7005 116.285 23.7005C111.905 23.7005 109.671 26.5005 107.347 29.5005C104.844 32.6005 102.252 35.9005 96.9787 35.9005C91.7052 35.9005 89.1132 32.7005 86.6105 29.5005C84.2866 26.5005 82.052 23.7005 77.6724 23.7005C73.2927 23.7005 71.0581 26.5005 68.7342 29.5005C66.2315 32.6005 63.6395 35.9005 58.366 35.9005C53.0925 35.9005 50.5004 32.7005 48.0871 29.5005C45.7632 26.5005 43.5287 23.7005 39.149 23.7005C34.7693 23.7005 32.5348 26.5005 30.2109 29.5005C27.7082 32.6005 25.1161 35.9005 19.932 35.9005C14.6585 35.9005 12.0664 32.7005 9.56376 29.5005C7.23985 26.5005 5.00531 23.7005 0.625626 23.7005V22.5005C5.89913 22.5005 8.49118 25.7005 10.9939 28.9005C13.3178 31.9005 15.5523 34.7005 19.932 34.7005C24.3117 34.7005 26.5462 31.9005 28.8701 28.9005C31.3728 25.8005 33.9649 22.5005 39.149 22.5005C44.4225 22.5005 47.0145 25.7005 49.4278 28.9005C51.7518 31.9005 53.9863 34.7005 58.366 34.7005C62.7457 34.7005 64.9802 31.9005 67.3041 28.9005C69.8068 25.8005 72.3988 22.5005 77.6724 22.5005C82.9459 22.5005 85.5379 25.7005 88.0406 28.9005C90.3645 31.9005 92.599 34.7005 96.9787 34.7005C101.358 34.7005 103.593 31.9005 105.917 28.9005C108.42 25.8005 111.012 22.5005 116.285 22.5005C121.559 22.5005 124.151 25.7005 126.653 28.9005C128.977 31.9005 131.212 34.7005 135.591 34.7005C139.971 34.7005 142.206 31.9005 144.53 28.9005C147.032 25.8005 149.624 22.5005 154.898 22.5005C160.171 22.5005 162.763 25.7005 165.266 28.9005C167.59 31.9005 169.825 34.7005 174.204 34.7005C178.584 34.7005 180.818 31.9005 183.142 28.9005C185.645 25.8005 188.237 22.5005 193.511 22.5005V23.7005C189.131 23.7005 186.896 26.5005 184.572 29.5005C181.98 32.6005 179.478 35.9005 174.204 35.9005Z" fill="#295271"/>
<path d="M174.204 46.7005C168.931 46.7005 166.339 43.5005 163.836 40.3005C161.512 37.3005 159.278 34.5005 154.898 34.5005C150.518 34.5005 148.284 37.3005 145.96 40.3005C143.457 43.4005 140.865 46.7005 135.591 46.7005C130.318 46.7005 127.726 43.5005 125.223 40.3005C122.899 37.3005 120.665 34.5005 116.285 34.5005C111.905 34.5005 109.671 37.3005 107.347 40.3005C104.844 43.4005 102.252 46.7005 96.9787 46.7005C91.7052 46.7005 89.1132 43.5005 86.6105 40.3005C84.2866 37.3005 82.052 34.5005 77.6724 34.5005C73.2927 34.5005 71.0581 37.3005 68.7342 40.3005C66.2315 43.4005 63.6395 46.7005 58.366 46.7005C53.0925 46.7005 50.5004 43.5005 48.0871 40.3005C45.7632 37.3005 43.5287 34.5005 39.149 34.5005C34.7693 34.5005 32.5348 37.3005 30.2109 40.3005C27.7082 43.4005 25.1161 46.7005 19.932 46.7005C14.6585 46.7005 12.0664 43.5005 9.56376 40.3005C7.23985 37.3005 5.00531 34.5005 0.625626 34.5005V33.3005C5.89913 33.3005 8.49118 36.5005 10.9939 39.7005C13.3178 42.7005 15.5523 45.5005 19.932 45.5005C24.3117 45.5005 26.5462 42.7005 28.8701 39.7005C31.3728 36.6005 33.9649 33.3005 39.149 33.3005C44.4225 33.3005 47.0145 36.5005 49.4278 39.7005C51.7518 42.7005 53.9863 45.5005 58.366 45.5005C62.7457 45.5005 64.9802 42.7005 67.3041 39.7005C69.8068 36.6005 72.3988 33.3005 77.6724 33.3005C82.9459 33.3005 85.5379 36.5005 88.0406 39.7005C90.3645 42.7005 92.599 45.5005 96.9787 45.5005C101.358 45.5005 103.593 42.7005 105.917 39.7005C108.42 36.6005 111.012 33.3005 116.285 33.3005C121.559 33.3005 124.151 36.5005 126.653 39.7005C128.977 42.7005 131.212 45.5005 135.591 45.5005C139.971 45.5005 142.206 42.7005 144.53 39.7005C147.032 36.6005 149.624 33.3005 154.898 33.3005C160.171 33.3005 162.763 36.5005 165.266 39.7005C167.59 42.7005 169.825 45.5005 174.204 45.5005C178.584 45.5005 180.818 42.7005 183.142 39.7005C185.645 36.6005 188.237 33.3005 193.511 33.3005V34.5005C189.131 34.5005 186.896 37.3005 184.572 40.3005C181.98 43.4005 179.478 46.7005 174.204 46.7005Z" fill="#295271"/>
<path d="M174.204 57.4005C168.931 57.4005 166.339 54.2005 163.836 51.0005C161.512 48.0005 159.278 45.2005 154.898 45.2005C150.518 45.2005 148.284 48.0005 145.96 51.0005C143.457 54.1005 140.865 57.4005 135.591 57.4005C130.318 57.4005 127.726 54.2005 125.223 51.0005C122.899 48.0005 120.665 45.2005 116.285 45.2005C111.905 45.2005 109.671 48.0005 107.347 51.0005C104.844 54.1005 102.252 57.4005 96.9787 57.4005C91.7052 57.4005 89.1132 54.2005 86.6105 51.0005C84.2866 48.0005 82.052 45.2005 77.6724 45.2005C73.2927 45.2005 71.0581 48.0005 68.7342 51.0005C66.2315 54.1005 63.6395 57.4005 58.366 57.4005C53.0925 57.4005 50.5004 54.2005 48.0871 51.0005C45.7632 48.0005 43.5287 45.2005 39.149 45.2005C34.7693 45.2005 32.5348 48.0005 30.2109 51.0005C27.7082 54.1005 25.1161 57.4005 19.932 57.4005C14.6585 57.4005 12.0664 54.2005 9.56376 51.0005C7.23985 48.0005 5.00531 45.2005 0.625626 45.2005V44.0005C5.89913 44.0005 8.49118 47.2005 10.9939 50.4005C13.3178 53.4005 15.5523 56.2005 19.932 56.2005C24.3117 56.2005 26.5462 53.4005 28.8701 50.4005C31.2834 47.3005 33.7861 44.0005 39.0596 44.0005C44.3331 44.0005 46.9252 47.2005 49.3385 50.4005C51.6624 53.4005 53.8969 56.2005 58.2766 56.2005C62.6563 56.2005 64.8908 53.4005 67.2147 50.4005C69.8068 47.3005 72.3988 44.0005 77.6724 44.0005C82.9459 44.0005 85.5379 47.2005 88.0406 50.4005C90.3645 53.4005 92.599 56.2005 96.9787 56.2005C101.358 56.2005 103.593 53.4005 105.917 50.4005C108.42 47.3005 111.012 44.0005 116.285 44.0005C121.559 44.0005 124.151 47.2005 126.653 50.4005C128.977 53.4005 131.212 56.2005 135.591 56.2005C139.971 56.2005 142.206 53.4005 144.53 50.4005C147.032 47.3005 149.624 44.0005 154.898 44.0005C160.171 44.0005 162.763 47.2005 165.266 50.4005C167.59 53.4005 169.825 56.2005 174.204 56.2005C178.584 56.2005 180.818 53.4005 183.142 50.4005C185.645 47.3005 188.237 44.0005 193.511 44.0005V45.2005C189.131 45.2005 186.896 48.0005 184.572 51.0005C181.98 54.2005 179.478 57.4005 174.204 57.4005Z" fill="#295271"/>
<path d="M174.204 68.2004C168.931 68.2004 166.339 65.0004 163.836 61.8004C161.512 58.8004 159.278 56.0004 154.898 56.0004C150.518 56.0004 148.284 58.8004 145.96 61.8004C143.457 64.9004 140.865 68.2004 135.592 68.2004C130.318 68.2004 127.726 65.0004 125.223 61.8004C122.899 58.8004 120.665 56.0004 116.285 56.0004C111.905 56.0004 109.671 58.8004 107.347 61.8004C104.844 64.9004 102.252 68.2004 96.9788 68.2004C91.7053 68.2004 89.1132 65.0004 86.6999 61.9004C84.376 58.9004 82.1415 56.1004 77.7618 56.1004C73.3821 56.1004 71.1476 58.9004 68.8237 61.9004C66.321 65.0004 63.7289 68.3004 58.4554 68.3004C53.1819 68.3004 50.5899 65.1004 48.1766 61.9004C45.8527 58.9004 43.6181 56.1004 39.2385 56.1004C34.8588 56.1004 32.6242 58.9004 30.3003 61.9004C27.7976 65.0004 25.2056 68.3004 20.0215 68.3004C14.748 68.3004 12.1559 65.1004 9.65322 61.9004C7.32931 58.9004 5.09477 56.1004 0.715088 56.1004V54.9004C5.98859 54.9004 8.58065 58.1004 11.0833 61.3004C13.4072 64.3004 15.6418 67.1004 20.0215 67.1004C24.4011 67.1004 26.6357 64.3004 28.9596 61.3004C31.4623 58.2004 34.0543 54.9004 39.2385 54.9004C44.512 54.9004 47.104 58.1004 49.5173 61.3004C51.8412 64.3004 54.0758 67.1004 58.4554 67.1004C62.8351 67.1004 65.0697 64.3004 67.3936 61.3004C69.8962 58.2004 72.4883 54.9004 77.7618 54.9004C83.0353 54.9004 85.6274 58.1004 88.13 61.3004C90.454 64.3004 92.6885 67.1004 97.0682 67.1004C101.448 67.1004 103.682 64.3004 106.006 61.3004C108.509 58.2004 111.101 54.9004 116.375 54.9004C121.648 54.9004 124.24 58.1004 126.743 61.3004C129.067 64.3004 131.301 67.1004 135.681 67.1004C140.061 67.1004 142.295 64.3004 144.619 61.3004C147.122 58.2004 149.714 54.9004 154.987 54.9004C160.261 54.9004 162.853 58.1004 165.356 61.3004C167.679 64.3004 169.914 67.1004 174.294 67.1004C178.673 67.1004 180.908 64.3004 183.232 61.3004C185.734 58.2004 188.327 54.9004 193.6 54.9004V56.1004C189.22 56.1004 186.986 58.9004 184.662 61.9004C181.98 65.0004 179.478 68.2004 174.204 68.2004Z" fill="#295271"/>
<path d="M174.204 79.0006C168.931 79.0006 166.339 75.8006 163.836 72.6006C161.512 69.6006 159.278 66.8006 154.898 66.8006C150.518 66.8006 148.284 69.6006 145.96 72.6006C143.457 75.7006 140.865 79.0006 135.591 79.0006C130.318 79.0006 127.726 75.8006 125.223 72.6006C122.899 69.6006 120.665 66.8006 116.285 66.8006C111.905 66.8006 109.671 69.6006 107.347 72.6006C104.844 75.7006 102.252 79.0006 96.9787 79.0006C91.7052 79.0006 89.1132 75.8006 86.6105 72.6006C84.2866 69.6006 82.0521 66.8006 77.6724 66.8006C73.2927 66.8006 71.0582 69.6006 68.7342 72.6006C66.2316 75.7006 63.6395 79.0006 58.366 79.0006C53.0925 79.0006 50.5004 75.8006 48.0871 72.6006C45.7632 69.6006 43.5287 66.8006 39.149 66.8006C34.7693 66.8006 32.5348 69.6006 30.2109 72.6006C27.6188 75.8006 25.0268 79.0006 19.8426 79.0006C14.5691 79.0006 11.9771 75.8006 9.4744 72.6006C7.15049 69.6006 4.91596 66.8006 0.53627 66.8006V65.6006C5.80977 65.6006 8.40183 68.8006 10.9045 72.0006C13.2284 75.0006 15.463 77.8006 19.8426 77.8006C24.2223 77.8006 26.4569 75.0006 28.7808 72.0006C31.2835 68.9006 33.8755 65.6006 39.0596 65.6006C44.3331 65.6006 46.9252 68.8006 49.3385 72.0006C51.6624 75.0006 53.8969 77.8006 58.2766 77.8006C62.6563 77.8006 64.8908 75.0006 67.2148 72.0006C69.7174 68.9006 72.3095 65.6006 77.583 65.6006C82.8565 65.6006 85.4485 68.8006 87.9512 72.0006C90.2751 75.0006 92.5097 77.8006 96.8894 77.8006C101.269 77.8006 103.504 75.0006 105.827 72.0006C108.33 68.9006 110.922 65.6006 116.196 65.6006C121.469 65.6006 124.061 68.8006 126.564 72.0006C128.888 75.0006 131.122 77.8006 135.502 77.8006C139.882 77.8006 142.116 75.0006 144.44 72.0006C146.943 68.9006 149.535 65.6006 154.808 65.6006C160.082 65.6006 162.674 68.8006 165.177 72.0006C167.501 75.0006 169.735 77.8006 174.115 77.8006C178.495 77.8006 180.729 75.0006 183.053 72.0006C185.556 68.9006 188.148 65.6006 193.421 65.6006V66.8006C189.042 66.8006 186.807 69.6006 184.483 72.6006C181.98 75.8006 179.478 79.0006 174.204 79.0006Z" fill="#295271"/>
<path d="M174.204 89.8004C168.931 89.8004 166.339 86.6004 163.836 83.4004C161.512 80.4004 159.278 77.6004 154.898 77.6004C150.518 77.6004 148.284 80.4004 145.96 83.4004C143.457 86.5004 140.865 89.8004 135.591 89.8004C130.318 89.8004 127.726 86.6004 125.223 83.4004C122.899 80.4004 120.665 77.6004 116.285 77.6004C111.905 77.6004 109.671 80.4004 107.347 83.4004C104.844 86.5004 102.252 89.8004 96.9787 89.8004C91.7052 89.8004 89.1132 86.6004 86.6105 83.4004C84.2866 80.4004 82.052 77.6004 77.6724 77.6004C73.2927 77.6004 71.0581 80.4004 68.7342 83.4004C66.2315 86.5004 63.6395 89.8004 58.366 89.8004C53.0925 89.8004 50.5004 86.6004 48.0871 83.4004C45.7632 80.4004 43.5287 77.6004 39.149 77.6004C34.7693 77.6004 32.5348 80.4004 30.2109 83.4004C27.7082 86.5004 25.1161 89.8004 19.932 89.8004C14.6585 89.8004 12.0664 86.6004 9.56376 83.4004C7.23985 80.4004 5.00531 77.6004 0.625626 77.6004V76.4004C5.89913 76.4004 8.49118 79.6004 10.9939 82.8004C13.3178 85.8004 15.5523 88.6004 19.932 88.6004C24.3117 88.6004 26.5462 85.8004 28.8701 82.8004C31.3728 79.7004 33.9649 76.4004 39.149 76.4004C44.4225 76.4004 47.0145 79.6004 49.4278 82.8004C51.7518 85.8004 53.9863 88.6004 58.366 88.6004C62.7457 88.6004 64.9802 85.8004 67.3041 82.8004C69.8068 79.7004 72.3988 76.4004 77.6724 76.4004C82.9459 76.4004 85.5379 79.6004 88.0406 82.8004C90.3645 85.8004 92.599 88.6004 96.9787 88.6004C101.358 88.6004 103.593 85.8004 105.917 82.8004C108.42 79.7004 111.012 76.4004 116.285 76.4004C121.559 76.4004 124.151 79.6004 126.653 82.8004C128.977 85.8004 131.212 88.6004 135.591 88.6004C139.971 88.6004 142.206 85.8004 144.53 82.8004C147.032 79.7004 149.624 76.4004 154.898 76.4004C160.171 76.4004 162.763 79.6004 165.266 82.8004C167.59 85.8004 169.825 88.6004 174.204 88.6004C178.584 88.6004 180.818 85.8004 183.142 82.8004C185.645 79.7004 188.237 76.4004 193.511 76.4004V77.6004C189.131 77.6004 186.896 80.4004 184.572 83.4004C181.98 86.6004 179.478 89.8004 174.204 89.8004Z" fill="#295271"/>
<path d="M174.204 100.6C168.931 100.6 166.339 97.4004 163.836 94.2004C161.512 91.2004 159.278 88.4004 154.898 88.4004C150.518 88.4004 148.284 91.2004 145.96 94.2004C143.457 97.3004 140.865 100.6 135.591 100.6C130.318 100.6 127.726 97.4004 125.223 94.2004C122.899 91.2004 120.665 88.4004 116.285 88.4004C111.905 88.4004 109.671 91.2004 107.347 94.2004C104.844 97.3004 102.252 100.6 96.9787 100.6C91.7052 100.6 89.1132 97.4004 86.6105 94.2004C84.2866 91.2004 82.052 88.4004 77.6724 88.4004C73.2927 88.4004 71.0581 91.2004 68.7342 94.2004C66.2315 97.3004 63.6395 100.6 58.366 100.6C53.0925 100.6 50.5004 97.4004 48.0871 94.2004C45.7632 91.2004 43.5287 88.4004 39.149 88.4004C34.7693 88.4004 32.5348 91.2004 30.2109 94.2004C27.7082 97.3004 25.1161 100.6 19.932 100.6C14.6585 100.6 12.0664 97.4004 9.56376 94.2004C7.23985 91.2004 5.00531 88.4004 0.625626 88.4004V87.2004C5.89913 87.2004 8.49118 90.4004 10.9939 93.6004C13.3178 96.6004 15.5523 99.4004 19.932 99.4004C24.3117 99.4004 26.5462 96.6004 28.8701 93.6004C31.3728 90.5004 33.9649 87.2004 39.149 87.2004C44.4225 87.2004 47.0145 90.4004 49.4278 93.6004C51.7518 96.6004 53.9863 99.4004 58.366 99.4004C62.7457 99.4004 64.9802 96.6004 67.3041 93.6004C69.8068 90.5004 72.3988 87.2004 77.6724 87.2004C82.9459 87.2004 85.5379 90.4004 88.0406 93.6004C90.3645 96.6004 92.599 99.4004 96.9787 99.4004C101.358 99.4004 103.593 96.6004 105.917 93.6004C108.42 90.5004 111.012 87.2004 116.285 87.2004C121.559 87.2004 124.151 90.4004 126.653 93.6004C128.977 96.6004 131.212 99.4004 135.591 99.4004C139.971 99.4004 142.206 96.6004 144.53 93.6004C147.032 90.5004 149.624 87.2004 154.898 87.2004C160.171 87.2004 162.763 90.4004 165.266 93.6004C167.59 96.6004 169.825 99.4004 174.204 99.4004C178.584 99.4004 180.818 96.6004 183.142 93.6004C185.645 90.5004 188.237 87.2004 193.511 87.2004V88.4004C189.131 88.4004 186.896 91.2004 184.572 94.2004C181.98 97.4004 179.478 100.6 174.204 100.6Z" fill="#295271"/>
<path d="M174.204 111.4C168.931 111.4 166.339 108.2 163.836 105C161.512 102 159.278 99.2005 154.898 99.2005C150.518 99.2005 148.284 102 145.96 105C143.457 108.1 140.865 111.4 135.591 111.4C130.318 111.4 127.726 108.2 125.223 105C122.899 102 120.665 99.2005 116.285 99.2005C111.905 99.2005 109.671 102 107.347 105C104.844 108.1 102.252 111.4 96.9787 111.4C91.7052 111.4 89.1132 108.2 86.6105 105C84.2866 102 82.052 99.2005 77.6724 99.2005C73.2927 99.2005 71.0581 102 68.7342 105C66.2315 108.1 63.6395 111.4 58.366 111.4C53.0925 111.4 50.5004 108.2 48.0871 105C45.7632 102 43.5287 99.2005 39.149 99.2005C34.7693 99.2005 32.5348 102 30.2109 105C27.7082 108.1 25.1161 111.4 19.932 111.4C14.6585 111.4 12.0664 108.2 9.56376 105C7.23985 102 5.00531 99.2005 0.625626 99.2005V98.0005C5.89913 98.0005 8.49118 101.2 10.9939 104.4C13.3178 107.4 15.5523 110.2 19.932 110.2C24.3117 110.2 26.5462 107.4 28.8701 104.4C31.3728 101.3 33.9649 98.0005 39.149 98.0005C44.4225 98.0005 47.0145 101.2 49.4278 104.4C51.7518 107.4 53.9863 110.2 58.366 110.2C62.7457 110.2 64.9802 107.4 67.3041 104.4C69.8068 101.3 72.3988 98.0005 77.6724 98.0005C82.9459 98.0005 85.5379 101.2 88.0406 104.4C90.3645 107.4 92.599 110.2 96.9787 110.2C101.358 110.2 103.593 107.4 105.917 104.4C108.42 101.3 111.012 98.0005 116.285 98.0005C121.559 98.0005 124.151 101.2 126.653 104.4C128.977 107.4 131.212 110.2 135.591 110.2C139.971 110.2 142.206 107.4 144.53 104.4C147.032 101.3 149.624 98.0005 154.898 98.0005C160.171 98.0005 162.763 101.2 165.266 104.4C167.59 107.4 169.825 110.2 174.204 110.2C178.584 110.2 180.818 107.4 183.142 104.4C185.645 101.3 188.237 98.0005 193.511 98.0005V99.2005C189.131 99.2005 186.896 102 184.572 105C181.98 108.2 179.478 111.4 174.204 111.4Z" fill="#295271"/>
<path d="M174.204 122.201C168.931 122.201 166.339 119.001 163.836 115.801C161.512 112.801 159.278 110.001 154.898 110.001C150.518 110.001 148.284 112.801 145.96 115.801C143.457 118.901 140.865 122.201 135.591 122.201C130.318 122.201 127.726 119.001 125.223 115.801C122.899 112.801 120.665 110.001 116.285 110.001C111.905 110.001 109.671 112.801 107.347 115.801C104.844 118.901 102.252 122.201 96.9787 122.201C91.7052 122.201 89.1132 119.001 86.6105 115.801C84.2866 112.801 82.052 110.001 77.6724 110.001C73.2927 110.001 71.0581 112.801 68.7342 115.801C66.2315 118.901 63.6395 122.201 58.366 122.201C53.0925 122.201 50.5004 119.001 48.0871 115.801C45.7632 112.801 43.5287 110.001 39.149 110.001C34.7693 110.001 32.5348 112.801 30.2109 115.801C27.7082 118.901 25.1161 122.201 19.932 122.201C14.6585 122.201 12.0664 119.001 9.56376 115.801C7.23985 112.801 5.00531 110.001 0.625626 110.001V108.801C5.89913 108.801 8.49118 112.001 10.9939 115.201C13.3178 118.201 15.5523 121.001 19.932 121.001C24.3117 121.001 26.5462 118.201 28.8701 115.201C31.3728 112.101 33.9649 108.801 39.149 108.801C44.4225 108.801 47.0145 112.001 49.4278 115.201C51.7518 118.201 53.9863 121.001 58.366 121.001C62.7457 121.001 64.9802 118.201 67.3041 115.201C69.8068 112.101 72.3988 108.801 77.6724 108.801C82.9459 108.801 85.5379 112.001 88.0406 115.201C90.3645 118.201 92.599 121.001 96.9787 121.001C101.358 121.001 103.593 118.201 105.917 115.201C108.42 112.101 111.012 108.801 116.285 108.801C121.559 108.801 124.151 112.001 126.653 115.201C128.977 118.201 131.212 121.001 135.591 121.001C139.971 121.001 142.206 118.201 144.53 115.201C147.032 112.101 149.624 108.801 154.898 108.801C160.171 108.801 162.763 112.001 165.266 115.201C167.59 118.201 169.825 121.001 174.204 121.001C178.584 121.001 180.818 118.201 183.142 115.201C185.645 112.101 188.237 108.801 193.511 108.801V110.001C189.131 110.001 186.896 112.801 184.572 115.801C181.98 119.001 179.478 122.201 174.204 122.201Z" fill="#295271"/>
<path d="M173.668 13.4005C168.394 13.4005 165.802 10.2005 163.3 7.00049C160.976 4.00049 158.741 1.20049 154.362 1.20049C149.982 1.20049 147.747 4.00049 145.423 7.00049C142.921 10.1005 140.329 13.4005 135.055 13.4005C129.782 13.4005 127.19 10.2005 124.687 7.00049C122.363 4.00049 120.129 1.20049 115.749 1.20049C111.369 1.20049 109.135 4.00049 106.811 7.00049C104.308 10.1005 101.716 13.4005 96.4425 13.4005C91.169 13.4005 88.6663 10.2005 86.1636 7.00049C83.8397 4.00049 81.6052 1.20049 77.2255 1.20049C72.7564 1.20049 70.6113 4.00049 68.198 7.00049C65.6953 10.1005 63.1032 13.4005 57.8297 13.4005C52.5562 13.4005 49.9642 10.2005 47.5509 7.00049C45.227 4.00049 42.9924 1.20049 38.6127 1.20049C34.2331 1.20049 31.9985 4.00049 29.6746 7.00049C27.1719 10.1005 24.5799 13.4005 19.3958 13.4005C14.1223 13.4005 11.5302 10.2005 9.02752 7.00049C6.61422 4.00049 4.37969 1.20049 0 1.20049V0.000488281C5.2735 0.000488281 7.86556 3.20049 10.3682 6.40049C12.6922 9.40049 14.9267 12.2005 19.3064 12.2005C23.6861 12.2005 25.9206 9.40049 28.2445 6.40049C30.7472 3.20049 33.3392 0.000488281 38.6127 0.000488281C43.8862 0.000488281 46.4783 3.20049 48.8916 6.40049C51.2155 9.40049 53.45 12.2005 57.8297 12.2005C62.2094 12.2005 64.4439 9.40049 66.7679 6.40049C69.3599 3.20049 71.952 0.000488281 77.1361 0.000488281C82.4096 0.000488281 85.0017 3.20049 87.5043 6.40049C89.8283 9.40049 92.0628 12.2005 96.4425 12.2005C100.822 12.2005 103.057 9.40049 105.381 6.40049C107.883 3.30049 110.475 0.000488281 115.749 0.000488281C121.022 0.000488281 123.614 3.20049 126.117 6.40049C128.441 9.40049 130.676 12.2005 135.055 12.2005C139.435 12.2005 141.669 9.40049 143.993 6.40049C146.496 3.30049 149.088 0.000488281 154.362 0.000488281C159.635 0.000488281 162.227 3.20049 164.73 6.40049C167.054 9.40049 169.288 12.2005 173.668 12.2005C178.048 12.2005 180.282 9.40049 182.606 6.40049C185.109 3.20049 187.701 0.000488281 192.974 0.000488281V1.20049C188.595 1.20049 186.36 4.00049 184.036 7.00049C181.534 10.2005 178.941 13.4005 173.668 13.4005Z" fill="#295271"/>
<path d="M173.668 24.2005C168.394 24.2005 165.802 21.0005 163.3 17.8005C160.976 14.8005 158.741 12.0005 154.362 12.0005C149.982 12.0005 147.747 14.8005 145.423 17.8005C142.921 20.9005 140.329 24.2005 135.055 24.2005C129.782 24.2005 127.19 21.0005 124.687 17.8005C122.363 14.8005 120.129 12.0005 115.749 12.0005C111.369 12.0005 109.135 14.8005 106.811 17.8005C104.308 20.9005 101.716 24.2005 96.4425 24.2005C91.169 24.2005 88.5769 21.0005 86.0742 17.8005C83.7503 14.8005 81.5158 12.0005 77.1361 12.0005C72.7564 12.0005 70.5219 14.8005 68.198 17.8005C65.6953 20.9005 63.1032 24.2005 57.8297 24.2005C52.5562 24.2005 49.9642 21.0005 47.5509 17.8005C45.227 14.8005 42.9924 12.0005 38.6127 12.0005C34.2331 12.0005 31.9985 14.8005 29.6746 17.8005C27.1719 20.9005 24.5799 24.2005 19.3958 24.2005C14.1223 24.2005 11.5302 21.0005 9.02752 17.8005C6.61422 14.8005 4.37969 12.0005 0 12.0005V10.8005C5.2735 10.8005 7.86556 14.0005 10.3682 17.2005C12.6922 20.2005 14.9267 23.0005 19.3064 23.0005C23.6861 23.0005 25.9206 20.2005 28.2445 17.2005C30.7472 14.1005 33.3392 10.8005 38.5234 10.8005C43.7969 10.8005 46.3889 14.0005 48.8022 17.2005C51.1261 20.2005 53.3607 23.0005 57.7403 23.0005C62.12 23.0005 64.3546 20.2005 66.6785 17.2005C69.1812 14.1005 71.7732 10.8005 77.0467 10.8005C82.3202 10.8005 84.9123 14.0005 87.415 17.2005C89.7389 20.2005 91.9734 23.0005 96.3531 23.0005C100.733 23.0005 102.967 20.2005 105.291 17.2005C107.794 14.1005 110.386 10.8005 115.659 10.8005C120.933 10.8005 123.525 14.0005 126.028 17.2005C128.352 20.2005 130.586 23.0005 134.966 23.0005C139.346 23.0005 141.58 20.2005 143.904 17.2005C146.407 14.1005 148.999 10.8005 154.272 10.8005C159.546 10.8005 162.138 14.0005 164.64 17.2005C166.964 20.2005 169.199 23.0005 173.579 23.0005C177.958 23.0005 180.193 20.2005 182.517 17.2005C185.019 14.1005 187.611 10.8005 192.885 10.8005V12.0005C188.505 12.0005 186.271 14.8005 183.947 17.8005C181.534 20.9005 178.941 24.2005 173.668 24.2005Z" fill="#295271"/>
<path d="M173.668 35.0006C168.394 35.0006 165.802 31.8006 163.3 28.6006C160.976 25.6006 158.741 22.8006 154.362 22.8006C149.982 22.8006 147.747 25.6006 145.423 28.6006C142.921 31.7006 140.329 35.0006 135.055 35.0006C129.782 35.0006 127.19 31.8006 124.687 28.6006C122.363 25.6006 120.128 22.8006 115.749 22.8006C111.369 22.8006 109.135 25.6006 106.811 28.6006C104.308 31.7006 101.716 35.0006 96.4424 35.0006C91.1689 35.0006 88.5769 31.8006 86.0742 28.6006C83.7503 25.6006 81.5158 22.8006 77.1361 22.8006C72.7564 22.8006 70.5219 25.6006 68.1979 28.6006C65.6953 31.7006 63.1032 35.0006 57.8297 35.0006C52.5562 35.0006 49.9641 31.8006 47.5508 28.6006C45.2269 25.6006 42.9924 22.8006 38.6127 22.8006C34.233 22.8006 31.9985 25.6006 29.6746 28.6006C27.1719 31.7006 24.5798 35.0006 19.3957 35.0006C14.1222 35.0006 11.5302 31.8006 9.02749 28.6006C6.70358 25.6006 4.46904 22.8006 0.0893555 22.8006V21.6006C5.36285 21.6006 7.95491 24.8006 10.4576 28.0006C12.7815 31.0006 15.016 33.8006 19.3957 33.8006C23.7754 33.8006 26.0099 31.0006 28.3339 28.0006C30.8365 24.9006 33.4286 21.6006 38.6127 21.6006C43.8862 21.6006 46.4783 24.8006 48.8916 28.0006C51.2155 31.0006 53.45 33.8006 57.8297 33.8006C62.2094 33.8006 64.4439 31.0006 66.7678 28.0006C69.2705 24.9006 71.8626 21.6006 77.1361 21.6006C82.4096 21.6006 85.0016 24.8006 87.5043 28.0006C89.8282 31.0006 92.0628 33.8006 96.4424 33.8006C100.822 33.8006 103.057 31.0006 105.381 28.0006C107.883 24.9006 110.475 21.6006 115.749 21.6006C121.022 21.6006 123.614 24.8006 126.117 28.0006C128.441 31.0006 130.675 33.8006 135.055 33.8006C139.435 33.8006 141.669 31.0006 143.993 28.0006C146.496 24.9006 149.088 21.6006 154.362 21.6006C159.635 21.6006 162.227 24.8006 164.73 28.0006C167.054 31.0006 169.288 33.8006 173.668 33.8006C178.048 33.8006 180.282 31.0006 182.606 28.0006C185.109 24.9006 187.701 21.6006 192.974 21.6006V22.8006C188.595 22.8006 186.36 25.6006 184.036 28.6006C181.533 31.7006 178.941 35.0006 173.668 35.0006Z" fill="#295271"/>
<path d="M173.668 45.8004C168.394 45.8004 165.802 42.6004 163.3 39.4004C160.976 36.4004 158.741 33.6004 154.362 33.6004C149.982 33.6004 147.747 36.4004 145.423 39.4004C142.921 42.5004 140.329 45.8004 135.055 45.8004C129.782 45.8004 127.19 42.6004 124.687 39.4004C122.363 36.4004 120.128 33.6004 115.749 33.6004C111.369 33.6004 109.135 36.4004 106.811 39.4004C104.308 42.5004 101.716 45.8004 96.4424 45.8004C91.1689 45.8004 88.5769 42.6004 86.0742 39.4004C83.7503 36.4004 81.5158 33.6004 77.1361 33.6004C72.7564 33.6004 70.5219 36.4004 68.1979 39.4004C65.6953 42.5004 63.1032 45.8004 57.8297 45.8004C52.5562 45.8004 49.9641 42.6004 47.5508 39.4004C45.2269 36.4004 42.9924 33.6004 38.6127 33.6004C34.233 33.6004 31.9985 36.4004 29.6746 39.4004C27.1719 42.5004 24.5798 45.8004 19.3957 45.8004C14.1222 45.8004 11.5302 42.6004 9.02749 39.4004C6.70358 36.4004 4.46904 33.6004 0.0893555 33.6004V32.4004C5.36285 32.4004 7.95491 35.6004 10.4576 38.8004C12.7815 41.8004 15.016 44.6004 19.3957 44.6004C23.7754 44.6004 26.0099 41.8004 28.3339 38.8004C30.8365 35.7004 33.4286 32.4004 38.6127 32.4004C43.8862 32.4004 46.4783 35.6004 48.8916 38.8004C51.2155 41.8004 53.45 44.6004 57.8297 44.6004C62.2094 44.6004 64.4439 41.8004 66.7678 38.8004C69.2705 35.7004 71.8626 32.4004 77.1361 32.4004C82.4096 32.4004 85.0016 35.6004 87.5043 38.8004C89.8282 41.8004 92.0628 44.6004 96.4424 44.6004C100.822 44.6004 103.057 41.8004 105.381 38.8004C107.883 35.7004 110.475 32.4004 115.749 32.4004C121.022 32.4004 123.614 35.6004 126.117 38.8004C128.441 41.8004 130.675 44.6004 135.055 44.6004C139.435 44.6004 141.669 41.8004 143.993 38.8004C146.496 35.7004 149.088 32.4004 154.362 32.4004C159.635 32.4004 162.227 35.6004 164.73 38.8004C167.054 41.8004 169.288 44.6004 173.668 44.6004C178.048 44.6004 180.282 41.8004 182.606 38.8004C185.109 35.7004 187.701 32.4004 192.974 32.4004V33.6004C188.595 33.6004 186.36 36.4004 184.036 39.4004C181.533 42.5004 178.941 45.8004 173.668 45.8004Z" fill="#295271"/>
<path d="M173.668 56.6004C168.394 56.6004 165.802 53.4004 163.3 50.2004C160.976 47.2004 158.741 44.4004 154.362 44.4004C149.982 44.4004 147.747 47.2004 145.423 50.2004C142.921 53.3004 140.329 56.6004 135.055 56.6004C129.782 56.6004 127.19 53.4004 124.687 50.2004C122.363 47.2004 120.128 44.4004 115.749 44.4004C111.369 44.4004 109.135 47.2004 106.811 50.2004C104.308 53.3004 101.716 56.6004 96.4424 56.6004C91.1689 56.6004 88.5769 53.4004 86.0742 50.2004C83.7503 47.2004 81.5158 44.4004 77.1361 44.4004C72.7564 44.4004 70.5219 47.2004 68.1979 50.2004C65.6953 53.3004 63.1032 56.6004 57.8297 56.6004C52.5562 56.6004 49.9641 53.4004 47.5508 50.2004C45.2269 47.2004 42.9924 44.4004 38.6127 44.4004C34.233 44.4004 31.9985 47.2004 29.6746 50.2004C27.1719 53.3004 24.5798 56.6004 19.3957 56.6004C14.1222 56.6004 11.5302 53.4004 9.02749 50.2004C6.70358 47.2004 4.46904 44.4004 0.0893555 44.4004V43.2004C5.36285 43.2004 7.95491 46.4004 10.4576 49.6004C12.7815 52.6004 15.016 55.4004 19.3957 55.4004C23.7754 55.4004 26.0099 52.6004 28.3339 49.6004C30.8365 46.5004 33.4286 43.2004 38.6127 43.2004C43.8862 43.2004 46.4783 46.4004 48.8916 49.6004C51.2155 52.6004 53.45 55.4004 57.8297 55.4004C62.2094 55.4004 64.4439 52.6004 66.7678 49.6004C69.2705 46.5004 71.8626 43.2004 77.1361 43.2004C82.4096 43.2004 85.0016 46.4004 87.5043 49.6004C89.8282 52.6004 92.0628 55.4004 96.4424 55.4004C100.822 55.4004 103.057 52.6004 105.381 49.6004C107.883 46.5004 110.475 43.2004 115.749 43.2004C121.022 43.2004 123.614 46.4004 126.117 49.6004C128.441 52.6004 130.675 55.4004 135.055 55.4004C139.435 55.4004 141.669 52.6004 143.993 49.6004C146.496 46.5004 149.088 43.2004 154.362 43.2004C159.635 43.2004 162.227 46.4004 164.73 49.6004C167.054 52.6004 169.288 55.4004 173.668 55.4004C178.048 55.4004 180.282 52.6004 182.606 49.6004C185.109 46.5004 187.701 43.2004 192.974 43.2004V44.4004C188.595 44.4004 186.36 47.2004 184.036 50.2004C181.533 53.3004 178.941 56.6004 173.668 56.6004Z" fill="#295271"/>
<path d="M173.668 67.4005C168.394 67.4005 165.802 64.2005 163.3 61.0005C160.976 58.0005 158.741 55.2005 154.362 55.2005C149.982 55.2005 147.747 58.0005 145.423 61.0005C142.921 64.1005 140.329 67.4005 135.055 67.4005C129.782 67.4005 127.19 64.2005 124.687 61.0005C122.363 58.0005 120.128 55.2005 115.749 55.2005C111.369 55.2005 109.135 58.0005 106.811 61.0005C104.308 64.1005 101.716 67.4005 96.4424 67.4005C91.1689 67.4005 88.5769 64.2005 86.0742 61.0005C83.7503 58.0005 81.5158 55.2005 77.1361 55.2005C72.7564 55.2005 70.5219 58.0005 68.1979 61.0005C65.6953 64.1005 63.1032 67.4005 57.8297 67.4005C52.5562 67.4005 49.9641 64.2005 47.5508 61.0005C45.2269 58.0005 42.9924 55.2005 38.6127 55.2005C34.233 55.2005 31.9985 58.0005 29.6746 61.0005C27.1719 64.1005 24.5798 67.4005 19.3957 67.4005C14.1222 67.4005 11.5302 64.2005 9.02749 61.0005C6.70358 58.0005 4.46904 55.2005 0.0893555 55.2005V54.0005C5.36285 54.0005 7.95491 57.2005 10.4576 60.4005C12.7815 63.4005 15.016 66.2005 19.3957 66.2005C23.7754 66.2005 26.0099 63.4005 28.3339 60.4005C30.8365 57.3005 33.4286 54.0005 38.6127 54.0005C43.8862 54.0005 46.4783 57.2005 48.8916 60.4005C51.2155 63.4005 53.45 66.2005 57.8297 66.2005C62.2094 66.2005 64.4439 63.4005 66.7678 60.4005C69.2705 57.3005 71.8626 54.0005 77.1361 54.0005C82.4096 54.0005 85.0016 57.2005 87.5043 60.4005C89.8282 63.4005 92.0628 66.2005 96.4424 66.2005C100.822 66.2005 103.057 63.4005 105.381 60.4005C107.883 57.3005 110.475 54.0005 115.749 54.0005C121.022 54.0005 123.614 57.2005 126.117 60.4005C128.441 63.4005 130.675 66.2005 135.055 66.2005C139.435 66.2005 141.669 63.4005 143.993 60.4005C146.496 57.3005 149.088 54.0005 154.362 54.0005C159.635 54.0005 162.227 57.2005 164.73 60.4005C167.054 63.4005 169.288 66.2005 173.668 66.2005C178.048 66.2005 180.282 63.4005 182.606 60.4005C185.109 57.3005 187.701 54.0005 192.974 54.0005V55.2005C188.595 55.2005 186.36 58.0005 184.036 61.0005C181.533 64.1005 178.941 67.4005 173.668 67.4005Z" fill="#295271"/>
<path d="M173.668 78.2005C168.394 78.2005 165.802 75.0005 163.3 71.8005C160.976 68.8005 158.741 66.0005 154.362 66.0005C149.982 66.0005 147.747 68.8005 145.423 71.8005C142.921 74.9005 140.329 78.2005 135.055 78.2005C129.782 78.2005 127.19 75.0005 124.687 71.8005C122.363 68.8005 120.129 66.0005 115.749 66.0005C111.369 66.0005 109.135 68.8005 106.811 71.8005C104.308 74.9005 101.716 78.2005 96.4425 78.2005C91.169 78.2005 88.5769 75.0005 86.0742 71.8005C83.7503 68.8005 81.5158 66.0005 77.1361 66.0005C72.7564 66.0005 70.5219 68.8005 68.198 71.8005C65.6953 74.9005 63.1032 78.2005 57.8297 78.2005C52.5562 78.2005 49.9642 75.0005 47.5509 71.8005C45.227 68.8005 42.9924 66.0005 38.6127 66.0005C34.2331 66.0005 31.9985 68.8005 29.6746 71.8005C27.1719 74.9005 24.5799 78.2005 19.3958 78.2005C14.1223 78.2005 11.5302 75.0005 9.02752 71.8005C6.61422 68.8005 4.37969 66.0005 0 66.0005V64.8005C5.2735 64.8005 7.86556 68.0005 10.3682 71.2005C12.6922 74.2005 14.9267 77.0005 19.3064 77.0005C23.6861 77.0005 25.9206 74.2005 28.2445 71.2005C30.7472 68.1005 33.3392 64.8005 38.5234 64.8005C43.7969 64.8005 46.3889 68.0005 48.8022 71.2005C51.1261 74.2005 53.3607 77.0005 57.7403 77.0005C62.12 77.0005 64.3546 74.2005 66.6785 71.2005C69.1812 68.1005 71.7732 64.8005 77.0467 64.8005C82.3202 64.8005 84.9123 68.0005 87.415 71.2005C89.7389 74.2005 91.9734 77.0005 96.3531 77.0005C100.733 77.0005 102.967 74.2005 105.291 71.2005C107.794 68.1005 110.386 64.8005 115.659 64.8005C120.933 64.8005 123.525 68.0005 126.028 71.2005C128.352 74.2005 130.586 77.0005 134.966 77.0005C139.346 77.0005 141.58 74.2005 143.904 71.2005C146.407 68.1005 148.999 64.8005 154.272 64.8005C159.546 64.8005 162.138 68.0005 164.64 71.2005C166.964 74.2005 169.199 77.0005 173.579 77.0005C177.958 77.0005 180.193 74.2005 182.517 71.2005C185.019 68.1005 187.611 64.8005 192.885 64.8005V66.0005C188.505 66.0005 186.271 68.8005 183.947 71.8005C181.534 74.9005 178.941 78.2005 173.668 78.2005Z" fill="#295271"/>
<path d="M173.668 89.0006C168.394 89.0006 165.802 85.8006 163.3 82.6006C160.976 79.6006 158.741 76.8006 154.362 76.8006C149.982 76.8006 147.747 79.6006 145.423 82.6006C142.921 85.7006 140.329 89.0006 135.055 89.0006C129.782 89.0006 127.19 85.8006 124.687 82.6006C122.363 79.6006 120.128 76.8006 115.749 76.8006C111.369 76.8006 109.135 79.6006 106.811 82.6006C104.308 85.7006 101.716 89.0006 96.4424 89.0006C91.1689 89.0006 88.5769 85.8006 86.0742 82.6006C83.7503 79.6006 81.5158 76.8006 77.1361 76.8006C72.7564 76.8006 70.5219 79.6006 68.1979 82.6006C65.6953 85.7006 63.1032 89.0006 57.8297 89.0006C52.5562 89.0006 49.9641 85.8006 47.5508 82.6006C45.2269 79.6006 42.9924 76.8006 38.6127 76.8006C34.233 76.8006 31.9985 79.6006 29.6746 82.6006C27.1719 85.7006 24.5798 89.0006 19.3957 89.0006C14.1222 89.0006 11.5302 85.8006 9.02749 82.6006C6.70358 79.6006 4.46904 76.8006 0.0893555 76.8006V75.6006C5.36285 75.6006 7.95491 78.8006 10.4576 82.0006C12.7815 85.0006 15.016 87.8006 19.3957 87.8006C23.7754 87.8006 26.0099 85.0006 28.3339 82.0006C30.8365 78.9006 33.4286 75.6006 38.6127 75.6006C43.8862 75.6006 46.4783 78.8006 48.8916 82.0006C51.2155 85.0006 53.45 87.8006 57.8297 87.8006C62.2094 87.8006 64.4439 85.0006 66.7678 82.0006C69.2705 78.9006 71.8626 75.6006 77.1361 75.6006C82.4096 75.6006 85.0016 78.8006 87.5043 82.0006C89.8282 85.0006 92.0628 87.8006 96.4424 87.8006C100.822 87.8006 103.057 85.0006 105.381 82.0006C107.883 78.9006 110.475 75.6006 115.749 75.6006C121.022 75.6006 123.614 78.8006 126.117 82.0006C128.441 85.0006 130.675 87.8006 135.055 87.8006C139.435 87.8006 141.669 85.0006 143.993 82.0006C146.496 78.9006 149.088 75.6006 154.362 75.6006C159.635 75.6006 162.227 78.8006 164.73 82.0006C167.054 85.0006 169.288 87.8006 173.668 87.8006C178.048 87.8006 180.282 85.0006 182.606 82.0006C185.109 78.9006 187.701 75.6006 192.974 75.6006V76.8006C188.595 76.8006 186.36 79.6006 184.036 82.6006C181.533 85.7006 178.941 89.0006 173.668 89.0006Z" fill="#295271"/>
<path d="M173.668 99.8004C168.394 99.8004 165.802 96.6004 163.3 93.4004C160.976 90.4004 158.741 87.6004 154.362 87.6004C149.982 87.6004 147.747 90.4004 145.423 93.4004C142.921 96.5004 140.329 99.8004 135.055 99.8004C129.782 99.8004 127.19 96.6004 124.687 93.4004C122.363 90.4004 120.128 87.6004 115.749 87.6004C111.369 87.6004 109.135 90.4004 106.811 93.4004C104.308 96.5004 101.716 99.8004 96.4424 99.8004C91.1689 99.8004 88.5769 96.6004 86.0742 93.4004C83.7503 90.4004 81.5158 87.6004 77.1361 87.6004C72.7564 87.6004 70.5219 90.4004 68.1979 93.4004C65.6953 96.5004 63.1032 99.8004 57.8297 99.8004C52.5562 99.8004 49.9641 96.6004 47.5508 93.4004C45.2269 90.4004 42.9924 87.6004 38.6127 87.6004C34.233 87.6004 31.9985 90.4004 29.6746 93.4004C27.1719 96.5004 24.5798 99.8004 19.3957 99.8004C14.1222 99.8004 11.5302 96.6004 9.02749 93.4004C6.70358 90.4004 4.46904 87.6004 0.0893555 87.6004V86.4004C5.36285 86.4004 7.95491 89.6004 10.4576 92.8004C12.7815 95.8004 15.016 98.6004 19.3957 98.6004C23.7754 98.6004 26.0099 95.8004 28.3339 92.8004C30.8365 89.7004 33.4286 86.4004 38.6127 86.4004C43.8862 86.4004 46.4783 89.6004 48.8916 92.8004C51.2155 95.8004 53.45 98.6004 57.8297 98.6004C62.2094 98.6004 64.4439 95.8004 66.7678 92.8004C69.2705 89.7004 71.8626 86.4004 77.1361 86.4004C82.4096 86.4004 85.0016 89.6004 87.5043 92.8004C89.8282 95.8004 92.0628 98.6004 96.4424 98.6004C100.822 98.6004 103.057 95.8004 105.381 92.8004C107.883 89.7004 110.475 86.4004 115.749 86.4004C121.022 86.4004 123.614 89.6004 126.117 92.8004C128.441 95.8004 130.675 98.6004 135.055 98.6004C139.435 98.6004 141.669 95.8004 143.993 92.8004C146.496 89.7004 149.088 86.4004 154.362 86.4004C159.635 86.4004 162.227 89.6004 164.73 92.8004C167.054 95.8004 169.288 98.6004 173.668 98.6004C178.048 98.6004 180.282 95.8004 182.606 92.8004C185.109 89.7004 187.701 86.4004 192.974 86.4004V87.6004C188.595 87.6004 186.36 90.4004 184.036 93.4004C181.533 96.5004 178.941 99.8004 173.668 99.8004Z" fill="#295271"/>
<path d="M173.668 110.6C168.394 110.6 165.802 107.4 163.3 104.2C160.976 101.2 158.741 98.4004 154.362 98.4004C149.982 98.4004 147.747 101.2 145.423 104.2C142.921 107.3 140.329 110.6 135.055 110.6C129.782 110.6 127.19 107.4 124.687 104.2C122.363 101.2 120.128 98.4004 115.749 98.4004C111.369 98.4004 109.135 101.2 106.811 104.2C104.308 107.3 101.716 110.6 96.4424 110.6C91.1689 110.6 88.5769 107.4 86.0742 104.2C83.7503 101.2 81.5158 98.4004 77.1361 98.4004C72.7564 98.4004 70.5219 101.2 68.1979 104.2C65.6953 107.3 63.1032 110.6 57.8297 110.6C52.5562 110.6 49.9641 107.4 47.5508 104.2C45.2269 101.2 42.9924 98.4004 38.6127 98.4004C34.233 98.4004 31.9985 101.2 29.6746 104.2C27.1719 107.3 24.5798 110.6 19.3957 110.6C14.1222 110.6 11.5302 107.4 9.02749 104.2C6.70358 101.2 4.46904 98.4004 0.0893555 98.4004V97.2004C5.36285 97.2004 7.95491 100.4 10.4576 103.6C12.7815 106.6 15.016 109.4 19.3957 109.4C23.7754 109.4 26.0099 106.6 28.3339 103.6C30.8365 100.5 33.4286 97.2004 38.6127 97.2004C43.8862 97.2004 46.4783 100.4 48.8916 103.6C51.2155 106.6 53.45 109.4 57.8297 109.4C62.2094 109.4 64.4439 106.6 66.7678 103.6C69.2705 100.5 71.8626 97.2004 77.1361 97.2004C82.4096 97.2004 85.0016 100.4 87.5043 103.6C89.8282 106.6 92.0628 109.4 96.4424 109.4C100.822 109.4 103.057 106.6 105.381 103.6C107.883 100.5 110.475 97.2004 115.749 97.2004C121.022 97.2004 123.614 100.4 126.117 103.6C128.441 106.6 130.675 109.4 135.055 109.4C139.435 109.4 141.669 106.6 143.993 103.6C146.496 100.5 149.088 97.2004 154.362 97.2004C159.635 97.2004 162.227 100.4 164.73 103.6C167.054 106.6 169.288 109.4 173.668 109.4C178.048 109.4 180.282 106.6 182.606 103.6C185.109 100.5 187.701 97.2004 192.974 97.2004V98.4004C188.595 98.4004 186.36 101.2 184.036 104.2C181.533 107.3 178.941 110.6 173.668 110.6Z" fill="#295271"/>
<path d="M173.668 121.3C168.394 121.3 165.802 118.1 163.3 114.9C160.976 111.9 158.741 109.1 154.362 109.1C149.982 109.1 147.747 111.9 145.423 114.9C142.921 118 140.329 121.3 135.055 121.3C129.782 121.3 127.19 118.1 124.687 114.9C122.363 111.9 120.128 109.1 115.749 109.1C111.369 109.1 109.135 111.9 106.811 114.9C104.308 118 101.716 121.3 96.4424 121.3C91.1689 121.3 88.5769 118.1 86.0742 114.9C83.7503 111.9 81.5158 109.1 77.1361 109.1C72.7564 109.1 70.5219 111.9 68.1979 114.9C65.6953 118 63.1032 121.3 57.8297 121.3C52.5562 121.3 49.9641 118.1 47.5508 114.9C45.2269 111.9 42.9924 109.1 38.6127 109.1C34.233 109.1 31.9985 111.9 29.6746 114.9C27.1719 118 24.5798 121.3 19.3957 121.3C14.1222 121.3 11.5302 118.1 9.02749 114.9C6.70358 111.9 4.46904 109.1 0.0893555 109.1V107.9C5.36285 107.9 7.95491 111.1 10.4576 114.3C12.7815 117.3 15.016 120.1 19.3957 120.1C23.7754 120.1 26.0099 117.3 28.3339 114.3C30.8365 111.2 33.4286 107.9 38.6127 107.9C43.8862 107.9 46.4783 111.1 48.8916 114.3C51.2155 117.3 53.45 120.1 57.8297 120.1C62.2094 120.1 64.4439 117.3 66.7678 114.3C69.2705 111.2 71.8626 107.9 77.1361 107.9C82.4096 107.9 85.0016 111.1 87.5043 114.3C89.8282 117.3 92.0628 120.1 96.4424 120.1C100.822 120.1 103.057 117.3 105.381 114.3C107.883 111.2 110.475 107.9 115.749 107.9C121.022 107.9 123.614 111.1 126.117 114.3C128.441 117.3 130.675 120.1 135.055 120.1C139.435 120.1 141.669 117.3 143.993 114.3C146.496 111.2 149.088 107.9 154.362 107.9C159.635 107.9 162.227 111.1 164.73 114.3C167.054 117.3 169.288 120.1 173.668 120.1C178.048 120.1 180.282 117.3 182.606 114.3C185.109 111.2 187.701 107.9 192.974 107.9V109.1C188.595 109.1 186.36 111.9 184.036 114.9C181.533 118.1 178.941 121.3 173.668 121.3Z" fill="#295271"/>
</g>
</svg>
